<svg width="413" height="107" viewBox="0 0 413 107" fill="none" xmlns="http://www.w3.org/2000/svg">
<mask id="mask0_362_55282" style="mask-type:alpha" maskUnits="userSpaceOnUse" x="0" y="0" width="413" height="107">
<rect x="0.661621" width="412" height="107" fill="#D9D9D9"/>
</mask>
<g mask="url(#mask0_362_55282)">
<mask id="mask1_362_55282" style="mask-type:luminance" maskUnits="userSpaceOnUse" x="-53" y="14" width="466" height="75">
<path d="M412.544 14H-52.3384V88.5943H412.544V14Z" fill="white"/>
</mask>
<g mask="url(#mask1_362_55282)">
<mask id="mask2_362_55282" style="mask-type:luminance" maskUnits="userSpaceOnUse" x="-53" y="14" width="464" height="73">
<path d="M-52.3384 14.8949H410.322V86.7887H-52.3384V14.8949Z" fill="white"/>
</mask>
<g mask="url(#mask2_362_55282)">
<path d="M-135.929 41.364C-136.33 42.2902 -136.892 43.1747 -137.1 44.1373C-137.922 47.9305 -138.749 51.7341 -139.348 55.569C-140.133 60.6266 -140.612 65.731 -141.418 70.7886C-141.757 72.9323 -142.511 75.0293 -143.245 77.0898C-143.619 78.1408 -144.254 79.1555 -144.962 80.0244C-146.585 82.0121 -148.838 82.0901 -150.431 80.092C-151.471 78.786 -152.298 77.2458 -152.923 75.6901C-155.03 70.4556 -156.217 64.9453 -157.164 59.409C-158.407 52.1712 -159.375 44.8866 -160.577 37.6384C-161.082 34.6049 -161.883 31.613 -162.575 28.6107C-162.674 28.1841 -162.908 27.7834 -163.08 27.3724C-163.168 27.3724 -163.257 27.3672 -163.34 27.3672C-163.725 28.4859 -164.25 29.5786 -164.474 30.7285C-165.395 35.4531 -166.269 40.1829 -167.081 44.9282C-168.038 50.5634 -169.069 56.1777 -171.15 61.5319C-171.551 62.5674 -172.055 63.5612 -172.544 64.555C-172.763 64.9973 -173.044 65.4136 -173.346 65.8038C-176.093 69.4045 -179.704 69.238 -182.025 65.3615C-183.716 62.5362 -184.429 59.3622 -185.126 56.1882C-185.542 54.2994 -185.979 52.4106 -186.489 50.5478C-186.677 49.8766 -187.067 49.2522 -187.436 48.6434C-188.441 46.9731 -188.982 46.9575 -189.934 48.6902C-190.553 49.8193 -191.047 51.0369 -191.448 52.2597C-192.494 55.4285 -193.509 58.6181 -195.376 61.4175C-196.121 62.531 -197.052 63.5768 -198.077 64.4406C-199.534 65.6581 -201.209 65.7726 -202.932 64.8152C-205.367 63.4623 -206.647 61.2874 -207.495 58.7482C-207.844 57.7075 -208.265 56.6565 -208.837 55.7251C-209.68 54.3566 -210.971 53.6229 -212.646 53.6229C-213.702 53.6229 -214.353 53.0454 -214.363 52.2024C-214.374 51.3751 -213.718 50.7299 -212.683 50.6987C-210.362 50.631 -208.374 51.5052 -207.001 53.3264C-206.09 54.5335 -205.408 55.9592 -204.852 57.3745C-204.264 58.8835 -203.764 60.4028 -202.531 61.5319C-201.131 62.7963 -200.148 62.838 -199.019 61.3498C-197.963 59.9605 -197.026 58.436 -196.308 56.849C-195.423 54.8873 -194.861 52.78 -194.065 50.7715C-193.498 49.3458 -192.921 47.8837 -192.083 46.6089C-190.121 43.6066 -187.306 43.6014 -185.287 46.5517C-183.95 48.5081 -183.123 50.6779 -182.66 53.0246C-182.108 55.8343 -181.4 58.6181 -180.62 61.3758C-180.329 62.4217 -179.741 63.4155 -179.147 64.3469C-178.252 65.7362 -177.358 65.8246 -176.244 64.5863C-175.536 63.7954 -174.876 62.8588 -174.527 61.8701C-173.445 58.7898 -172.274 55.7095 -171.592 52.5302C-170.51 47.4987 -169.875 42.3682 -168.897 37.3106C-168.257 34.017 -167.393 30.7597 -166.509 27.5233C-166.249 26.5711 -165.671 25.6501 -165.036 24.88C-163.969 23.5844 -162.33 23.6052 -161.259 24.9008C-160.702 25.5772 -160.27 26.3993 -159.958 27.2267C-158.532 31.0095 -157.923 34.9848 -157.382 38.9601C-156.175 47.8005 -155.004 56.646 -152.912 65.3355C-152.111 68.6552 -151.018 71.9125 -149.957 75.1593C-149.634 76.1376 -149.036 77.0429 -148.453 77.9119C-147.902 78.7288 -147.543 78.7184 -147.007 77.8702C-146.471 77.0169 -145.987 76.1011 -145.654 75.1489C-143.973 70.3619 -143.302 65.3824 -142.855 60.356C-142.391 55.1579 -141.783 49.9754 -140.43 44.9178C-140.04 43.4661 -139.535 42.0144 -138.838 40.6876C-137.24 37.6541 -134.467 37.4511 -132.739 40.391C-131.423 42.6284 -130.398 45.1052 -129.669 47.5975C-128.374 52.0359 -127.437 56.5784 -126.277 61.0532C-125.84 62.7183 -125.21 64.3365 -124.622 65.9599C-124.435 66.4646 -124.091 66.9121 -123.675 67.6406C-123.254 66.7977 -122.832 66.1889 -122.64 65.5176C-122.01 63.3219 -121.375 61.1261 -120.907 58.8991C-119.643 52.8581 -118.503 46.7858 -117.228 40.75C-116.599 37.7425 -115.485 34.8911 -113.846 32.2739C-113.394 31.5454 -112.847 30.8482 -112.228 30.2602C-110.37 28.5015 -108.123 28.4807 -106.38 30.3486C-105.448 31.3425 -104.647 32.5392 -104.064 33.7776C-101.931 38.3097 -100.734 43.1227 -99.891 48.0398C-99.1001 52.6395 -98.1687 57.208 -96.3111 61.5215C-95.822 62.6662 -95.13 63.7589 -94.3755 64.7632C-93.7147 65.6425 -92.9446 65.6946 -92.2682 64.8412C-91.3004 63.6184 -90.4627 62.276 -89.7394 60.8971C-89.2087 59.8981 -88.9225 58.769 -88.5635 57.6867C-87.835 55.4701 -86.5134 53.6646 -84.6246 52.3221C-82.6005 50.8912 -80.3683 50.6467 -78.2401 51.9475C-76.9185 52.754 -75.7061 53.8363 -74.6759 54.9966C-73.1097 56.7553 -71.9754 58.7898 -71.1793 61.048C-70.5289 62.8952 -69.5819 64.6539 -68.5776 66.3398C-67.8804 67.5105 -67.3392 67.4325 -66.59 66.2877C-65.1851 64.1232 -64.6335 61.6412 -63.9519 59.2009C-62.9217 55.5221 -61.9174 51.833 -60.7467 48.1959C-60.3564 46.9939 -59.6176 45.8492 -58.8267 44.8398C-57.1772 42.7325 -54.8149 42.8157 -53.2019 44.9595C-51.9583 46.6193 -51.2923 48.5341 -50.772 50.527C-49.0601 57.0935 -47.343 63.6601 -45.5531 70.211C-45.142 71.7043 -44.424 73.1144 -43.8516 74.5662C-43.7215 74.5662 -43.5915 74.5662 -43.4562 74.5714C-43.1648 73.9938 -42.7433 73.4475 -42.5924 72.8387C-41.8536 69.878 -41.1459 66.9069 -40.5059 63.9254C-39.7202 60.2779 -39.1166 56.5888 -38.2217 52.9725C-37.8418 51.4532 -37.0822 49.9546 -36.2028 48.6382C-34.5638 46.1822 -32.1234 46.1822 -30.3127 48.5341C-28.658 50.6779 -27.9296 53.2535 -27.0918 55.7719C-26.4518 57.7023 -25.8378 59.6483 -25.0522 61.5215C-24.6411 62.4893 -23.9178 63.3479 -23.2466 64.1856C-22.7003 64.8724 -21.9562 64.8568 -21.4203 64.1856C-20.723 63.3219 -20.0934 62.4009 -19.5419 61.4487C-18.0069 58.795 -17.7103 55.7927 -17.0651 52.8685C-16.1233 48.5653 -15.0723 44.2778 -13.8755 40.0372C-13.4748 38.6271 -12.6319 37.2638 -11.7318 36.0723C-9.87938 33.6163 -7.30894 33.6944 -5.4722 36.1659C-3.83836 38.3669 -3.15152 40.979 -2.36583 43.5546C-1.13785 47.5715 -0.929718 51.755 -0.320938 55.8708C0.78215 63.3531 1.85403 70.8406 3.99258 78.12C4.4921 79.8215 5.23618 81.4501 5.86577 83.11C6.00626 83.11 6.14674 83.11 6.28723 83.1048C6.62544 82.4075 7.08334 81.7415 7.28107 81.0078C8.02513 78.2137 8.81082 75.4143 9.36238 72.5733C10.2625 67.9112 10.7881 63.171 12.3595 58.6493C13.1139 56.4847 13.9777 54.367 15.4814 52.5875C16.673 51.1722 18.1507 50.1367 20.0707 50.4802C21.1842 50.6779 22.3654 51.1722 23.2291 51.8798C24.4259 52.8685 25.529 54.0756 26.3667 55.3764C27.6467 57.3693 28.651 59.5339 29.8009 61.61C30.4565 62.7963 31.1277 63.9723 31.8562 65.1066C32.2516 65.7258 32.8032 65.6998 33.157 65.0441C33.6617 64.0919 34.2809 63.1502 34.5203 62.1251C35.4516 58.1342 36.357 54.1277 37.0855 50.0951C38.6309 41.4993 40.0097 32.8722 41.5759 24.2764C41.9714 22.1066 42.7519 20.0045 43.4491 17.8972C43.6884 17.1843 44.1203 16.4923 44.6094 15.9147C45.7542 14.5567 47.4556 14.5359 48.4963 15.9668C49.2091 16.945 49.8387 18.0949 50.1093 19.2604C51.1239 23.6156 52.1282 27.9811 52.8514 32.3883C53.6631 37.3471 54.0794 42.3734 54.8287 47.3478C55.5363 52.0307 56.7279 56.6044 58.7364 60.9179C59.2515 62.021 59.9903 63.0461 60.7656 63.9931C61.4265 64.7996 62.1757 64.8308 62.8365 64.0451C63.6743 63.0461 64.5172 61.9586 64.9855 60.7618C65.9793 58.2226 66.9003 55.673 68.5289 53.4512C69.5904 51.9995 70.8444 50.7715 72.6812 50.3605C74.6844 49.913 76.3391 50.6779 77.7752 51.9891C79.8669 53.9091 81.1937 56.3391 82.4165 58.8574C83.3323 60.7358 84.3001 62.6142 85.4552 64.3521C86.5115 65.9443 87.2347 65.8246 87.9892 64.0607C88.6812 62.4477 89.0871 60.7098 89.8468 59.1332C90.7209 57.3381 91.7616 55.6054 92.8803 53.9507C95.7838 49.6372 101.164 50.9589 103.563 53.4564C104.832 54.7781 105.649 56.3547 106.138 58.1082C106.581 59.716 107.262 61.1885 108.584 62.276C109.843 63.3115 110.582 63.275 111.721 62.1095C113.22 60.5797 114.131 58.6753 114.906 56.7189C115.577 55.0278 116.077 53.2691 116.743 51.5728C117.305 50.1471 117.856 48.6798 118.657 47.379C120.681 44.0853 123.663 44.1061 125.781 47.3426C127.347 49.7413 128.002 52.4418 128.533 55.2308C129.043 57.8844 129.917 60.4705 130.724 63.0565C130.958 63.8058 131.437 64.4978 131.915 65.1378C132.727 66.2149 133.445 66.3137 134.387 65.3772C135.074 64.6955 135.667 63.8578 136.104 62.9993C137.644 59.9761 138.612 56.7397 139.247 53.4356C140.277 48.0762 141.063 42.6648 142.088 37.3002C142.665 34.2771 143.477 31.2956 144.278 28.3194C144.513 27.4452 144.986 26.5971 145.506 25.8426C146.766 24.0162 148.81 24.0267 149.981 25.905C150.595 26.8885 151.147 27.9916 151.376 29.1103C152.317 33.7048 153.27 38.2993 153.956 42.9302C155.361 52.4938 156.688 62.0679 159.415 71.3661C160.07 73.6035 161.017 75.7733 162.037 77.8702C162.818 79.4781 163.385 79.426 164.269 77.8754C165.679 75.3987 166.361 72.6461 166.777 69.878C167.532 64.8776 167.969 59.8253 168.739 54.8249C169.306 51.1462 170.128 47.4987 170.966 43.8616C171.231 42.7169 171.814 41.5929 172.459 40.5991C173.88 38.4033 176.19 38.2628 177.735 40.3754C178.761 41.7751 179.562 43.3933 180.191 45.0167C182.044 49.7777 183.048 54.7781 184.172 59.7472C184.703 62.0783 185.577 64.3417 186.331 66.6207C186.493 67.0994 186.831 67.5261 187.226 68.2286C187.648 67.3596 188.069 66.7456 188.257 66.064C188.975 63.4467 189.703 60.8295 190.26 58.1758C191.441 52.5927 192.471 46.9731 193.647 41.3848C194.272 38.4085 195.369 35.5831 196.956 32.9763C197.43 32.1958 198.023 31.4465 198.684 30.8117C200.526 29.0582 202.8 29.0478 204.527 30.9106C205.453 31.9148 206.255 33.1116 206.837 34.35C209.064 39.0798 210.256 44.1165 211.125 49.247C211.833 53.42 212.733 57.5618 214.341 61.4955C214.871 62.7911 215.595 64.0399 216.406 65.1898C217.156 66.2461 217.967 66.2825 218.779 65.2679C219.695 64.1232 220.475 62.8432 221.131 61.5371C221.698 60.4132 221.989 59.1592 222.432 57.9677C223.233 55.7927 224.57 53.9976 226.516 52.7228C228.54 51.3959 230.7 51.2971 232.76 52.5407C233.91 53.2327 234.982 54.1381 235.877 55.1371C237.573 57.0311 238.879 59.1592 239.717 61.6204C240.336 63.4363 241.273 65.1794 242.261 66.8341C243.011 68.0881 243.593 68.01 244.364 66.7716C245.784 64.5082 246.336 61.9326 247.043 59.4038C248.047 55.8135 249.036 52.218 250.202 48.6746C250.602 47.4466 251.378 46.2811 252.205 45.2665C253.781 43.3256 256.144 43.3308 257.538 45.4017C258.574 46.9315 259.422 48.6902 259.921 50.4645C261.815 57.208 263.517 64.0035 265.338 70.7678C265.645 71.8917 266.155 72.9635 266.602 74.051C266.753 74.4153 267.013 74.7327 267.346 75.2686C267.711 74.5922 268.122 74.0718 268.273 73.4891C268.933 70.9863 269.589 68.4783 270.115 65.9495C270.911 62.1459 271.54 58.3059 272.368 54.5127C272.664 53.139 273.268 51.8226 273.871 50.5426C274.241 49.7465 274.792 48.992 275.406 48.3624C276.702 47.046 278.497 47.0044 279.808 48.2948C280.547 49.018 281.25 49.8818 281.64 50.8184C282.623 53.1807 283.373 55.6314 284.309 58.0145C285.084 59.9813 285.839 61.995 286.895 63.8214C288.004 65.7466 289.039 65.6946 290.277 63.8474C291.75 61.6464 292.733 59.2477 293.259 56.6252C294.19 51.9683 295.127 47.3061 296.308 42.7012C296.802 40.7656 297.723 38.8612 298.8 37.1649C300.845 33.9493 303.827 34.0846 305.856 37.3367C307.381 39.7822 308.265 42.5035 308.801 45.2873C309.576 49.3094 310.117 53.3836 310.726 57.4369C311.819 64.7007 312.886 71.9749 314.998 79.0358C315.342 80.1857 315.82 81.2992 316.278 82.4075C316.46 82.8498 316.767 83.24 317.152 83.8748C317.615 82.829 318.125 82.0277 318.328 81.1535C319.249 77.1574 320.175 73.1613 320.93 69.1339C321.674 65.1534 322.371 61.1625 323.974 57.4213C324.609 55.9332 325.405 54.4555 326.404 53.1859C328.48 50.5218 331.352 50.1836 333.98 52.3065C335.239 53.3159 336.384 54.5751 337.263 55.9228C338.553 57.9052 339.558 60.075 340.697 62.1511C341.316 63.2854 341.894 64.4562 342.628 65.5124C343.231 66.3762 343.715 66.3502 344.199 65.3928C344.86 64.0815 345.552 62.7183 345.859 61.2978C346.837 56.7449 347.67 52.1556 348.502 47.5767C350.001 39.3191 351.416 31.0407 352.977 22.7935C353.31 21.0296 354.054 19.3229 354.741 17.6422C355.22 16.4559 356.089 15.462 357.499 15.4881C358.857 15.5141 359.767 16.4715 360.152 17.6526C361.073 20.4884 362.109 23.3346 362.598 26.2641C363.774 33.3561 364.617 40.5002 365.689 47.6079C366.438 52.5667 367.676 57.4109 369.877 61.9586C370.319 62.8588 370.933 63.7069 371.589 64.4718C372.349 65.3667 373.119 65.4084 373.873 64.503C374.669 63.5508 375.356 62.4685 375.908 61.3498C377.021 59.1176 377.953 56.7969 379.071 54.5751C379.477 53.7738 380.164 53.0714 380.835 52.4418C383.057 50.3501 385.778 50.2252 388.167 52.1192C390.529 53.9976 391.934 56.5732 393.24 59.2269C394.177 61.1313 395.124 63.0513 396.289 64.8204C397.423 66.5323 398.173 66.3918 398.974 64.4718C399.65 62.8484 400.119 61.1417 400.811 59.5287C401.768 57.3121 402.913 55.1683 404.713 53.5033C405.447 52.8268 406.389 52.3637 407.278 51.9007C407.637 51.7133 408.132 51.7133 408.553 51.7498C409.313 51.8226 409.828 52.2597 409.896 53.0506C409.963 53.8363 409.542 54.4242 408.793 54.5387C407.429 54.7468 406.586 55.6106 405.853 56.6252C404.432 58.5921 403.34 60.7202 402.611 63.0461C402.221 64.2741 401.779 65.5124 401.149 66.6364C399.552 69.5034 396.867 69.7947 394.593 67.4012C392.798 65.5072 391.778 63.1449 390.669 60.8295C389.889 59.1904 388.947 57.6243 387.938 56.1101C387.438 55.3608 386.694 54.7364 385.961 54.1901C385.019 53.4981 384.113 53.5293 383.229 54.2994C382.542 54.8977 381.829 55.5794 381.418 56.3755C380.435 58.2903 379.545 60.2623 378.764 62.2656C378.114 63.9515 377.214 65.4292 375.913 66.652C373.821 68.6292 371.339 68.6344 369.456 66.475C368.342 65.195 367.39 63.6757 366.714 62.1199C364.414 56.849 363.108 51.3075 362.463 45.5943C361.604 38.0183 360.699 30.4423 358.898 23.0172C358.57 21.6435 358.081 20.3115 357.66 18.9586C357.561 18.9482 357.462 18.9378 357.358 18.9222C357.197 19.2865 356.978 19.6351 356.885 20.0149C355.943 23.881 354.834 27.7158 354.132 31.6234C352.633 39.9435 351.432 48.3208 349.933 56.646C349.402 59.6015 348.429 62.4893 347.534 65.372C347.269 66.2253 346.697 67.0318 346.114 67.7342C344.704 69.4357 342.586 69.6699 341.077 68.0673C339.917 66.8341 339.069 65.2835 338.215 63.8006C337.19 62.0106 336.389 60.0906 335.333 58.3215C334.641 57.1664 333.756 56.0945 332.804 55.1371C331.019 53.3368 329.484 53.446 328.225 55.6522C327.148 57.5358 326.175 59.5703 325.649 61.6568C324.64 65.6321 324.062 69.7115 323.162 73.7076C322.423 76.9805 321.523 80.2221 320.581 83.443C320.332 84.2911 319.744 85.108 319.145 85.7844C317.99 87.0905 316.32 87.1477 315.144 85.8573C314.374 85.0092 313.64 83.9841 313.302 82.907C312.162 79.2595 310.929 75.6068 310.242 71.8657C308.905 64.6123 307.917 57.3017 306.793 50.0119C306.236 46.4268 305.351 42.9302 303.764 39.6521C303.436 38.9653 302.786 38.4398 302.281 37.8362C301.751 38.4137 301.1 38.9237 300.715 39.5845C299.123 42.2902 298.566 45.3549 297.905 48.3676C297.198 51.5885 296.714 54.8613 295.975 58.0821C295.288 61.048 294.123 63.8526 292.145 66.2253C289.929 68.8894 287.207 68.8738 284.98 66.2201C283.19 64.0971 282.306 61.5267 281.468 58.9251C280.714 56.5836 279.85 54.2681 278.929 51.9839C278.684 51.3803 278.06 50.9328 277.607 50.4177C277.207 50.9432 276.624 51.4167 276.431 52.0151C275.651 54.4086 274.844 56.8178 274.308 59.2737C273.372 63.582 272.69 67.9476 271.774 72.2611C271.488 73.5983 270.932 74.9252 270.255 76.1219C268.694 78.8849 266.03 78.9317 264.464 76.1844C263.558 74.5922 262.846 72.8335 262.357 71.0695C260.546 64.4926 258.87 57.8792 257.127 51.2867C256.701 49.6736 256.123 48.1231 254.807 46.6922C254.354 47.3114 253.901 47.8005 253.589 48.3728C252.096 51.1097 251.367 54.112 250.571 57.0935C249.749 60.1583 248.922 63.2282 247.923 66.2409C247.548 67.3752 246.809 68.4575 246.023 69.3837C244.535 71.1216 242.464 71.1528 240.778 69.6022C239.233 68.1817 238.406 66.3137 237.584 64.4354C236.798 62.635 236.148 60.7514 235.138 59.076C234.347 57.7543 233.213 56.5732 232.037 55.5586C230.44 54.1901 228.811 54.367 227.297 55.8395C226.267 56.8438 225.496 58.0041 225.054 59.409C224.279 61.917 223.389 64.3833 221.703 66.4803C218.982 69.8676 215.798 69.7531 213.388 66.1264C211.448 63.197 210.459 59.8669 209.673 56.4952C208.716 52.3794 208.065 48.1907 207.02 44.0957C206.26 41.1246 205.12 38.2368 204.043 35.349C203.731 34.5113 203.112 33.7516 202.519 33.0544C201.863 32.2947 201.291 32.2687 200.64 33.0387C199.896 33.9337 199.23 34.9171 198.694 35.9526C197.191 38.8612 196.504 42.0248 195.879 45.2144C194.631 51.5728 193.304 57.9156 191.935 64.2532C191.639 65.6269 191.056 66.9485 190.52 68.2598C190.265 68.8738 189.87 69.4565 189.427 69.9665C188.152 71.439 186.347 71.5066 185.083 70.0341C184.375 69.2016 183.704 68.2234 183.386 67.1983C182.361 63.8734 181.529 60.4861 180.576 57.1404C179.421 53.0766 178.261 49.0128 177.002 44.9855C176.664 43.898 175.951 42.925 175.41 41.9051C175.29 41.9051 175.16 41.9051 175.035 41.9051C174.671 42.6544 174.171 43.3725 173.968 44.1686C173.266 46.9159 172.491 49.658 172.074 52.4574C171.377 57.1247 170.976 61.8337 170.368 66.5167C169.889 70.2266 169.145 73.8897 167.766 77.3863C167.365 78.4114 166.824 79.4104 166.174 80.295C164.431 82.6469 161.97 82.7093 160.216 80.3834C159.321 79.1867 158.603 77.813 158.036 76.4289C156.079 71.6315 154.903 66.5947 154.035 61.5163C152.666 53.5813 151.558 45.5995 150.226 37.6541C149.737 34.7402 148.93 31.8836 148.254 29.001C148.17 28.6524 147.983 28.3194 147.754 27.7626C147.478 28.3506 147.203 28.746 147.099 29.1831C146.271 32.6589 145.298 36.1191 144.705 39.6365C143.706 45.5995 142.998 51.6249 141.276 57.4422C140.579 59.7992 139.653 62.0991 138.721 64.3833C138.081 65.9495 137.041 67.2659 135.578 68.1973C133.747 69.3629 131.718 69.238 130.245 67.6458C129.381 66.7092 128.653 65.5801 128.112 64.4302C126.566 61.1625 125.864 57.6399 125.307 54.0964C124.985 52.0724 124.204 50.246 123.028 48.5862C122.404 47.6964 121.972 47.6652 121.436 48.581C120.692 49.8454 120.088 51.2086 119.526 52.5667C118.335 55.4077 117.331 58.3319 116.009 61.1105C115.379 62.4373 114.328 63.6393 113.246 64.6695C111.508 66.3294 109.697 66.4126 107.637 65.1846C105.311 63.7954 104.145 61.5996 103.334 59.128C103.016 58.1446 102.59 57.1664 102.054 56.2766C100.961 54.4763 99.1763 53.9716 97.225 54.2109C96.6111 54.289 95.9711 54.8873 95.5236 55.3973C93.7961 57.3797 92.6566 59.7004 91.8032 62.1719C91.3714 63.4259 90.9863 64.7111 90.3671 65.8715C88.6917 69.0143 85.9599 69.316 83.5404 66.6832C81.7921 64.7892 80.8191 62.4425 79.7108 60.1583C78.8887 58.4776 77.9677 56.8021 76.8386 55.314C74.596 52.3689 72.5823 52.447 70.6519 55.6262C69.4967 57.5358 68.6746 59.6639 67.8473 61.7505C67.1501 63.5144 66.1978 65.0754 64.7722 66.3137C62.8313 67.9996 60.5263 68.0516 58.7988 66.1524C57.5552 64.784 56.4937 63.1397 55.7549 61.4487C53.3405 55.9176 52.097 50.0795 51.4361 44.0853C50.6192 36.6966 49.6878 29.308 47.8979 22.0702C47.6585 21.1128 47.3203 20.1814 47.0081 19.2448C46.9145 18.9586 46.7636 18.6933 46.519 18.1678C46.186 18.9899 45.8374 19.5987 45.6917 20.2491C44.6667 24.7603 43.5479 29.256 42.7258 33.8036C41.2377 42.0664 39.9837 50.3709 38.5164 58.6337C38.1521 60.6838 37.3977 62.6714 36.7108 64.6539C36.4195 65.4812 35.9199 66.2669 35.384 66.9694C33.8594 68.957 31.5076 69.1808 29.8945 67.2659C28.6978 65.8507 27.9069 64.1023 26.9599 62.4841C25.7007 60.33 24.5247 58.1238 23.1927 56.0217C22.6724 55.2099 21.8815 54.5335 21.1062 53.9351C19.9355 53.0402 18.9312 53.1026 18.005 54.2421C17.2141 55.2151 16.5273 56.3078 16.0174 57.4474C14.3159 61.2614 13.6239 65.3407 12.885 69.4201C12.1826 73.2705 11.324 77.095 10.4186 80.9038C10.1377 82.0849 9.59132 83.24 8.97212 84.2963C7.4944 86.8043 5.03323 86.9344 3.5295 84.4628C2.50964 82.7978 1.77599 80.9194 1.19843 79.0462C-0.617523 73.1613 -1.61656 67.0942 -2.53754 61.022C-3.20355 56.6252 -3.60942 52.1868 -4.42633 47.8213C-4.94666 45.0531 -5.97171 42.3734 -6.86147 39.6833C-7.10602 38.9445 -7.65237 38.2941 -8.10506 37.6332C-8.41205 37.1858 -8.83871 37.1597 -9.17172 37.6072C-9.65044 38.2524 -10.1447 38.8976 -10.509 39.6001C-12.0335 42.5816 -12.5643 45.8648 -13.2927 49.0805C-13.8963 51.7602 -14.3074 54.4815 -14.8693 57.1664C-15.4989 60.1999 -16.6905 63.0149 -18.5845 65.4656C-20.8791 68.4367 -23.8658 68.3742 -26.1709 65.3928C-27.7266 63.3791 -28.58 61.0324 -29.3657 58.6441C-30.1722 56.1882 -31.0724 53.7582 -32.0246 51.3543C-32.2535 50.7819 -32.8675 50.3605 -33.2994 49.8662C-33.6896 50.3657 -34.2516 50.8132 -34.4389 51.3803C-35.2298 53.805 -36.0519 56.235 -36.5983 58.7222C-37.5765 63.1814 -38.3153 67.6874 -39.2675 72.1518C-39.5225 73.3642 -40.0792 74.561 -40.6984 75.6484C-42.2074 78.2969 -44.8975 78.3698 -46.3908 75.7213C-47.3482 74.0198 -48.1131 72.1518 -48.6386 70.2682C-50.4182 63.811 -52.052 57.3173 -53.7587 50.8392C-54.1906 49.2001 -54.7525 47.6079 -56.1106 46.1458C-56.5945 46.8118 -57.1564 47.3374 -57.3906 47.9774C-58.3896 50.6623 -59.3678 53.3576 -60.2056 56.0945C-61.0485 58.8626 -61.6365 61.7192 -62.5054 64.477C-62.9269 65.809 -63.5981 67.1203 -64.4098 68.2598C-66.1633 70.7365 -68.6453 70.8094 -70.6537 68.5303C-72.4281 66.5115 -73.3334 64.0347 -74.192 61.5475C-75.0765 59.0031 -76.6011 56.8906 -78.6408 55.1683C-80.4619 53.6229 -82.2206 53.701 -83.7868 55.5013C-84.6558 56.5004 -85.3634 57.7179 -85.8421 58.9511C-86.7631 61.3446 -87.5176 63.8006 -89.1462 65.8507C-91.9508 69.3681 -95.1924 69.2224 -97.6276 65.4292C-99.4383 62.609 -100.422 59.4402 -101.171 56.2246C-102.035 52.525 -102.649 48.7787 -103.486 45.0791C-104.293 41.4941 -105.24 37.935 -106.941 34.6414C-107.358 33.8296 -107.94 33.0908 -108.523 32.3779C-108.997 31.8056 -109.621 31.8108 -110.141 32.3467C-110.589 32.815 -111.047 33.2937 -111.375 33.84C-112.852 36.296 -113.872 38.9497 -114.45 41.7438C-115.943 48.9712 -117.374 56.2038 -118.909 63.4207C-119.206 64.836 -119.794 66.1889 -120.314 67.5469C-120.532 68.1141 -120.881 68.65 -121.25 69.1391C-122.655 70.9811 -124.737 71.08 -126.069 69.1912C-126.985 67.906 -127.76 66.423 -128.192 64.9141C-129.31 60.97 -130.138 56.9426 -131.21 52.9881C-131.995 50.1003 -132.932 47.2541 -133.91 44.4287C-134.29 43.3464 -134.972 42.3734 -135.518 41.3484C-135.664 41.3588 -135.809 41.364 -135.955 41.3744L-135.929 41.364Z" fill="#20AA9A"/>
</g>
</g>
</g>
</svg>
