<svg width="420" height="107" viewBox="0 0 420 107" fill="none" xmlns="http://www.w3.org/2000/svg">
<mask id="mask0_362_55284" style="mask-type:alpha" maskUnits="userSpaceOnUse" x="0" y="0" width="420" height="107">
<rect x="0.661621" width="419" height="107" fill="#D9D9D9"/>
</mask>
<g mask="url(#mask0_362_55284)">
<mask id="mask1_362_55284" style="mask-type:luminance" maskUnits="userSpaceOnUse" x="8" y="14" width="455" height="75">
<path d="M462.888 14H8.66162V88.5943H462.888V14Z" fill="white"/>
</mask>
<g mask="url(#mask1_362_55284)">
<mask id="mask2_362_55284" style="mask-type:luminance" maskUnits="userSpaceOnUse" x="9" y="14" width="454" height="73">
<path d="M9.99374 14.7701H462.888V86.6638H9.99374V14.7701Z" fill="white"/>
</mask>
<g mask="url(#mask2_362_55284)">
<path d="M88.4905 41.2444C88.0899 42.1654 87.5227 43.05 87.3146 44.0126C86.4977 47.8058 85.6652 51.6094 85.0668 55.4442C84.2811 60.5018 83.8076 65.6114 83.0011 70.6638C82.6577 72.8076 81.9032 74.9045 81.1695 76.965C80.7949 78.0161 80.1653 79.0307 79.4524 79.8996C77.829 81.8873 75.5812 81.9653 73.989 79.9673C72.9483 78.6613 72.1158 77.1263 71.4914 75.5705C69.3893 70.3308 68.1977 64.8257 67.2507 59.2894C66.0123 52.0465 65.0445 44.7619 63.8374 37.5137C63.3327 34.4802 62.5313 31.4935 61.8393 28.486C61.7457 28.0593 61.5063 27.6639 61.3346 27.2528C61.2461 27.2528 61.1629 27.2476 61.0744 27.2424C60.6894 28.3663 60.1691 29.459 59.9453 30.6037C59.0243 35.3283 58.145 40.0581 57.3385 44.8035C56.3759 50.4386 55.3456 56.053 53.2695 61.4124C52.8688 62.4426 52.3641 63.4364 51.8698 64.4303C51.6513 64.8726 51.3703 65.2888 51.0737 65.6791C48.3212 69.2797 44.7101 69.1184 42.3894 65.2368C40.7036 62.4114 39.9855 59.2374 39.2883 56.0686C38.872 54.1746 38.4401 52.2858 37.925 50.423C37.7429 49.7518 37.3474 49.1274 36.978 48.5186C35.9738 46.8536 35.4326 46.8328 34.4856 48.5707C33.8664 49.6946 33.3721 50.9121 32.9663 52.1349C31.9204 55.3089 30.9058 58.4933 29.0378 61.2979C28.2937 62.4114 27.3675 63.4573 26.3373 64.3158C24.8804 65.5386 23.2049 65.6478 21.4878 64.6904C19.0527 63.3376 17.7675 61.1626 16.9193 58.6286C16.5707 57.5827 16.1493 56.5369 15.5769 55.6003C14.734 54.2318 13.4488 53.4982 11.7733 53.4982C10.7118 53.4982 10.0614 52.9206 10.0562 52.0777C10.0406 51.2556 10.6962 50.6051 11.7317 50.5739C14.0523 50.5063 16.04 51.3804 17.4137 53.2016C18.3294 54.4087 19.0111 55.8344 19.5626 57.2549C20.1506 58.7639 20.6501 60.2833 21.8885 61.4072C23.2882 62.6768 24.2664 62.7132 25.4007 61.225C26.457 59.8358 27.3884 58.3112 28.1064 56.7242C28.9962 54.7626 29.5529 52.6552 30.3542 50.652C30.9214 49.2211 31.4937 47.7589 32.3315 46.4841C34.2931 43.4818 37.1133 43.4766 39.127 46.4321C40.4642 48.3833 41.2967 50.5531 41.7546 52.8998C42.3114 55.7096 43.019 58.4933 43.7943 61.2511C44.0909 62.2969 44.6737 63.296 45.2668 64.2221C46.167 65.6114 47.062 65.7051 48.1755 64.4615C48.8831 63.6758 49.5439 62.7392 49.8926 61.7506C50.9748 58.6702 52.1456 55.5847 52.8272 52.4055C53.9095 47.3739 54.5391 42.2435 55.5225 37.1859C56.1573 33.8922 57.0211 30.6349 57.9056 27.3985C58.1658 26.4515 58.7486 25.5305 59.3782 24.7604C60.45 23.4596 62.0839 23.4804 63.1557 24.776C63.7125 25.4525 64.1496 26.2798 64.4618 27.1019C65.8823 30.8847 66.4911 34.86 67.0322 38.8353C68.2394 47.6757 69.4153 56.5213 71.507 65.2108C72.3031 68.5305 73.401 71.7877 74.4625 75.0398C74.7799 76.0128 75.3835 76.9234 75.961 77.7871C76.5126 78.604 76.8768 78.5988 77.4075 77.7455C77.9435 76.8921 78.4326 75.9764 78.7656 75.0294C80.4411 70.2371 81.1123 65.2576 81.5598 60.2364C82.0281 55.0331 82.6368 49.8507 83.9897 44.7983C84.3799 43.3466 84.8847 41.8896 85.5819 40.5628C87.1793 37.5293 89.9527 37.3316 91.6802 40.2714C92.9914 42.5036 94.0216 44.9804 94.7501 47.4728C96.0457 51.9112 96.9771 56.4536 98.1426 60.9337C98.5745 62.5987 99.2041 64.2117 99.7973 65.8352C99.9794 66.3399 100.323 66.7926 100.739 67.5158C101.161 66.6729 101.582 66.0641 101.775 65.3929C102.404 63.2023 103.044 61.0013 103.512 58.7743C104.777 52.7333 105.916 46.6663 107.186 40.6252C107.821 37.6177 108.934 34.7663 110.568 32.1491C111.021 31.4206 111.572 30.7234 112.192 30.1354C114.049 28.3767 116.292 28.3611 118.035 30.2239C118.971 31.2229 119.767 32.4197 120.35 33.658C122.484 38.1849 123.68 43.0031 124.528 47.915C125.314 52.5148 126.251 57.0884 128.103 61.3968C128.597 62.5467 129.29 63.6342 130.044 64.6384C130.705 65.5178 131.475 65.5698 132.151 64.7165C133.114 63.4937 133.952 62.1512 134.68 60.7724C135.211 59.7733 135.492 58.6442 135.851 57.5619C136.585 55.3453 137.901 53.545 139.795 52.2026C141.814 50.7664 144.046 50.5219 146.174 51.8227C147.501 52.6344 148.708 53.7115 149.744 54.8718C151.305 56.6358 152.444 58.665 153.24 60.9285C153.885 62.7704 154.832 64.5343 155.837 66.2202C156.534 67.3857 157.08 67.3129 157.824 66.163C159.234 63.9984 159.781 61.5164 160.462 59.0813C161.498 55.3974 162.502 51.7082 163.673 48.0711C164.058 46.8692 164.797 45.7245 165.588 44.7202C167.237 42.6129 169.605 42.6909 171.212 44.8399C172.456 46.4946 173.127 48.4146 173.642 50.4022C175.354 56.9688 177.071 63.5405 178.861 70.0862C179.272 71.5796 179.99 72.9897 180.568 74.4414C180.698 74.4414 180.828 74.4466 180.958 74.4466C181.255 73.869 181.671 73.3227 181.822 72.7139C182.561 69.7532 183.274 66.7822 183.914 63.8007C184.699 60.1532 185.298 56.464 186.198 52.8478C186.572 51.3284 187.337 49.8299 188.212 48.5134C189.851 46.0575 192.291 46.0627 194.102 48.4094C195.756 50.5531 196.49 53.1287 197.328 55.6471C197.968 57.5775 198.576 59.5288 199.367 61.3968C199.773 62.3698 200.502 63.2231 201.168 64.0608C201.714 64.7477 202.458 64.7321 202.999 64.0608C203.691 63.2023 204.321 62.2813 204.878 61.3239C206.407 58.6702 206.709 55.6679 207.349 52.7489C208.296 48.4406 209.347 44.1531 210.544 39.9176C210.945 38.5023 211.788 37.1442 212.683 35.9527C214.535 33.4915 217.111 33.5696 218.942 36.0412C220.576 38.2473 221.268 40.8594 222.048 43.4298C223.276 47.4468 223.485 51.6302 224.093 55.746C225.202 63.2283 226.268 70.721 228.407 78.0004C228.912 79.6967 229.65 81.3253 230.28 82.9904C230.426 82.9904 230.566 82.9904 230.707 82.9852C231.04 82.2879 231.498 81.6219 231.695 80.8883C232.445 78.0889 233.23 75.2895 233.777 72.4485C234.677 67.7864 235.208 63.0462 236.779 58.5297C237.533 56.36 238.392 54.2474 239.896 52.4627C241.092 51.0474 242.57 50.012 244.49 50.3554C245.599 50.5531 246.78 51.0474 247.643 51.7603C248.845 52.7437 249.943 53.9509 250.786 55.2569C252.066 57.2445 253.07 59.4091 254.22 61.4904C254.871 62.6716 255.542 63.8475 256.27 64.9818C256.666 65.601 257.223 65.575 257.571 64.9194C258.081 63.9724 258.7 63.0254 258.935 62.0003C259.871 58.0094 260.777 54.0081 261.5 49.9703C263.05 41.3745 264.429 32.7475 265.99 24.1568C266.386 21.9871 267.171 19.8797 267.869 17.7724C268.103 17.0596 268.54 16.3675 269.029 15.79C270.168 14.4319 271.875 14.4111 272.911 15.842C273.623 16.8254 274.253 17.9701 274.529 19.1357C275.543 23.4908 276.542 27.8564 277.266 32.2636C278.077 37.2275 278.499 42.2539 279.243 47.2282C279.951 51.906 281.142 56.4849 283.156 60.7932C283.671 61.8963 284.41 62.9213 285.185 63.8683C285.841 64.6748 286.59 64.7113 287.251 63.9204C288.094 62.9213 288.937 61.8338 289.405 60.6371C290.399 58.1031 291.315 55.5483 292.943 53.3265C294.005 51.8747 295.259 50.652 297.095 50.2409C299.104 49.7882 300.759 50.5531 302.195 51.8695C304.286 53.7844 305.608 56.2195 306.836 58.7327C307.752 60.6163 308.714 62.4894 309.87 64.2273C310.931 65.8195 311.649 65.6999 312.409 63.936C313.096 62.3229 313.501 60.585 314.266 59.0084C315.135 57.2133 316.181 55.4858 317.295 53.826C320.203 49.5125 325.578 50.8393 327.977 53.3317C329.252 54.6585 330.069 56.2351 330.553 57.9886C331 59.5912 331.682 61.069 333.003 62.1512C334.257 63.1867 335.001 63.1503 336.136 61.9847C337.639 60.455 338.55 58.5506 339.32 56.5941C339.991 54.9031 340.496 53.1443 341.162 51.4533C341.724 50.0224 342.276 48.555 343.072 47.2542C345.096 43.9658 348.077 43.9814 350.195 47.223C351.766 49.6217 352.417 52.317 352.953 55.1112C353.457 57.7597 354.337 60.3457 355.138 62.9369C355.372 63.681 355.851 64.3782 356.33 65.013C357.141 66.0901 357.859 66.1942 358.806 65.2524C359.493 64.5708 360.081 63.7382 360.524 62.8745C362.059 59.8514 363.032 56.6149 363.666 53.3161C364.697 47.9515 365.477 42.5401 366.502 37.1807C367.085 34.1524 367.897 31.1709 368.698 28.1946C368.932 27.3204 369.4 26.4723 369.921 25.723C371.18 23.8915 373.225 23.9019 374.396 25.7855C375.009 26.7637 375.561 27.8668 375.79 28.9907C376.732 33.58 377.689 38.1745 378.371 42.8106C379.781 52.3691 381.103 61.9431 383.829 71.2466C384.485 73.4788 385.432 75.6486 386.457 77.7507C387.237 79.3533 387.804 79.3013 388.684 77.7559C390.099 75.2739 390.781 72.5214 391.197 69.7532C391.951 64.7529 392.388 59.7005 393.153 54.7053C393.72 51.0214 394.543 47.3739 395.386 43.742C395.651 42.5973 396.228 41.4734 396.874 40.4743C398.294 38.2786 400.604 38.1433 402.155 40.2506C403.18 41.6503 403.976 43.2685 404.606 44.8919C406.458 49.6581 407.468 54.6533 408.591 59.6224C409.117 61.9587 409.991 64.2169 410.751 66.496C410.912 66.9799 411.245 67.4013 411.646 68.1038C412.067 67.2348 412.489 66.6209 412.676 65.9392C413.389 63.322 414.117 60.7047 414.679 58.0562C415.855 52.4679 416.886 46.8484 418.061 41.26C418.686 38.289 419.784 35.4636 421.371 32.8567C421.849 32.071 422.437 31.3218 423.098 30.6922C424.94 28.9335 427.214 28.9283 428.942 30.791C429.873 31.7953 430.669 32.9868 431.252 34.2252C433.479 38.955 434.676 43.9918 435.544 49.1274C436.252 53.3004 437.147 57.4371 438.755 61.3707C439.286 62.6716 440.014 63.9203 440.826 65.0651C441.575 66.1265 442.382 66.163 443.193 65.1431C444.109 63.9984 444.89 62.7236 445.55 61.4124C446.112 60.2885 446.409 59.0345 446.846 57.8481C447.653 55.6679 448.985 53.8728 450.936 52.598C452.955 51.2764 455.114 51.1775 457.18 52.4159C458.324 53.1079 459.396 54.0133 460.291 55.0123C461.993 56.9063 463.299 59.0397 464.131 61.4956C464.751 63.3168 465.692 65.0547 466.681 66.7145C467.425 67.9633 468.008 67.8853 468.783 66.6469C470.198 64.3886 470.75 61.8078 471.458 59.279C472.462 55.6888 473.45 52.0933 474.616 48.5499C475.017 47.3271 475.792 46.1615 476.619 45.1469C478.196 43.2061 480.558 43.2113 481.958 45.277C482.993 46.8067 483.836 48.5655 484.336 50.345C486.23 57.0832 487.936 63.8839 489.758 70.6482C490.059 71.7721 490.569 72.844 491.022 73.9263C491.173 74.2905 491.433 74.6079 491.766 75.149C492.13 74.4674 492.536 73.9523 492.692 73.3695C493.353 70.8667 494.003 68.3535 494.534 65.8248C495.325 62.0212 495.955 58.1811 496.782 54.3879C497.084 53.0195 497.682 51.6978 498.286 50.4178C498.66 49.6269 499.207 48.8672 499.826 48.2377C501.122 46.9264 502.917 46.8796 504.228 48.17C504.962 48.8933 505.669 49.757 506.059 50.6988C507.043 53.0559 507.787 55.5118 508.724 57.8897C509.499 59.8618 510.253 61.8703 511.31 63.6966C512.423 65.6218 513.458 65.5698 514.697 63.7226C516.169 61.5268 517.153 59.1229 517.673 56.5057C518.605 51.8435 519.541 47.1814 520.722 42.5817C521.222 40.6461 522.138 38.7365 523.215 37.0402C525.26 33.8246 528.246 33.9598 530.27 37.2119C531.795 39.6574 532.679 42.3788 533.215 45.1625C533.991 49.1899 534.532 53.2588 535.141 57.3122C536.238 64.5812 537.305 71.8502 539.418 78.911C539.756 80.0609 540.235 81.1744 540.692 82.2827C540.88 82.725 541.187 83.1153 541.572 83.7501C542.035 82.7042 542.545 81.9029 542.743 81.034C543.669 77.0378 544.595 73.0417 545.349 69.0092C546.094 65.0287 546.791 61.0429 548.388 57.2966C549.023 55.8084 549.824 54.3307 550.818 53.0611C552.899 50.4022 555.772 50.064 558.399 52.1817C559.653 53.1964 560.798 54.4504 561.677 55.798C562.968 57.7805 563.972 59.9502 565.112 62.0316C565.731 63.1659 566.308 64.3314 567.042 65.3877C567.646 66.2566 568.129 66.2254 568.613 65.268C569.274 63.9568 569.971 62.5935 570.278 61.173C571.251 56.6201 572.084 52.0361 572.916 47.452C574.415 39.1943 575.83 30.9211 577.391 22.6739C577.729 20.9048 578.468 19.2033 579.155 17.5227C579.639 16.3363 580.503 15.3373 581.918 15.3633C583.271 15.3945 584.187 16.3519 584.572 17.5279C585.493 20.3689 586.528 23.2098 587.012 26.1393C588.193 33.2314 589.036 40.3755 590.108 47.4884C590.857 52.4471 592.091 57.2914 594.297 61.8338C594.734 62.7392 595.348 63.5821 596.003 64.347C596.768 65.242 597.533 65.2836 598.288 64.3834C599.089 63.426 599.771 62.3438 600.327 61.2303C601.436 58.998 602.367 56.6774 603.491 54.4504C603.897 53.6491 604.584 52.9518 605.255 52.317C607.477 50.2253 610.193 50.1004 612.581 51.9996C614.949 53.878 616.348 56.4536 617.654 59.1021C618.591 61.0065 619.538 62.9317 620.709 64.6956C621.838 66.4075 622.592 66.2722 623.394 64.347C624.065 62.7288 624.538 61.0221 625.23 59.4091C626.182 57.1873 627.327 55.0435 629.133 53.3785C629.861 52.7073 630.803 52.2442 631.698 51.7759C632.052 51.5938 632.551 51.5886 632.968 51.625C633.727 51.6978 634.242 52.1401 634.31 52.9258C634.378 53.7167 633.961 54.2995 633.207 54.414C631.849 54.6221 631.006 55.4858 630.267 56.5005C628.847 58.4673 627.759 60.5955 627.025 62.9213C626.64 64.1493 626.193 65.3929 625.569 66.5116C623.966 69.3786 621.286 69.6752 619.012 67.2765C617.212 65.3825 616.192 63.0254 615.084 60.7047C614.303 59.0709 613.362 57.4995 612.357 55.9905C611.858 55.2413 611.114 54.6117 610.375 54.0705C609.438 53.3733 608.528 53.4097 607.648 54.1746C606.956 54.773 606.243 55.4546 605.838 56.2507C604.849 58.1655 603.959 60.1376 603.184 62.146C602.534 63.8267 601.628 65.3044 600.333 66.5272C598.236 68.5044 595.759 68.5149 593.875 66.3555C592.757 65.0703 591.81 63.5561 591.128 61.9951C588.833 56.7242 587.527 51.1827 586.877 45.4695C586.018 37.8987 585.113 30.3227 583.318 22.8924C582.985 21.524 582.496 20.1867 582.079 18.8391C581.981 18.8235 581.876 18.8131 581.778 18.7975C581.616 19.1617 581.393 19.5155 581.299 19.8954C580.357 23.7562 579.249 27.591 578.546 31.4987C577.048 39.8239 575.851 48.196 574.353 56.5213C573.822 59.482 572.844 62.3646 571.954 65.2472C571.689 66.1005 571.116 66.907 570.533 67.6147C569.118 69.3162 567 69.5451 565.497 67.9477C564.331 66.7093 563.483 65.1639 562.63 63.6758C561.605 61.8859 560.803 59.9659 559.747 58.1967C559.06 57.0416 558.17 55.9697 557.223 55.0123C555.433 53.212 553.904 53.3265 552.639 55.5327C551.562 57.4162 550.594 59.4455 550.064 61.5372C549.059 65.5074 548.482 69.5867 547.582 73.5829C546.843 76.8609 545.943 80.0974 544.996 83.3182C544.746 84.1715 544.163 84.9832 543.56 85.6597C542.404 86.9657 540.734 87.0281 539.563 85.7377C538.788 84.8844 538.054 83.8593 537.721 82.7823C536.582 79.1348 535.344 75.4873 534.657 71.7409C533.325 64.4927 532.336 57.1769 531.207 49.8871C530.65 46.302 529.771 42.8054 528.184 39.5274C527.851 38.8457 527.2 38.315 526.696 37.7166C526.165 38.2942 525.52 38.7989 525.129 39.4597C523.542 42.1706 522.98 45.2302 522.32 48.2429C521.612 51.4689 521.128 54.7418 520.389 57.9574C519.708 60.9233 518.537 63.733 516.565 66.1005C514.348 68.7698 511.627 68.749 509.395 66.1005C507.61 63.9724 506.72 61.4072 505.883 58.8055C505.128 56.4588 504.264 54.1486 503.343 51.8591C503.104 51.2608 502.474 50.8081 502.022 50.2929C501.621 50.8237 501.043 51.292 500.851 51.8904C500.065 54.2891 499.259 56.693 498.728 59.1489C497.791 63.4625 497.105 67.8228 496.189 72.1415C495.903 73.4736 495.351 74.8056 494.669 75.9972C493.108 78.7601 490.444 78.8122 488.878 76.0648C487.973 74.4674 487.26 72.7139 486.771 70.9448C484.96 64.3678 483.285 57.7597 481.547 51.1671C481.12 49.5541 480.543 48.0035 479.226 46.5674C478.768 47.1918 478.316 47.6809 478.009 48.2481C476.51 50.985 475.787 53.9873 474.985 56.9688C474.163 60.0387 473.341 63.1034 472.342 66.1161C471.962 67.2557 471.223 68.3327 470.438 69.2589C468.95 70.9968 466.884 71.028 465.193 69.4775C463.647 68.057 462.82 66.189 462.003 64.3158C461.212 62.5103 460.562 60.6267 459.558 58.9564C458.762 57.6348 457.632 56.4484 456.451 55.439C454.854 54.0653 453.225 54.2422 451.716 55.7148C450.686 56.719 449.911 57.8793 449.474 59.2842C448.693 61.7922 447.809 64.2638 446.123 66.3555C443.396 69.7428 440.212 69.6336 437.808 66.0017C435.862 63.0722 434.873 59.7421 434.088 56.3704C433.13 52.2546 432.485 48.0659 431.439 43.9762C430.679 40.9999 429.535 38.1121 428.463 35.2294C428.145 34.3865 427.531 33.6268 426.933 32.9296C426.283 32.1699 425.705 32.1439 425.055 32.9192C424.311 33.8089 423.645 34.7976 423.114 35.8278C421.605 38.7365 420.923 41.9 420.294 45.0897C419.045 51.4481 417.723 57.7961 416.35 64.1285C416.053 65.5022 415.47 66.8238 414.934 68.135C414.679 68.749 414.284 69.337 413.847 69.8417C412.572 71.3194 410.761 71.3819 409.497 69.9093C408.789 69.082 408.118 68.1038 407.801 67.0735C406.776 63.7486 405.943 60.3665 404.991 57.0156C403.836 52.9518 402.681 48.8933 401.421 44.8607C401.078 43.7732 400.37 42.8054 399.829 41.7804C399.704 41.7804 399.579 41.7804 399.455 41.7804C399.09 42.5296 398.586 43.2477 398.383 44.0438C397.68 46.7911 396.91 49.5385 396.489 52.3326C395.791 57 395.391 61.7142 394.787 66.3919C394.303 70.1019 393.559 73.7702 392.186 77.2668C391.78 78.2866 391.244 79.2909 390.588 80.1702C388.85 82.5221 386.384 82.5845 384.636 80.2587C383.735 79.0671 383.017 77.6934 382.45 76.3042C380.499 71.5067 379.323 66.4752 378.449 61.3968C377.08 53.4565 375.972 45.4747 374.64 37.5345C374.151 34.6207 373.344 31.7588 372.668 28.8814C372.585 28.5276 372.397 28.1998 372.168 27.6378C371.893 28.2258 371.622 28.6213 371.518 29.0583C370.686 32.5393 369.713 35.9943 369.125 39.5117C368.126 45.4799 367.418 51.5001 365.69 57.3174C364.993 59.6797 364.067 61.9795 363.136 64.2586C362.501 65.8248 361.46 67.1412 359.998 68.0726C358.166 69.2381 356.137 69.1132 354.665 67.521C353.801 66.5844 353.072 65.4605 352.526 64.3054C350.986 61.0377 350.283 57.5151 349.721 53.9717C349.404 51.9476 348.618 50.1212 347.448 48.4614C346.823 47.5768 346.391 47.5404 345.855 48.4562C345.111 49.7258 344.508 51.0839 343.941 52.4419C342.754 55.2829 341.745 58.2071 340.428 60.9857C339.799 62.3177 338.743 63.5145 337.665 64.5447C335.928 66.2046 334.117 66.2878 332.051 65.0599C329.73 63.6758 328.56 61.48 327.753 59.0032C327.431 58.0198 327.004 57.0416 326.468 56.1571C325.381 54.3567 323.596 53.8468 321.639 54.0913C321.031 54.1642 320.391 54.7626 319.943 55.2725C318.216 57.2601 317.071 59.5808 316.218 62.0524C315.786 63.3012 315.401 64.5916 314.781 65.7519C313.111 68.8895 310.374 69.1913 307.955 66.5636C306.212 64.6644 305.239 62.3177 304.125 60.0387C303.308 58.3528 302.387 56.6774 301.258 55.1944C299.015 52.2442 296.997 52.3222 295.066 55.5066C293.911 57.4162 293.089 59.5392 292.262 61.6309C291.564 63.3948 290.612 64.9506 289.186 66.189C287.246 67.8748 284.941 67.9269 283.213 66.0277C281.97 64.6644 280.913 63.0202 280.174 61.3239C277.76 55.7928 276.511 49.9599 275.85 43.9658C275.034 36.5719 274.107 29.1832 272.312 21.9455C272.078 20.988 271.735 20.0567 271.428 19.1201C271.329 18.8391 271.178 18.5685 270.939 18.043C270.6 18.8703 270.257 19.4739 270.106 20.1243C269.086 24.6355 267.962 29.1364 267.145 33.6841C265.652 41.9417 264.403 50.2461 262.936 58.5089C262.572 60.559 261.812 62.5467 261.125 64.5291C260.839 65.3565 260.334 66.1422 259.798 66.8446C258.274 68.8375 255.927 69.056 254.309 67.1464C253.117 65.7311 252.321 63.9776 251.379 62.3594C250.115 60.2104 248.944 58.0042 247.607 55.8969C247.092 55.0852 246.296 54.414 245.52 53.8156C244.355 52.9154 243.346 52.983 242.419 54.1174C241.634 55.0904 240.942 56.1831 240.432 57.3278C238.735 61.1366 238.043 65.216 237.299 69.2953C236.602 73.1458 235.744 76.9702 234.838 80.779C234.557 81.9601 234.006 83.1153 233.386 84.1715C231.914 86.6795 229.453 86.8096 227.944 84.3432C226.929 82.6782 226.19 80.7946 225.613 78.9214C223.797 73.0417 222.798 66.9695 221.877 60.8972C221.216 56.5057 220.81 52.0621 219.988 47.7017C219.468 44.9336 218.443 42.2487 217.553 39.5586C217.308 38.8197 216.767 38.1693 216.314 37.5137C216.007 37.0662 215.576 37.035 215.243 37.4877C214.764 38.1277 214.275 38.7729 213.911 39.4805C212.381 42.462 211.85 45.7401 211.122 48.9557C210.523 51.6354 210.107 54.3567 209.55 57.0468C208.921 60.0751 207.729 62.8901 205.835 65.3461C203.535 68.3119 200.548 68.2495 198.243 65.268C196.688 63.2595 195.834 60.9129 195.049 58.5245C194.242 56.0634 193.347 53.6387 192.39 51.2347C192.161 50.6572 191.552 50.2357 191.115 49.7414C190.73 50.2409 190.163 50.6884 189.981 51.2556C189.19 53.6803 188.362 56.1102 187.821 58.5974C186.838 63.0566 186.104 67.5627 185.152 72.0323C184.892 73.2446 184.34 74.4362 183.716 75.5237C182.207 78.1721 179.517 78.245 178.029 75.6017C177.066 73.8951 176.301 72.0271 175.781 70.1435C173.996 63.6862 172.368 57.1925 170.661 50.7196C170.229 49.0754 169.662 47.4832 168.304 46.0211C167.825 46.6923 167.263 47.2126 167.024 47.8526C166.025 50.5375 165.046 53.2328 164.214 55.9697C163.366 58.7431 162.783 61.5945 161.909 64.3574C161.493 65.6895 160.816 66.9955 160.005 68.1402C158.256 70.617 155.769 70.6846 153.766 68.4056C151.991 66.3867 151.086 63.9099 150.222 61.428C149.338 58.8784 147.813 56.7658 145.779 55.0435C143.952 53.5034 142.194 53.5814 140.633 55.3766C139.764 56.3756 139.051 57.5932 138.577 58.8315C137.651 61.225 136.897 63.681 135.268 65.7259C132.469 69.2433 129.227 69.0976 126.787 65.3044C124.976 62.4894 123.998 59.3154 123.248 56.0998C122.385 52.4055 121.766 48.6539 120.933 44.9544C120.121 41.3693 119.174 37.8103 117.478 34.5166C117.057 33.7101 116.474 32.966 115.891 32.2532C115.418 31.6808 114.798 31.686 114.278 32.2271C113.825 32.6902 113.373 33.1741 113.04 33.7205C111.567 36.1764 110.547 38.8249 109.97 41.6243C108.471 48.8464 107.04 56.0842 105.51 63.3012C105.209 64.7113 104.626 66.0693 104.1 67.4222C103.882 67.9893 103.538 68.5253 103.164 69.0144C101.759 70.8563 99.6828 70.9552 98.3456 69.0716C97.4298 67.7812 96.6545 66.3035 96.2278 64.7893C95.1091 60.8452 94.2818 56.8231 93.2047 52.8634C92.4242 49.9808 91.4876 47.1294 90.5042 44.304C90.1296 43.2217 89.4479 42.2487 88.9016 41.2236C88.7559 41.234 88.6102 41.2444 88.4593 41.2496L88.4905 41.2444Z" fill="#20AA9A"/>
</g>
</g>
</g>
</svg>
