<svg width="128" height="101" viewBox="0 0 128 101" fill="none" xmlns="http://www.w3.org/2000/svg">
<mask id="mask0_378_2" style="mask-type:luminance" maskUnits="userSpaceOnUse" x="0" y="0" width="63" height="101">
<path d="M0.178467 0.215279H62.1704V100.909H0.178467V0.215279Z" fill="white"/>
</mask>
<g mask="url(#mask0_378_2)">
<path d="M42.3407 55.5626C38.74 56.9311 34.8011 57.7896 30.6853 57.7896C13.8059 57.7012 0.178467 44.849 0.178467 29.0831C0.178467 13.3119 13.8059 0.371368 30.6853 0.371368C47.57 0.371368 61.1922 13.2287 61.1922 29.0831C65.4797 71.2401 15.6062 101.065 15.6062 101.065L11.6621 96.3512C11.6621 96.2679 44.6561 70.7302 42.3407 55.5626Z" fill="#E7E8E9"/>
</g>
<mask id="mask1_378_2" style="mask-type:luminance" maskUnits="userSpaceOnUse" x="64" y="0" width="64" height="101">
<path d="M64.8345 0.215279H127.44V100.909H64.8345V0.215279Z" fill="white"/>
</mask>
<g mask="url(#mask1_378_2)">
<path d="M107.553 55.5626C103.953 56.9311 100.014 57.7896 95.8981 57.7896C79.0186 57.7896 65.3912 44.9323 65.3912 29.0831C65.3912 13.2287 79.0186 0.371368 95.8981 0.371368C112.783 0.371368 126.405 13.2287 126.405 29.0831C130.692 71.2401 80.819 101.065 80.819 101.065L76.8749 96.3512C76.8749 96.2679 109.869 70.7302 107.553 55.5626Z" fill="#E7E8E9"/>
</g>
</svg>
