<svg width="60" height="60" viewBox="0 0 60 60" fill="none" xmlns="http://www.w3.org/2000/svg">
<path d="M57.3677 48.7621L40.3023 57.2791V35.2619C41.595 33.6096 47.6935 25.6346 50.6333 18.9992L57.3677 15.6424V48.7621ZM21.178 48.7621V15.6424L27.9176 18.9992C30.8627 25.6398 36.9612 33.6148 38.2486 35.2619V57.2791L21.178 48.7621ZM2.0589 24.1543L19.1243 15.6424V48.7621L2.0589 57.2791V24.1543ZM39.2755 2.09017C45.2906 2.09017 50.185 7.0576 50.185 13.1665C50.185 17.9672 42.9346 28.4337 39.2755 33.2134C35.6164 28.4337 28.3659 17.9724 28.3659 13.1665C28.3659 7.0576 33.2604 2.09017 39.2755 2.09017ZM58.9419 13.0779C58.6396 12.8851 58.2643 12.8694 57.9463 13.0258L51.7331 16.122C52.0563 15.043 52.2439 14.0422 52.2439 13.1665C52.2439 5.90566 46.4269 0 39.2755 0C32.1241 0 26.307 5.90566 26.307 13.1665C26.307 14.0422 26.4947 15.043 26.8178 16.122L20.6046 13.0258C20.5421 12.9945 20.4691 12.9997 20.4014 12.9841C20.318 12.9633 20.2398 12.932 20.1512 12.932C20.0678 12.932 19.9896 12.9633 19.901 12.9841C19.8332 12.9997 19.7602 12.9945 19.6977 13.0258L0.573365 22.5697C0.224134 22.7417 0 23.1066 0 23.5027V58.9523C0 59.3172 0.182435 59.6508 0.484754 59.8436C0.651551 59.9479 0.839197 60 1.02684 60C1.18322 60 1.33959 59.9635 1.48032 59.8905L20.1512 50.576L38.822 59.8905C38.9627 59.9635 39.1191 60 39.2755 60C39.4318 60 39.5882 59.9635 39.729 59.8905L58.8533 50.3518C59.2025 50.1746 59.4266 49.8097 59.4266 49.4136V13.964C59.4266 13.6044 59.2442 13.2656 58.9419 13.0779Z" fill="white"/>
<path d="M39.2754 12.9215C37.6231 12.9215 36.2835 11.5559 36.2835 9.87746C36.2835 8.20427 37.6231 6.84384 39.2754 6.84384C40.9226 6.84384 42.2674 8.20427 42.2674 9.87746C42.2674 11.5559 40.9226 12.9215 39.2754 12.9215ZM44.3263 9.87746C44.3263 7.05233 42.0589 4.75366 39.2754 4.75366C36.492 4.75366 34.2246 7.05233 34.2246 9.87746C34.2246 12.7078 36.492 15.0065 39.2754 15.0065C42.0589 15.0065 44.3263 12.7078 44.3263 9.87746Z" fill="white"/>
</svg>
