<svg width="80" height="59" viewBox="0 0 80 59" fill="none" xmlns="http://www.w3.org/2000/svg">
<path d="M74.6348 22.0205C73.8127 20.7197 73.0322 19.4865 72.2465 18.68C71.7626 18.1805 71.2995 17.8631 70.8312 17.707C70.2276 17.5145 69.6188 17.5873 69.0621 17.9307C69.0517 17.9411 69.036 17.9515 69.0204 17.962C68.5469 18.295 68.3596 18.8257 68.5001 19.4189C68.5781 19.7727 68.7603 20.1005 68.9528 20.4491C69.1921 20.8914 69.4679 21.3909 69.369 21.6927C69.3014 21.9008 69.0256 22.1298 68.5886 22.3379C68.0318 22.6085 67.09 23.0612 65.7892 22.9623C64.2438 22.8426 63.5622 21.5886 62.9638 20.4855C62.7297 20.0485 62.5059 19.6322 62.2353 19.32C61.6786 18.68 61.0958 18.6592 60.7004 18.7581C60.3257 18.8465 59.6909 19.2107 59.6493 20.6156C59.6181 21.7031 59.9251 23.0091 60.4818 24.1018C61.2103 25.5483 62.2874 26.5266 63.5986 26.9324C64.6185 27.2446 65.4718 27.1926 66.1586 27.1509C66.8298 27.1041 67.1004 27.1041 67.2669 27.2758C67.3918 27.3955 67.5947 27.6036 67.142 28.3737C66.7154 29.0918 65.9245 29.9295 65.0867 30.8141C63.9732 31.99 62.8233 33.2076 62.2406 34.4512C61.8503 35.2785 61.8451 36.2047 61.8451 37.0216C61.8451 37.3442 61.8451 37.6564 61.8191 37.9322C61.7254 39.0144 61.4601 39.6336 60.8409 40.2268C60.5807 40.4766 60.2945 40.7055 59.9927 40.9501C59.5088 41.3403 59.0041 41.7462 58.567 42.2665C58.0779 42.8493 57.7449 43.4997 57.4223 44.1241C57.2662 44.4259 57.1205 44.7068 56.9644 44.9722C56.4181 45.9036 55.6948 46.4499 54.6229 46.7569C53.9465 46.9494 53.4002 46.9078 52.9527 46.6216C52.141 46.1013 51.553 44.7381 51.2148 42.5735C51.0587 41.6109 50.9754 40.6171 50.8922 39.6596C50.7049 37.4795 50.5123 35.2212 49.5289 33.0359C48.9149 31.6778 48.0564 30.5331 47.0418 29.737C45.8762 28.8056 44.5338 28.3321 43.056 28.3217C42.3796 28.3217 41.7604 28.4934 41.1568 28.6599C40.4128 28.8628 39.7676 29.0397 39.2212 28.8368C36.937 27.9887 36.6508 24.4609 37.322 22.3431C38.0661 20.0016 39.7624 17.9672 42.2287 16.453C42.2287 16.453 42.2339 16.453 42.2391 16.4478C43.5139 15.6361 45.1478 14.9284 46.6047 14.559C48.3426 14.1115 49.0242 14.3353 49.1075 14.4185C49.2896 14.6266 49.3104 14.7567 49.352 15.0377C49.4092 15.4332 49.4925 15.9743 50.0388 16.6247C51.194 18.0036 53.5146 17.2855 54.7634 16.9005L54.8415 16.8745C55.5595 16.6559 56.2256 16.9265 56.928 17.2179C57.3755 17.4052 57.8438 17.5925 58.3329 17.655C58.9729 17.733 59.5557 17.5613 60.0552 17.1554C60.7212 16.6143 60.8773 15.6257 60.4662 14.585C60.1436 13.7629 59.5192 13.0188 58.7127 12.4933C57.7657 11.8793 56.6262 11.5983 55.4086 11.6764C54.0766 11.7648 52.7394 11.2081 51.4489 10.6721C50.1325 10.1206 48.8889 9.60547 47.6609 9.76157C46.7504 9.87605 45.7461 10.3079 44.7679 10.7294C44.2684 10.9427 43.7897 11.1456 43.389 11.2809C43.1341 11.3642 42.9676 11.4006 42.8635 11.4162C42.9155 11.2653 43.056 10.9895 43.3995 10.6045C43.8105 10.1466 44.31 9.75637 44.6014 9.58466C45.1061 9.28287 45.8138 9.03311 46.5683 8.76775C47.5985 8.39831 48.6704 8.02367 49.5289 7.4253C50.528 6.73326 51.2668 5.89033 51.9172 5.15146C53.2909 3.58527 54.2847 2.45616 57.1153 2.81519C68.2451 5.42203 76.7629 14.892 77.9441 26.5005C76.7213 25.3194 75.6286 23.5919 74.6348 22.0205ZM77.4654 18.0556C76.0136 14.6266 73.9375 11.5463 71.2891 8.89783C68.6458 6.24936 65.5602 4.17324 62.1313 2.72153C58.5774 1.21778 54.8051 0.458099 50.913 0.458099C48.3218 0.458099 45.7565 0.801517 43.2798 1.47794C40.8811 2.13876 38.5708 3.10657 36.4166 4.36577C36.0264 4.59471 35.8911 5.09423 36.1201 5.48968C36.349 5.87992 36.8537 6.01 37.244 5.78626C41.3754 3.37194 46.1052 2.10234 50.913 2.10234C51.4958 2.10234 52.0785 2.11795 52.6509 2.15437C51.886 2.70072 51.2772 3.39275 50.6841 4.06398C50.0649 4.76642 49.4301 5.49488 48.5923 6.07244C47.9107 6.54594 46.9481 6.88936 46.0219 7.21717C45.1894 7.50855 44.4037 7.78953 43.7637 8.16937C43.3006 8.44514 42.7282 8.91344 42.2755 9.39734C41.6355 10.0842 41.2765 10.7346 41.2089 11.3278C41.1516 11.8533 41.3233 12.332 41.698 12.6858C42.3276 13.2842 43.2798 13.0188 43.592 12.9356C44.1435 12.7847 44.7627 12.5193 45.4131 12.2383C46.2873 11.8637 47.1875 11.4787 47.8691 11.3902C48.66 11.2913 49.711 11.7284 50.8193 12.1863C52.219 12.7691 53.8008 13.4299 55.5179 13.3154C57.3182 13.1957 58.4474 14.1688 58.8688 15.0325C59.1134 15.532 59.0509 15.839 59.0145 15.8806C58.7179 16.1252 58.437 16.0628 57.5576 15.6985C56.7043 15.3499 55.6428 14.9128 54.3576 15.3083L54.2795 15.3291C53.7696 15.4904 53.0672 15.7037 52.422 15.7714C51.8548 15.8286 51.4541 15.7558 51.298 15.5684C51.0483 15.2719 51.0223 15.0897 50.9754 14.7931C50.9182 14.4185 50.8454 13.9086 50.351 13.3414C49.685 12.5661 48.3114 12.4361 46.2769 12.946C44.643 13.3518 42.8063 14.1427 41.365 15.0585C40.0069 15.891 38.8414 16.8745 37.9048 17.9932C36.9162 19.1639 36.1929 20.4595 35.7558 21.8436C35.2979 23.2901 35.2355 25.0488 35.5893 26.5526C35.7975 27.4319 36.1409 28.1916 36.5988 28.8212C37.1399 29.5497 37.8267 30.0752 38.6489 30.377C39.6947 30.7672 40.7042 30.4863 41.5939 30.2417C42.109 30.1012 42.5981 29.9659 43.0456 29.9659C45.9178 29.9867 47.4008 32.323 48.0304 33.7123C48.8993 35.6375 49.071 37.6616 49.2532 39.8001C49.3416 40.7888 49.4249 41.8086 49.5862 42.8284C49.8567 44.5455 50.4083 46.9442 52.0681 48.0057C52.6041 48.3491 53.2024 48.5208 53.8529 48.5208C54.2379 48.5208 54.6438 48.4584 55.0704 48.3387C56.543 47.9225 57.6252 47.0899 58.3797 45.8047C58.5618 45.4977 58.7231 45.1855 58.8792 44.8785C59.1758 44.3062 59.4568 43.765 59.8314 43.3176C60.1592 42.9273 60.5807 42.5891 61.023 42.2301C61.3404 41.9751 61.6682 41.7097 61.9752 41.4132C63.1199 40.3205 63.3645 39.1133 63.4581 38.0778C63.4841 37.7292 63.4893 37.3702 63.4893 37.0268C63.4893 36.3191 63.4945 35.6479 63.7287 35.1484C64.197 34.1494 65.2585 33.0255 66.2783 31.9432C67.1837 30.991 68.037 30.0856 68.5573 29.2062C69.4679 27.6661 68.9892 26.6722 68.4325 26.1103C67.7196 25.4026 66.8351 25.4599 66.0546 25.5067C65.4458 25.5483 64.8162 25.5848 64.0825 25.361C62.7661 24.9552 62.0688 23.6908 61.7671 22.9727C61.4236 22.1454 61.3092 21.3857 61.2936 20.8602C61.3768 21.0007 61.4549 21.1464 61.5225 21.2712C61.8555 21.8852 62.2666 22.6501 62.8858 23.2901C63.6506 24.0758 64.582 24.5181 65.6591 24.6013C67.4074 24.7314 68.6406 24.1382 69.3014 23.8208C70.186 23.3994 70.7167 22.8686 70.9352 22.1974C71.2474 21.2244 70.7531 20.319 70.3941 19.6634C70.3265 19.5385 70.238 19.3824 70.1756 19.2472C70.3577 19.2524 70.6282 19.3668 71.0653 19.8195C71.7365 20.5116 72.4702 21.6719 73.2455 22.8999C74.5984 25.0436 76.1229 27.4475 78.0794 28.7067C78.0845 28.8941 78.0846 29.0814 78.0846 29.2739C78.0846 44.2593 65.8985 56.4454 50.913 56.4454C44.9136 56.4454 39.2993 54.4994 34.7464 51.1381C33.8774 49.2389 33.6797 47.0899 33.4664 44.8213C33.2947 42.9689 33.1178 41.0593 32.5558 39.2174C31.9054 37.0944 30.8179 35.3721 29.2361 33.9464C28.8979 33.6394 28.3776 33.6707 28.0758 34.0037C27.7688 34.3419 27.7948 34.8622 28.133 35.164C31.1769 37.9009 31.4943 41.3351 31.8326 44.9722C31.9574 46.3719 32.0927 47.7976 32.3945 49.1869C28.6429 45.7007 25.8644 41.1374 24.548 35.8873C24.2514 34.6905 24.0328 33.4625 23.8975 32.2294C23.7935 31.2563 23.7414 30.2625 23.7414 29.2739C23.7414 28.816 23.7519 28.3529 23.7727 27.895C23.8143 27.0989 23.8871 26.3132 23.9964 25.5327C25.6458 25.2309 27.108 24.5701 28.3568 23.5607C29.6784 22.494 30.6878 21.0943 31.3591 19.3981C32.2852 17.067 32.4882 14.3613 31.9418 11.5827C31.3747 8.68449 30.0114 5.86431 27.9977 3.42397C27.8208 3.21064 27.545 3.10137 27.2693 3.13259C26.9935 3.16381 26.7489 3.33552 26.6241 3.58527C26.0569 4.73 24.9486 6.06724 23.7727 7.48253C22.3314 9.22563 20.6975 11.1977 19.5528 13.3987C19.0065 14.4445 18.6682 15.5788 18.5434 16.7808C18.4133 18.0348 18.5226 19.2888 18.8712 20.5168C18.996 20.9538 19.4487 21.2088 19.8858 21.0839C20.3229 20.959 20.5778 20.5064 20.453 20.0693C19.891 18.0764 20.0939 15.9223 21.0097 14.1583C22.0764 12.1083 23.6478 10.2091 25.0371 8.5336C25.9372 7.45131 26.801 6.41066 27.4566 5.41683C30.4901 9.62108 31.4319 14.7619 29.8345 18.7945C28.8042 21.3909 26.8582 23.134 24.293 23.7896C24.7769 21.4169 25.5782 19.1327 26.6865 16.9525C26.8946 16.5467 26.7333 16.0523 26.3275 15.8442C25.9268 15.6413 25.4325 15.7974 25.2244 16.2032C24.319 17.9776 23.601 19.8455 23.0858 21.7656C22.5551 23.7324 22.2377 25.7669 22.1336 27.8118C22.1076 28.2957 22.0972 28.79 22.0972 29.2739C22.0972 29.9399 22.118 30.6111 22.1648 31.272C21.5457 30.4082 20.786 29.5132 19.8598 28.6703C19.7713 28.5819 19.6777 28.5038 19.584 28.4206C19.4956 24.8823 17.9034 22.1818 15.0728 20.7873C14.0946 20.3034 13.0019 19.9964 11.8155 19.8664C10.6604 19.7415 9.44802 19.7935 8.20444 20.012C5.64962 20.4647 3.12603 21.6095 0.904228 23.3161C0.680486 23.4878 0.560811 23.7584 0.586827 24.0342C0.607642 24.31 0.768942 24.5597 1.0135 24.6898C1.96049 25.2049 3.06359 26.1831 4.22913 27.2186C5.67044 28.4986 7.30427 29.9555 9.16184 31.0014C10.0464 31.5009 11.0194 31.8287 12.0549 31.9744C12.4451 32.0264 12.8354 32.0524 13.2256 32.0524C13.9176 32.0524 14.6045 31.9692 15.2861 31.8027C15.7284 31.6934 15.999 31.2511 15.8897 30.8089C15.7804 30.3666 15.3381 30.096 14.8959 30.2053C13.21 30.6215 11.4149 30.3874 9.96835 29.5705C8.26688 28.6079 6.70069 27.2186 5.31661 25.9906C4.46848 25.2361 3.65677 24.5077 2.86587 23.9301C6.70069 21.3909 11.1963 20.7093 14.3495 22.2599C16.2539 23.2017 17.4351 24.8511 17.8149 27.0833C17.5547 26.9168 17.2946 26.7607 17.024 26.6098C15.8689 25.975 14.5993 25.5015 13.2568 25.2101C12.8145 25.1165 12.3775 25.3974 12.2786 25.8397C12.185 26.282 12.4659 26.7191 12.9082 26.8179C15.1404 27.3018 16.998 28.2749 18.7515 29.8827C20.3541 31.3448 21.4156 33.0151 22.0192 34.1598C22.6592 35.3617 22.9453 36.2515 22.9662 36.3243C23.7414 39.3995 25.011 42.3133 26.7489 44.9774C28.4608 47.6103 30.5786 49.9361 33.0449 51.8874C35.5373 53.8542 38.3106 55.3892 41.2921 56.4454C44.3725 57.5381 47.6141 58.0897 50.913 58.0897C54.8051 58.0897 58.5774 57.33 62.1313 55.8263C65.5602 54.3745 68.6458 52.2984 71.2891 49.65C73.9375 47.0067 76.0136 43.9211 77.4654 40.4922C78.9691 36.9383 79.7288 33.1659 79.7288 29.2739C79.7288 25.387 78.9691 21.6095 77.4654 18.0556Z" fill="white"/>
</svg>
