<svg width="73" height="60" viewBox="0 0 73 60" fill="none" xmlns="http://www.w3.org/2000/svg">
<path d="M41.4135 50.0868H31.2251C30.9783 50.0868 30.7716 50.0007 30.5994 49.8285C30.4272 49.6563 30.3411 49.4439 30.3411 49.2028V42.2632H23.3958C23.1547 42.2632 22.9423 42.1771 22.7701 41.9992C22.5979 41.827 22.5118 41.6204 22.5118 41.3735V31.1851C22.5118 30.9383 22.5979 30.7316 22.7701 30.5594C22.9423 30.3872 23.1547 30.3011 23.3958 30.3011H30.3411V23.3615C30.3411 23.1147 30.4272 22.908 30.5994 22.7359C30.7716 22.5637 30.9783 22.4776 31.2251 22.4776H41.4135C41.6604 22.4776 41.867 22.5637 42.0392 22.7359C42.2114 22.908 42.2975 23.1147 42.2975 23.3615V30.3011H49.2371C49.4839 30.3011 49.6906 30.3872 49.8628 30.5594C50.035 30.7316 50.1211 30.9383 50.1211 31.1851V41.3793C50.1211 41.6203 50.035 41.827 49.8628 41.9992C49.6906 42.1771 49.4839 42.2632 49.2371 42.2632H42.2975V49.2028C42.2975 49.4439 42.2114 49.6563 42.0392 49.8285C41.867 50.0007 41.6604 50.0868 41.4135 50.0868ZM32.1091 48.3189H40.5296V41.3735C40.5296 41.1325 40.6157 40.9258 40.7879 40.7479C40.9601 40.5757 41.1725 40.4896 41.4135 40.4896H48.3532V32.069H41.4135C41.1725 32.069 40.9601 31.9829 40.7879 31.8107C40.6157 31.6385 40.5296 31.4319 40.5296 31.1851V24.2455H32.1091V31.1851C32.1091 31.4319 32.023 31.6385 31.8508 31.8107C31.6786 31.9829 31.4662 32.069 31.2251 32.069H24.2797V40.4896H31.2251C31.4662 40.4896 31.6786 40.5757 31.8508 40.7536C32.023 40.9258 32.1091 41.1324 32.1091 41.3793V48.3189Z" fill="white"/>
<path d="M67.7031 60H4.93651C4.28215 60 3.65075 59.8737 3.04806 59.6212C2.44536 59.3743 1.91154 59.0185 1.44661 58.5535C0.987409 58.0886 0.631531 57.5548 0.378973 56.9521C0.126414 56.3494 0.00587426 55.718 0.000134661 55.0636V17.3119C0.00587426 16.6575 0.126414 16.0261 0.378973 15.4234C0.631531 14.8207 0.987409 14.2869 1.44661 13.822C1.91154 13.3628 2.44536 13.0011 3.04806 12.7543C3.65075 12.5018 4.28215 12.3755 4.93651 12.3755H67.7031C68.3574 12.3755 68.9831 12.5018 69.5858 12.7543C70.1942 13.0011 70.728 13.3628 71.1872 13.822C71.6522 14.2869 72.008 14.8207 72.2606 15.4234C72.5074 16.0261 72.6337 16.6575 72.6337 17.3119V55.0636C72.6337 55.718 72.5074 56.3494 72.2606 56.9521C72.008 57.5548 71.6522 58.0886 71.1872 58.5535C70.728 59.0185 70.1942 59.3743 69.5858 59.6212C68.9831 59.8737 68.3574 60 67.7031 60ZM4.93651 14.1434C4.51749 14.1434 4.11569 14.2238 3.72537 14.3845C3.3408 14.5509 2.9964 14.7748 2.69792 15.0733C2.40518 15.3717 2.17558 15.7104 2.01486 16.1007C1.85415 16.4853 1.77378 16.8928 1.77378 17.3119V55.0636C1.77378 55.4884 1.85415 55.8902 2.01486 56.2748C2.17558 56.6651 2.40518 57.0037 2.69792 57.3022C2.9964 57.6007 3.3408 57.8303 3.72537 57.991C4.11569 58.1517 4.51749 58.2321 4.93651 58.2321H67.7031C68.1221 58.2321 68.5239 58.1517 68.9142 57.991C69.2988 57.8303 69.6432 57.6007 69.9359 57.3022C70.2344 57.0037 70.464 56.6651 70.6247 56.2748C70.7854 55.8902 70.8658 55.4884 70.8658 55.0636V17.3119C70.8658 16.8928 70.7854 16.4853 70.6247 16.1007C70.464 15.7104 70.2344 15.3717 69.9359 15.0733C69.6432 14.7748 69.2988 14.5452 68.9142 14.3845C68.5239 14.2238 68.1221 14.1434 67.7031 14.1434H4.93651Z" fill="white"/>
<path d="M46.5107 14.1434H26.128C25.8812 14.1434 25.6746 14.0573 25.5024 13.8851C25.3302 13.7129 25.2441 13.5062 25.2441 13.2594V8.65022C25.2441 8.1164 25.3474 7.5998 25.5483 7.10616C25.755 6.61253 26.0477 6.17629 26.4265 5.80319C26.7996 5.42436 27.2359 5.13162 27.7295 4.92498C28.2231 4.72408 28.7397 4.62076 29.2736 4.62076H43.3652C43.899 4.62076 44.4098 4.72408 44.9035 4.92498C45.3971 5.13162 45.8334 5.42436 46.2122 5.80319C46.591 6.17629 46.8838 6.61253 47.0847 7.10616C47.2913 7.5998 47.3946 8.1164 47.3946 8.65022V13.2594C47.3946 13.5062 47.3085 13.7129 47.1363 13.8851C46.9641 14.0573 46.7518 14.1434 46.5107 14.1434ZM27.012 12.3755H45.6267V8.65022C45.6267 8.35174 45.5693 8.059 45.4545 7.78348C45.3397 7.50796 45.1733 7.26114 44.9609 7.04876C44.7485 6.83639 44.5074 6.67567 44.2262 6.56087C43.9507 6.44607 43.6637 6.38867 43.3652 6.38867H29.2736C28.9751 6.38867 28.6823 6.44607 28.4068 6.56087C28.1313 6.67567 27.8845 6.83639 27.6778 7.04876C27.4655 7.26114 27.299 7.50796 27.1842 7.78348C27.0694 8.059 27.012 8.35174 27.012 8.65022V12.3755Z" fill="white"/>
<path d="M53.2725 14.1433H19.6076C19.3608 14.1433 19.1541 14.0572 18.9819 13.885C18.804 13.7128 18.7179 13.5061 18.7179 13.2593V6.19917C18.7236 5.79737 18.7638 5.39557 18.8384 4.99377C18.9188 4.59772 19.0393 4.2074 19.1943 3.8343C19.3493 3.45546 19.5387 3.09958 19.7683 2.76092C19.9922 2.42801 20.2505 2.11231 20.5375 1.82531C20.8245 1.53831 21.1344 1.28001 21.4731 1.05615C21.8117 0.832296 22.1676 0.637137 22.5464 0.482157C22.9195 0.327179 23.3041 0.212378 23.7059 0.132019C24.102 0.0516604 24.5038 0.0114799 24.9113 0.0114799H47.963C48.3706 0.0114799 48.7724 0.0516604 49.1742 0.132019C49.5702 0.212378 49.9605 0.327179 50.3336 0.482157C50.7067 0.637137 51.0626 0.832296 51.4013 1.05615C51.7399 1.28001 52.0556 1.53831 52.3426 1.82531C52.6296 2.11231 52.8879 2.42801 53.1118 2.76092C53.3356 3.09958 53.5251 3.45546 53.6858 3.8343C53.8408 4.2074 53.9555 4.59772 54.0359 4.99377C54.1163 5.39557 54.1564 5.79737 54.1564 6.19917V13.2593C54.1564 13.5061 54.0704 13.7128 53.8982 13.885C53.726 14.0572 53.5136 14.1433 53.2725 14.1433ZM20.4915 12.3754H52.3885V6.19917C52.3885 5.61369 52.2737 5.05117 52.0499 4.51162C51.826 3.96632 51.5046 3.4899 51.0913 3.07662C50.678 2.66335 50.1959 2.34191 49.6563 2.11805C49.1168 1.89419 48.5485 1.77939 47.963 1.77939H24.9113C24.3258 1.77939 23.7633 1.89419 23.218 2.11805C22.6785 2.34191 22.202 2.66335 21.7888 3.07662C21.3697 3.4899 21.0541 3.96632 20.8302 4.51162C20.6006 5.05117 20.4915 5.61369 20.4915 6.19917V12.3754Z" fill="white"/>
</svg>
