<svg width="76" height="62" viewBox="0 0 76 62" fill="none" xmlns="http://www.w3.org/2000/svg">
<path d="M4.02229 59.3183H71.5792L45.229 22.0376L32.7109 40.568C32.4695 40.9274 32.0727 41.1473 31.6382 41.158C31.1984 41.1312 30.7962 40.9757 30.5334 40.6324L24.1939 32.3246L4.02229 59.3183ZM74.175 62H1.34061C0.836458 62 0.369846 61.7158 0.144586 61.2599C-0.0860391 60.804 -0.0377696 60.2623 0.267943 59.8547L23.1051 29.2943C23.3572 28.9617 23.7541 28.7633 24.1724 28.7579C24.1778 28.7579 24.1778 28.7579 24.1832 28.7579C24.6015 28.7579 24.993 28.951 25.2505 29.2835L31.5363 37.5163L44.092 18.9269C44.3387 18.5622 44.7463 18.3423 45.1914 18.3369C45.1914 18.3369 45.1968 18.3369 45.2022 18.3369C45.6366 18.3369 46.0442 18.5514 46.2963 18.9054L75.2692 59.8815C75.5588 60.2945 75.5963 60.8308 75.3657 61.276C75.1351 61.7211 74.6738 62 74.175 62Z" fill="white"/>
<path d="M61.7697 2C57.2537 2 53.5906 5.66317 53.5906 10.1791C53.5906 14.6951 57.2537 18.3582 61.7697 18.3582C66.2856 18.3582 69.9435 14.6951 69.9435 10.1791C69.9435 5.66317 66.2856 2 61.7697 2Z" stroke="white" stroke-width="2.5"/>
</svg>
