<svg width="100" height="100" viewBox="0 0 100 100" fill="none" xmlns="http://www.w3.org/2000/svg">
<path d="M82.5001 17.5001C73.7501 8.75008 62.0834 4.16675 50.0001 4.16675C37.9168 4.16675 26.2501 8.75008 17.5001 17.5001C8.75008 26.2501 4.16675 37.9168 4.16675 50.0001C4.16675 62.0834 8.75008 73.7501 17.5001 82.5001C26.2501 91.2501 37.9168 95.8334 50.0001 95.8334C62.0834 95.8334 73.7501 91.2501 82.5001 82.5001C91.2501 73.7501 95.8334 62.0834 95.8334 50.0001C95.8334 37.9168 91.2501 26.2501 82.5001 17.5001ZM76.6668 76.6668C69.5834 83.7501 60.0001 87.5001 50.0001 87.5001C40.0001 87.5001 30.4167 83.7501 23.3334 76.6668C16.2501 69.5834 12.5001 60.0001 12.5001 50.0001C12.5001 40.0001 16.2501 30.4167 23.3334 23.3334C30.4167 16.2501 40.0001 12.5001 50.0001 12.5001C60.0001 12.5001 69.5834 16.2501 76.6668 23.3334C83.7501 30.4167 87.5001 40.0001 87.5001 50.0001C87.5001 60.0001 83.7501 69.5834 76.6668 76.6668ZM67.9167 34.5834L45.8334 56.6668L36.2501 47.0834C34.5834 45.4168 32.0834 45.4168 30.4168 47.0834C28.7501 48.7501 28.7501 51.2501 30.4168 52.9168L42.9168 65.4168C43.7501 66.2501 45.0001 66.6668 45.8334 66.6668C46.6668 66.6668 47.9168 66.2501 48.7501 65.4168L73.7501 40.4168C75.4168 38.7501 75.4168 36.2501 73.7501 34.5834C72.0834 32.9168 69.5834 32.9168 67.9167 34.5834Z" fill="#20AA9A"/>
</svg>
