<svg width="23" height="23" viewBox="0 0 23 23" fill="none" xmlns="http://www.w3.org/2000/svg">
<mask id="mask0_354_80057" style="mask-type:luminance" maskUnits="userSpaceOnUse" x="0" y="0" width="23" height="23">
<path d="M0.100586 0.450562H22.048V22.4188H0.100586V0.450562Z" fill="white"/>
</mask>
<g mask="url(#mask0_354_80057)">
<path d="M20.1437 0.450562H1.92178C0.912343 0.450562 0.105835 1.27268 0.105835 2.27171V20.5248C0.105835 21.5343 0.927953 22.3408 1.92178 22.3408H20.1333C21.1427 22.3408 21.9492 21.5187 21.9492 20.5248V2.27171C21.9596 1.27268 21.1531 0.450562 20.1437 0.450562ZM6.57352 18.5112H3.34748V8.80704H6.57352V18.5112ZM4.9553 7.6363C3.93545 7.6363 3.11333 6.81418 3.11333 5.79433C3.11333 4.77969 3.93545 3.95757 4.9553 3.95757C5.97514 3.95757 6.79726 4.77969 6.79726 5.79433C6.79726 6.81418 5.97514 7.6363 4.9553 7.6363ZM18.7336 18.5112H15.4919L15.4139 12.7511C15.4139 12.7511 15.4919 11.2162 13.8165 11.2266C12.141 11.237 11.9069 12.7511 11.9069 12.7511V18.5112H8.64442V8.80704H11.7768V10.1443C11.7768 10.1443 11.9069 9.7072 12.6301 9.19208C13.3534 8.67695 14.5502 8.56768 15.0653 8.5885C15.5752 8.60931 16.2776 8.52085 17.4484 9.33257C18.7076 10.1963 18.744 12.4649 18.744 12.4649L18.7336 18.5112Z" fill="#6C6E6E"/>
</g>
</svg>
