<svg width="23" height="23" viewBox="0 0 23 23" fill="none" xmlns="http://www.w3.org/2000/svg">
<path d="M11.4118 10.9508L6.45825 7.28766H16.6879L11.7344 10.9508C11.6251 11.034 11.521 11.034 11.4118 10.9508Z" fill="#6C6E6E"/>
<path d="M12.6968 12.2568L18.3371 8.08374V15.2331C18.3371 15.4152 18.2487 15.5036 18.0666 15.5036H5.07916C4.89705 15.5036 4.80859 15.4152 4.80859 15.2331V8.08374L10.449 12.2568C10.782 12.5117 11.1566 12.6366 11.5729 12.6366C11.9891 12.6366 12.3638 12.5117 12.6968 12.2568Z" fill="#6C6E6E"/>
<mask id="mask0_372_2" style="mask-type:luminance" maskUnits="userSpaceOnUse" x="0" y="0" width="23" height="23">
<path d="M0.630127 0.450562H22.5984V22.4188H0.630127V0.450562Z" fill="white"/>
</mask>
<g mask="url(#mask0_372_2)">
<path d="M19.6013 0.450562H3.54917C3.15892 0.450562 2.78949 0.528611 2.43046 0.674303C2.07144 0.819995 1.75924 1.03333 1.48347 1.3091C1.20769 1.57968 0.999561 1.89707 0.848665 2.2561C0.702973 2.60992 0.630127 2.98456 0.630127 3.3696V19.4217C0.630127 19.812 0.702973 20.1814 0.848665 20.5404C0.999561 20.8995 1.20769 21.2117 1.48347 21.4874C1.75924 21.7632 2.07144 21.9713 2.43046 22.1222C2.78949 22.2679 3.15892 22.3408 3.54917 22.3408H19.6013C19.9863 22.3408 20.361 22.2679 20.7148 22.1222C21.0738 21.9713 21.3912 21.7632 21.6618 21.4874C21.9376 21.2117 22.1509 20.8995 22.2966 20.5404C22.4423 20.1814 22.5203 19.812 22.5203 19.4217V3.3696C22.5203 2.98456 22.4423 2.60992 22.2966 2.2561C22.1509 1.89707 21.9376 1.57968 21.6618 1.3091C21.3912 1.03333 21.0738 0.819995 20.7148 0.674303C20.361 0.528611 19.9863 0.450562 19.6013 0.450562ZM19.9655 15.2331C19.9655 15.4881 19.9135 15.7274 19.8198 15.9616C19.721 16.1905 19.5857 16.3986 19.4088 16.5755C19.2319 16.7524 19.0237 16.8877 18.7948 16.9866C18.5606 17.0855 18.3213 17.1323 18.0663 17.1323H5.07893C4.82918 17.1323 4.58462 17.0855 4.35568 16.9866C4.12153 16.8877 3.9186 16.7524 3.74169 16.5755C3.55958 16.3986 3.42429 16.1905 3.33063 15.9616C3.23177 15.7274 3.18494 15.4881 3.18494 15.2331V7.55825C3.18494 7.30849 3.23177 7.06394 3.33063 6.83499C3.42429 6.60084 3.55958 6.39792 3.74169 6.221C3.9186 6.04409 4.12153 5.9036 4.35568 5.80994C4.58462 5.71108 4.82918 5.66425 5.07893 5.66425H18.0663C18.3213 5.66425 18.5606 5.71108 18.7948 5.80994C19.0237 5.9036 19.2319 6.04409 19.4088 6.221C19.5857 6.39792 19.721 6.60084 19.8198 6.83499C19.9135 7.06394 19.9655 7.30849 19.9655 7.55825V15.2331Z" fill="#6C6E6E"/>
</g>
</svg>
