<svg width="466" height="76" viewBox="0 0 466 76" fill="none" xmlns="http://www.w3.org/2000/svg">
<mask id="mask0_355_99989" style="mask-type:luminance" maskUnits="userSpaceOnUse" x="0" y="0" width="466" height="76">
<path d="M465.544 0.58667H0.661621V75.181H465.544V0.58667Z" fill="white"/>
</mask>
<g mask="url(#mask0_355_99989)">
<mask id="mask1_355_99989" style="mask-type:luminance" maskUnits="userSpaceOnUse" x="0" y="1" width="464" height="73">
<path d="M0.661621 1.48157H463.322V73.3754H0.661621V1.48157Z" fill="white"/>
</mask>
<g mask="url(#mask1_355_99989)">
<path d="M-82.9291 27.9507C-83.3297 28.8769 -83.8917 29.7615 -84.0998 30.7241C-84.9219 34.5173 -85.7493 38.3209 -86.3476 42.1557C-87.1333 47.2133 -87.612 52.3177 -88.4185 57.3753C-88.7568 59.519 -89.5112 61.616 -90.2449 63.6765C-90.6195 64.7275 -91.2543 65.7422 -91.962 66.6111C-93.5854 68.5988 -95.8384 68.6768 -97.4306 66.6788C-98.4713 65.3727 -99.2986 63.8326 -99.923 62.2768C-102.03 57.0423 -103.217 51.532 -104.164 45.9957C-105.407 38.7579 -106.375 31.4733 -107.577 24.2252C-108.082 21.1916 -108.883 18.1998 -109.575 15.1975C-109.674 14.7708 -109.908 14.3701 -110.08 13.9591C-110.168 13.9591 -110.257 13.9539 -110.34 13.9539C-110.725 15.0726 -111.251 16.1653 -111.474 17.3152C-112.395 22.0398 -113.269 26.7696 -114.081 31.515C-115.039 37.1501 -116.069 42.7645 -118.15 48.1186C-118.551 49.1541 -119.055 50.1479 -119.545 51.1418C-119.763 51.584 -120.044 52.0003 -120.346 52.3905C-123.093 55.9912 -126.704 55.8247 -129.025 51.9483C-130.716 49.1229 -131.429 45.9489 -132.126 42.7749C-132.542 40.8861 -132.979 38.9973 -133.489 37.1345C-133.677 36.4633 -134.067 35.8389 -134.436 35.2301C-135.441 33.5599 -135.982 33.5442 -136.934 35.2769C-137.553 36.4061 -138.047 37.6236 -138.448 38.8464C-139.494 42.0152 -140.509 45.2048 -142.377 48.0042C-143.121 49.1177 -144.052 50.1635 -145.077 51.0273C-146.534 52.2448 -148.209 52.3593 -149.932 51.4019C-152.367 50.0491 -153.647 47.8741 -154.495 45.3349C-154.844 44.2942 -155.265 43.2432 -155.838 42.3118C-156.68 40.9433 -157.971 40.2097 -159.646 40.2097C-160.703 40.2097 -161.353 39.6321 -161.363 38.7892C-161.374 37.9618 -160.718 37.3166 -159.683 37.2854C-157.362 37.2178 -155.374 38.0919 -154.001 39.9131C-153.09 41.1202 -152.409 42.5459 -151.852 43.9612C-151.264 45.4702 -150.764 46.9895 -149.531 48.1186C-148.131 49.383 -147.148 49.4247 -146.019 47.9365C-144.963 46.5473 -144.026 45.0227 -143.308 43.4357C-142.423 41.474 -141.861 39.3667 -141.065 37.3583C-140.498 35.9326 -139.921 34.4704 -139.083 33.1956C-137.121 30.1933 -134.306 30.1881 -132.287 33.1384C-130.95 35.0948 -130.123 37.2646 -129.66 39.6113C-129.108 42.421 -128.401 45.2048 -127.62 47.9625C-127.329 49.0084 -126.741 50.0022 -126.148 50.9336C-125.253 52.3229 -124.358 52.4114 -123.244 51.173C-122.536 50.3821 -121.876 49.4455 -121.527 48.4569C-120.445 45.3765 -119.274 42.2962 -118.592 39.117C-117.51 34.0854 -116.875 28.9549 -115.897 23.8974C-115.257 20.6037 -114.393 17.3464 -113.509 14.11C-113.249 13.1578 -112.671 12.2368 -112.036 11.4667C-110.97 10.1711 -109.331 10.1919 -108.259 11.4875C-107.702 12.1639 -107.27 12.9861 -106.958 13.8134C-105.532 17.5962 -104.923 21.5715 -104.382 25.5468C-103.175 34.3872 -102.004 43.2328 -99.9126 51.9222C-99.1113 55.2419 -98.0186 58.4992 -96.9571 61.746C-96.6345 62.7243 -96.0362 63.6296 -95.4534 64.4986C-94.9018 65.3155 -94.5428 65.3051 -94.0069 64.457C-93.4709 63.6036 -92.987 62.6878 -92.654 61.7356C-90.9734 56.9486 -90.3021 51.9691 -89.8547 46.9427C-89.3916 41.7446 -88.7828 36.5621 -87.4299 31.5046C-87.0397 30.0528 -86.535 28.6011 -85.8377 27.2743C-84.2403 24.2408 -81.467 24.0378 -79.7395 26.9777C-78.423 29.2151 -77.398 31.6919 -76.6695 34.1842C-75.3739 38.6227 -74.4373 43.1651 -73.277 47.6399C-72.8399 49.305 -72.2103 50.9232 -71.6223 52.5466C-71.435 53.0514 -71.0916 53.4988 -70.6753 54.2273C-70.2539 53.3844 -69.8324 52.7756 -69.6399 52.1044C-69.0103 49.9086 -68.3755 47.7128 -67.9072 45.4858C-66.6428 39.4448 -65.5033 33.3725 -64.2285 27.3367C-63.5989 24.3292 -62.4854 21.4778 -60.8463 18.8606C-60.3937 18.1321 -59.8473 17.4349 -59.2281 16.8469C-57.3705 15.0882 -55.1227 15.0674 -53.3796 16.9354C-52.4482 17.9292 -51.6469 19.1259 -51.0642 20.3643C-48.9308 24.8964 -47.7341 29.7094 -46.8911 34.6265C-46.1002 39.2262 -45.1688 43.7947 -43.3113 48.1082C-42.8222 49.253 -42.1301 50.3457 -41.3756 51.3499C-40.7148 52.2292 -39.9447 52.2813 -39.2683 51.4279C-38.3005 50.2052 -37.4628 48.8627 -36.7395 47.4838C-36.2088 46.4848 -35.9226 45.3557 -35.5636 44.2734C-34.8351 42.0568 -33.5135 40.2513 -31.6247 38.9088C-29.6006 37.4779 -27.3684 37.2334 -25.2403 38.5342C-23.9186 39.3407 -22.7063 40.423 -21.676 41.5833C-20.1098 43.342 -18.9755 45.3765 -18.1794 47.6347C-17.529 49.4819 -16.582 51.2406 -15.5778 52.9265C-14.8805 54.0972 -14.3394 54.0192 -13.5901 52.8744C-12.1852 50.7099 -11.6337 48.2279 -10.952 45.7876C-9.92179 42.1088 -8.91755 38.4197 -7.74681 34.7826C-7.35657 33.5807 -6.6177 32.4359 -5.8268 31.4265C-4.17736 29.3192 -1.81507 29.4024 -0.202049 31.5462C1.04154 33.206 1.70756 35.1208 2.22788 37.1137C3.93977 43.6802 5.65685 50.2468 7.44678 56.7977C7.85784 58.2911 8.57589 59.7012 9.14825 61.1529C9.27834 61.1529 9.40842 61.1529 9.5437 61.1581C9.83509 60.5805 10.2566 60.0342 10.4074 59.4254C11.1463 56.4647 11.854 53.4936 12.494 50.5122C13.2797 46.8647 13.8832 43.1755 14.7782 39.5592C15.158 38.0399 15.9177 36.5413 16.7971 35.2249C18.4361 32.769 20.8765 32.769 22.6872 35.1208C24.3418 37.2646 25.0703 39.8402 25.908 42.3586C26.548 44.289 27.162 46.2351 27.9477 48.1082C28.3588 49.076 29.082 49.9346 29.7533 50.7723C30.2996 51.4592 31.0437 51.4435 31.5796 50.7723C32.2769 49.9086 32.9065 48.9876 33.458 48.0354C34.993 45.3817 35.2896 42.3794 35.9348 39.4552C36.8766 35.1521 37.9276 30.8646 39.1244 26.6239C39.525 25.2138 40.368 23.8505 41.2681 22.659C43.1205 20.203 45.6909 20.2811 47.5277 22.7526C49.1615 24.9536 49.8484 27.5657 50.634 30.1413C51.862 34.1582 52.0702 38.3417 52.6789 42.4575C53.782 49.9398 54.8539 57.4273 56.9925 64.7067C57.492 66.4082 58.236 68.0368 58.8656 69.6967C59.0061 69.6967 59.1466 69.6967 59.2871 69.6915C59.6253 68.9942 60.0832 68.3282 60.2809 67.5945C61.025 64.8004 61.8107 62.001 62.3623 59.16C63.2624 54.4979 63.788 49.7577 65.3593 45.236C66.1138 43.0715 66.9776 40.9537 68.4813 39.1742C69.6729 37.7589 71.1506 36.7235 73.0706 37.0669C74.1841 37.2646 75.3653 37.7589 76.229 38.4666C77.4258 39.4552 78.5289 40.6623 79.3666 41.9632C80.6466 43.956 81.6508 46.1206 82.8008 48.1967C83.4564 49.383 84.1276 50.559 84.8561 51.6933C85.2515 52.3125 85.8031 52.2865 86.1569 51.6309C86.6616 50.6787 87.2808 49.7369 87.5201 48.7118C88.4515 44.7209 89.3569 40.7144 90.0854 36.6818C91.6307 28.086 93.0096 19.459 94.5758 10.8631C94.9712 8.69335 95.7517 6.59123 96.449 4.4839C96.6883 3.77105 97.1202 3.07901 97.6093 2.50144C98.754 1.14339 100.456 1.12257 101.496 2.55348C102.209 3.5317 102.839 4.68162 103.109 5.84716C104.124 10.2023 105.128 14.5679 105.851 18.975C106.663 23.9338 107.079 28.9601 107.829 33.9345C108.536 38.6174 109.728 43.1911 111.736 47.5047C112.251 48.6078 112.99 49.6328 113.766 50.5798C114.426 51.3863 115.176 51.4175 115.836 50.6318C116.674 49.6328 117.517 48.5453 117.985 47.3486C118.979 44.8094 119.9 42.2597 121.529 40.0379C122.59 38.5862 123.844 37.3583 125.681 36.9472C127.684 36.4997 129.339 37.2646 130.775 38.5758C132.867 40.4958 134.194 42.9258 135.416 45.4442C136.332 47.3225 137.3 49.2009 138.455 50.9388C139.511 52.531 140.235 52.4114 140.989 50.6474C141.681 49.0344 142.087 47.2965 142.847 45.7199C143.721 43.9248 144.761 42.1921 145.88 40.5375C148.784 36.2239 154.164 37.5456 156.563 40.0431C157.832 41.3648 158.649 42.9414 159.138 44.6949C159.58 46.3027 160.262 47.7752 161.584 48.8627C162.843 49.8982 163.582 49.8617 164.721 48.6962C166.22 47.1664 167.13 45.262 167.906 43.3056C168.577 41.6145 169.076 39.8558 169.742 38.1596C170.304 36.7339 170.856 35.2665 171.657 33.9657C173.681 30.672 176.663 30.6928 178.781 33.9293C180.347 36.328 181.002 39.0285 181.533 41.8175C182.043 44.4711 182.917 47.0572 183.724 49.6432C183.958 50.3925 184.437 51.0845 184.915 51.7245C185.727 52.8016 186.445 52.9005 187.387 51.9639C188.074 51.2822 188.667 50.4445 189.104 49.586C190.644 46.5629 191.612 43.3264 192.247 40.0223C193.277 34.6629 194.063 29.2515 195.088 23.8869C195.665 20.8638 196.477 17.8824 197.278 14.9061C197.512 14.0319 197.986 13.1838 198.506 12.4293C199.765 10.603 201.81 10.6134 202.981 12.4918C203.595 13.4752 204.147 14.5783 204.376 15.697C205.317 20.2915 206.27 24.886 206.956 29.5169C208.361 39.0805 209.688 48.6546 212.415 57.9529C213.07 60.1903 214.017 62.36 215.037 64.457C215.818 66.0648 216.385 66.0127 217.269 64.4622C218.679 61.9854 219.361 59.2329 219.777 56.4647C220.532 51.4644 220.969 46.412 221.739 41.4116C222.306 37.7329 223.128 34.0854 223.966 30.4483C224.231 29.3036 224.814 28.1797 225.459 27.1858C226.88 24.99 229.19 24.8496 230.735 26.9621C231.76 28.3618 232.562 29.98 233.191 31.6034C235.044 36.3644 236.048 41.3648 237.172 46.3339C237.703 48.665 238.577 50.9284 239.331 53.2075C239.492 53.6862 239.831 54.1128 240.226 54.8153C240.648 53.9463 241.069 53.3323 241.256 52.6507C241.974 50.0335 242.703 47.4162 243.26 44.7625C244.441 39.1794 245.471 33.5599 246.647 27.9715C247.271 24.9952 248.369 22.1699 249.956 19.563C250.43 18.7825 251.023 18.0333 251.684 17.3985C253.526 15.6449 255.8 15.6345 257.527 17.4973C258.453 18.5015 259.255 19.6983 259.837 20.9367C262.064 25.6665 263.256 30.7032 264.125 35.8337C264.832 40.0067 265.733 44.1485 267.34 48.0822C267.871 49.3778 268.594 50.6266 269.406 51.7766C270.155 52.8328 270.967 52.8692 271.779 51.8546C272.695 50.7099 273.475 49.4299 274.131 48.1238C274.698 46.9999 274.989 45.7459 275.432 44.5544C276.233 42.3794 277.57 40.5843 279.516 39.3095C281.54 37.9826 283.7 37.8838 285.76 39.1274C286.91 39.8194 287.982 40.7248 288.877 41.7238C290.573 43.6178 291.879 45.7459 292.717 48.2071C293.336 50.023 294.273 51.7661 295.261 53.4208C296.011 54.6748 296.593 54.5967 297.363 53.3584C298.784 51.0949 299.335 48.5193 300.043 45.9905C301.047 42.4002 302.036 38.8048 303.202 35.2613C303.602 34.0334 304.377 32.8678 305.205 31.8532C306.781 29.9124 309.144 29.9176 310.538 31.9885C311.574 33.5182 312.422 35.2769 312.921 37.0513C314.815 43.7947 316.517 50.5902 318.338 57.3545C318.645 58.4784 319.155 59.5503 319.602 60.6377C319.753 61.002 320.013 61.3194 320.346 61.8553C320.711 61.1789 321.122 60.6586 321.273 60.0758C321.933 57.573 322.589 55.065 323.114 52.5362C323.911 48.7326 324.54 44.8926 325.368 41.0994C325.664 39.7257 326.268 38.4093 326.871 37.1293C327.241 36.3332 327.792 35.5787 328.406 34.9491C329.702 33.6327 331.497 33.5911 332.808 34.8815C333.547 35.6047 334.25 36.4685 334.64 37.4051C335.623 39.7674 336.372 42.2181 337.309 44.6012C338.084 46.5681 338.839 48.5817 339.895 50.4081C341.003 52.3333 342.039 52.2813 343.277 50.4341C344.75 48.2331 345.733 45.8344 346.259 43.2119C347.19 38.555 348.127 33.8929 349.308 29.288C349.802 27.3523 350.723 25.4479 351.8 23.7517C353.845 20.536 356.827 20.6713 358.856 23.9234C360.38 26.3689 361.265 29.0902 361.801 31.874C362.576 35.8961 363.117 39.9703 363.726 44.0237C364.819 51.2874 365.885 58.5616 367.998 65.6225C368.341 66.7724 368.82 67.8859 369.278 68.9942C369.46 69.4365 369.767 69.8268 370.152 70.4616C370.615 69.4157 371.125 68.6144 371.328 67.7402C372.249 63.7441 373.175 59.748 373.93 55.7206C374.674 51.7401 375.371 47.7492 376.974 44.0081C377.608 42.5199 378.405 41.0422 379.404 39.7726C381.48 37.1085 384.352 36.7703 386.98 38.8932C388.239 39.9027 389.384 41.1619 390.263 42.5095C391.553 44.492 392.558 46.6617 393.697 48.7378C394.316 49.8722 394.894 51.0429 395.627 52.0992C396.231 52.9629 396.715 52.9369 397.199 51.9795C397.86 50.6683 398.552 49.305 398.859 47.8845C399.837 43.3316 400.669 38.7423 401.502 34.1634C403.001 25.9058 404.416 17.6274 405.977 9.38019C406.31 7.61627 407.054 5.9096 407.741 4.22893C408.219 3.04259 409.088 2.04876 410.498 2.07478C411.857 2.10079 412.767 3.0582 413.152 4.23934C414.073 7.07513 415.109 9.92133 415.598 12.8508C416.774 19.9429 417.617 27.087 418.688 34.1947C419.438 39.1534 420.676 43.9976 422.877 48.5453C423.319 49.4455 423.933 50.2936 424.589 51.0585C425.349 51.9535 426.119 51.9951 426.873 51.0897C427.669 50.1375 428.356 49.0552 428.908 47.9365C430.021 45.7043 430.953 43.3837 432.071 41.1619C432.477 40.3605 433.164 39.6581 433.835 39.0285C436.057 36.9368 438.778 36.8119 441.167 38.7059C443.529 40.5843 444.934 43.1599 446.24 45.8136C447.176 47.718 448.123 49.638 449.289 51.4071C450.423 53.119 451.173 52.9785 451.974 51.0585C452.65 49.4351 453.119 47.7284 453.811 46.1154C454.768 43.8988 455.913 41.755 457.713 40.09C458.447 39.4136 459.389 38.9505 460.278 38.4874C460.637 38.3 461.132 38.3 461.553 38.3365C462.313 38.4093 462.828 38.8464 462.896 39.6373C462.963 40.423 462.542 41.011 461.792 41.1254C460.429 41.3336 459.586 42.1973 458.853 43.2119C457.432 45.1788 456.339 47.3069 455.611 49.6328C455.221 50.8608 454.778 52.0992 454.149 53.2231C452.551 56.0901 449.867 56.3815 447.593 53.9879C445.798 52.094 444.778 49.7317 443.669 47.4162C442.889 45.7772 441.947 44.211 440.938 42.6968C440.438 41.9475 439.694 41.3232 438.96 40.7768C438.019 40.0848 437.113 40.116 436.229 40.8861C435.542 41.4845 434.829 42.1661 434.418 42.9622C433.435 44.877 432.545 46.849 431.764 48.8523C431.114 50.5382 430.214 52.0159 428.913 53.2387C426.821 55.2159 424.339 55.2211 422.456 53.0618C421.342 51.7818 420.39 50.2624 419.713 48.7066C417.414 43.4357 416.108 37.8942 415.462 32.181C414.604 24.605 413.698 17.029 411.898 9.60393C411.57 8.23026 411.081 6.89822 410.66 5.54537C410.561 5.53496 410.462 5.52455 410.358 5.50894C410.197 5.87317 409.978 6.22179 409.884 6.60163C408.943 10.4677 407.834 14.3025 407.132 18.2102C405.633 26.5302 404.431 34.9075 402.933 43.2328C402.402 46.1882 401.429 49.076 400.534 51.9587C400.269 52.812 399.696 53.6185 399.114 54.321C397.704 56.0224 395.586 56.2566 394.077 54.654C392.917 53.4208 392.068 51.8702 391.215 50.3873C390.19 48.5973 389.389 46.6773 388.332 44.9082C387.64 43.7531 386.756 42.6812 385.804 41.7238C384.019 39.9235 382.484 40.0327 381.225 42.2389C380.148 44.1225 379.175 46.157 378.649 48.2435C377.64 52.2188 377.062 56.2982 376.162 60.2943C375.423 63.5672 374.523 66.8088 373.581 70.0297C373.331 70.8778 372.743 71.6947 372.145 72.3712C370.99 73.6772 369.32 73.7344 368.144 72.444C367.374 71.5959 366.64 70.5708 366.302 69.4937C365.162 65.8462 363.929 62.1935 363.242 58.4524C361.905 51.199 360.916 43.8884 359.792 36.5986C359.236 33.0135 358.351 29.5169 356.764 26.2388C356.436 25.552 355.786 25.0265 355.281 24.4229C354.75 25.0005 354.1 25.5104 353.715 26.1712C352.123 28.8769 351.566 31.9416 350.905 34.9543C350.198 38.1752 349.714 41.448 348.975 44.6689C348.288 47.6347 347.122 50.4393 345.145 52.812C342.929 55.4761 340.207 55.4605 337.98 52.8068C336.19 50.6839 335.306 48.1134 334.468 45.5118C333.714 43.1703 332.85 40.8549 331.929 38.5706C331.684 37.967 331.06 37.5196 330.607 37.0044C330.207 37.53 329.624 38.0035 329.431 38.6018C328.651 40.9953 327.844 43.4045 327.308 45.8604C326.372 50.1687 325.69 54.5343 324.774 58.8478C324.488 60.1851 323.931 61.5119 323.255 62.7087C321.694 65.4716 319.03 65.5184 317.464 62.7711C316.558 61.1789 315.845 59.4202 315.356 57.6563C313.546 51.0793 311.87 44.4659 310.127 37.8734C309.7 36.2604 309.123 34.7098 307.806 33.2789C307.354 33.8981 306.901 34.3872 306.589 34.9595C305.096 37.6965 304.367 40.6988 303.571 43.6802C302.749 46.745 301.922 49.8149 300.922 52.8276C300.548 53.9619 299.809 55.0442 299.023 55.9704C297.535 57.7083 295.464 57.7395 293.778 56.1889C292.233 54.7684 291.406 52.9005 290.584 51.0221C289.798 49.2217 289.147 47.3382 288.138 45.6627C287.347 44.3411 286.213 43.1599 285.037 42.1453C283.439 40.7768 281.811 40.9537 280.297 42.4263C279.266 43.4305 278.496 44.5908 278.054 45.9957C277.279 48.5037 276.389 50.97 274.703 53.067C271.982 56.4543 268.797 56.3398 266.388 52.7131C264.447 49.7837 263.459 46.4536 262.673 43.0819C261.716 38.9661 261.065 34.7774 260.019 30.6824C259.26 27.7114 258.12 24.8235 257.043 21.9357C256.731 21.098 256.112 20.3383 255.519 19.6411C254.863 18.8814 254.291 18.8554 253.64 19.6255C252.896 20.5204 252.23 21.5038 251.694 22.5393C250.19 25.4479 249.504 28.6115 248.879 31.8011C247.63 38.1596 246.304 44.5024 244.935 50.84C244.639 52.2136 244.056 53.5353 243.52 54.8465C243.265 55.4605 242.869 56.0432 242.427 56.5532C241.152 58.0257 239.347 58.0933 238.082 56.6208C237.375 55.7883 236.704 54.8101 236.386 53.785C235.361 50.4601 234.529 47.0728 233.576 43.7271C232.421 39.6633 231.261 35.5995 230.002 31.5722C229.663 30.4847 228.951 29.5117 228.409 28.4919C228.29 28.4919 228.16 28.4919 228.035 28.4919C227.671 29.2411 227.171 29.9592 226.968 30.7553C226.266 33.5026 225.49 36.2447 225.074 39.0441C224.377 43.7115 223.976 48.4204 223.368 53.1034C222.889 56.8133 222.145 60.4764 220.766 63.9731C220.365 64.9981 219.824 65.9971 219.174 66.8817C217.431 69.2336 214.969 69.296 213.216 66.9701C212.321 65.7734 211.603 64.3997 211.036 63.0156C209.079 58.2182 207.903 53.1814 207.034 48.103C205.666 40.168 204.558 32.1862 203.226 24.2408C202.736 21.3269 201.93 18.4703 201.254 15.5877C201.17 15.2391 200.983 14.9061 200.754 14.3493C200.478 14.9373 200.202 15.3327 200.098 15.7698C199.271 19.2456 198.298 22.7058 197.705 26.2232C196.706 32.1862 195.998 38.2116 194.276 44.0289C193.579 46.386 192.653 48.6858 191.721 50.97C191.081 52.5362 190.04 53.8527 188.578 54.7841C186.747 55.9496 184.718 55.8247 183.245 54.2325C182.381 53.2959 181.653 52.1668 181.112 51.0169C179.566 47.7492 178.864 44.2266 178.307 40.6832C177.984 38.6591 177.204 36.8327 176.028 35.1729C175.404 34.2831 174.972 34.2519 174.436 35.1677C173.692 36.4321 173.088 37.7953 172.526 39.1534C171.335 41.9944 170.33 44.9186 169.009 47.6972C168.379 49.024 167.328 50.226 166.246 51.2562C164.508 52.9161 162.697 52.9993 160.637 51.7713C158.311 50.3821 157.145 48.1863 156.334 45.7147C156.016 44.7313 155.59 43.7531 155.054 42.8633C153.961 41.063 152.176 40.5583 150.225 40.7976C149.611 40.8757 148.971 41.4741 148.523 41.984C146.796 43.9664 145.656 46.2871 144.803 48.7586C144.371 50.0126 143.986 51.2979 143.367 52.4582C141.692 55.601 138.96 55.9028 136.54 53.2699C134.792 51.3759 133.819 49.0292 132.711 46.745C131.889 45.0643 130.968 43.3889 129.838 41.9007C127.596 38.9557 125.582 39.0337 123.652 42.2129C122.497 44.1225 121.675 46.2507 120.847 48.3372C120.15 50.1011 119.198 51.6621 117.772 52.9005C115.831 54.5863 113.526 54.6384 111.799 52.7392C110.555 51.3707 109.494 49.7265 108.755 48.0354C106.34 42.5043 105.097 36.6662 104.436 30.672C103.619 23.2834 102.688 15.8947 100.898 8.65693C100.658 7.69953 100.32 6.76814 100.008 5.83155C99.9144 5.54537 99.7635 5.28 99.5189 4.75447C99.1859 5.57659 98.8373 6.18537 98.6916 6.83578C97.6665 11.347 96.5478 15.8427 95.7257 20.3903C94.2376 28.6532 92.9836 36.9576 91.5163 45.2204C91.152 47.2705 90.3976 49.2582 89.7107 51.2406C89.4193 52.0679 88.9198 52.8536 88.3839 53.5561C86.8593 55.5437 84.5074 55.7675 82.8944 53.8527C81.6977 52.4374 80.9068 50.6891 79.9598 49.0708C78.7006 46.9167 77.5246 44.7105 76.1926 42.6084C75.6723 41.7967 74.8814 41.1202 74.1061 40.5218C72.9353 39.6269 71.9311 39.6893 71.0049 40.8288C70.214 41.8019 69.5272 42.8945 69.0173 44.0341C67.3158 47.8481 66.6237 51.9274 65.8849 56.0068C65.1824 59.8573 64.3239 63.6817 63.4185 67.4905C63.1375 68.6716 62.5912 69.8267 61.972 70.883C60.4943 73.391 58.0331 73.5211 56.5294 71.0495C55.5095 69.3845 54.7759 67.5061 54.1983 65.6329C52.3824 59.748 51.3833 53.681 50.4623 47.6087C49.7963 43.2119 49.3905 38.7735 48.5735 34.408C48.0532 31.6398 47.0282 28.9601 46.1384 26.2701C45.8939 25.5312 45.3475 24.8808 44.8948 24.22C44.5878 23.7725 44.1612 23.7465 43.8282 24.1939C43.3494 24.8391 42.8551 25.4844 42.4909 26.1868C40.9663 29.1683 40.4356 32.4516 39.7071 35.6672C39.1036 38.3469 38.6925 41.0682 38.1306 43.7531C37.501 46.7866 36.3094 49.6016 34.4154 52.0523C32.1208 55.0234 29.1341 54.961 26.829 51.9795C25.2732 49.9658 24.4199 47.6191 23.6342 45.2308C22.8277 42.7749 21.9275 40.3449 20.9753 37.941C20.7464 37.3687 20.1324 36.9472 19.7005 36.4529C19.3103 36.9524 18.7483 37.3999 18.561 37.967C17.7701 40.3918 16.948 42.8217 16.4016 45.3089C15.4234 49.7681 14.6846 54.2741 13.7323 58.7385C13.4774 59.9509 12.9206 61.1477 12.3014 62.2352C10.7925 64.8836 8.10239 64.9565 6.60905 62.308C5.65165 60.6065 4.88676 58.7385 4.36123 56.855C2.58171 50.3977 0.947877 43.904 -0.758801 37.4259C-1.19067 35.7869 -1.75263 34.1947 -3.11069 32.7325C-3.59459 33.3986 -4.15655 33.9241 -4.39069 34.5641C-5.38972 37.249 -6.36794 39.9443 -7.20567 42.6812C-8.0486 45.4494 -8.63658 48.306 -9.50552 51.0637C-9.92699 52.3957 -10.5982 53.707 -11.4099 54.8465C-13.1634 57.3233 -15.6454 57.3961 -17.6539 55.1171C-19.4282 53.0982 -20.3336 50.6214 -21.1921 48.1343C-22.0767 45.5898 -23.6012 43.4773 -25.6409 41.755C-27.4621 40.2097 -29.2208 40.2877 -30.787 42.088C-31.6559 43.0871 -32.3636 44.3046 -32.8423 45.5378C-33.7632 47.9313 -34.5177 50.3873 -36.1463 52.4374C-38.9509 55.9548 -42.1926 55.8091 -44.6277 52.0159C-46.4384 49.1957 -47.4219 46.0269 -48.1711 42.8113C-49.0349 39.1118 -49.6489 35.3654 -50.4866 31.6659C-51.2931 28.0808 -52.2401 24.5217 -53.9416 21.2281C-54.3578 20.4164 -54.9406 19.6775 -55.5234 18.9646C-55.9969 18.3923 -56.6213 18.3975 -57.1416 18.9334C-57.5891 19.4017 -58.047 19.8804 -58.3748 20.4268C-59.8525 22.8827 -60.8724 25.5364 -61.4499 28.3306C-62.9433 35.5579 -64.3742 42.7905 -65.9091 50.0074C-66.2057 51.4227 -66.7937 52.7756 -67.314 54.1336C-67.5326 54.7008 -67.8812 55.2367 -68.2506 55.7258C-69.6555 57.5678 -71.7368 57.6667 -73.0689 55.7779C-73.9846 54.4927 -74.7599 53.0097 -75.1918 51.5008C-76.3105 47.5567 -77.1378 43.5293 -78.2097 39.5749C-78.9954 36.687 -79.932 33.8408 -80.9102 31.0154C-81.29 29.9332 -81.9717 28.9601 -82.518 27.9351C-82.6637 27.9455 -82.8094 27.9507 -82.9551 27.9611L-82.9291 27.9507Z" fill="#3E6B7F"/>
</g>
</g>
</svg>
