<svg width="455" height="76" viewBox="0 0 455 76" fill="none" xmlns="http://www.w3.org/2000/svg">
<mask id="mask0_355_99990" style="mask-type:luminance" maskUnits="userSpaceOnUse" x="0" y="0" width="455" height="76">
<path d="M454.672 0.582581H0.445557V75.1769H454.672V0.582581Z" fill="white"/>
</mask>
<g mask="url(#mask0_355_99990)">
<mask id="mask1_355_99990" style="mask-type:luminance" maskUnits="userSpaceOnUse" x="1" y="1" width="454" height="73">
<path d="M1.77759 1.35266H454.672V73.2465H1.77759V1.35266Z" fill="white"/>
</mask>
<g mask="url(#mask1_355_99990)">
<path d="M80.2744 27.8271C79.8738 28.7481 79.3066 29.6326 79.0985 30.5952C78.2816 34.3884 77.4491 38.192 76.8507 42.0268C76.065 47.0844 75.5915 52.1941 74.785 57.2464C74.4416 59.3902 73.6871 61.4871 72.9534 63.5476C72.5788 64.5987 71.9492 65.6133 71.2363 66.4823C69.6129 68.4699 67.3651 68.548 65.7729 66.5499C64.7322 65.2439 63.8997 63.7089 63.2753 62.1531C61.1732 56.9134 59.9816 51.4084 59.0346 45.8721C57.7963 38.6291 56.8284 31.3445 55.6213 24.0963C55.1166 21.0628 54.3153 18.0761 53.6232 15.0686C53.5296 14.6419 53.2902 14.2465 53.1185 13.8354C53.03 13.8354 52.9468 13.8302 52.8583 13.825C52.4733 14.9489 51.953 16.0416 51.7292 17.1864C50.8082 21.9109 49.9289 26.6407 49.1224 31.3861C48.1598 37.0213 47.1295 42.6356 45.0534 47.995C44.6528 49.0253 44.148 50.0191 43.6537 51.0129C43.4352 51.4552 43.1542 51.8714 42.8576 52.2617C40.1051 55.8624 36.494 55.7011 34.1733 51.8194C32.4875 48.994 31.7694 45.82 31.0722 42.6512C30.6559 40.7572 30.224 38.8684 29.7089 37.0057C29.5268 36.3344 29.1313 35.71 28.7619 35.1013C27.7577 33.4362 27.2165 33.4154 26.2695 35.1533C25.6504 36.2772 25.156 37.4948 24.7502 38.7175C23.7043 41.8916 22.6897 45.076 20.8217 47.8805C20.0776 48.994 19.1514 50.0399 18.1212 50.8984C16.6643 52.1212 14.9888 52.2305 13.2717 51.2731C10.8366 49.9202 9.55139 47.7452 8.70325 45.2112C8.35463 44.1654 7.93316 43.1195 7.3608 42.1829C6.51787 40.8145 5.23266 40.0808 3.5572 40.0808C2.49573 40.0808 1.84532 39.5032 1.84012 38.6603C1.82451 37.8382 2.48012 37.1878 3.51558 37.1566C5.83624 37.0889 7.82389 37.9631 9.19756 39.7842C10.1133 40.9914 10.795 42.4171 11.3465 43.8376C11.9345 45.3465 12.434 46.8659 13.6724 47.9898C15.0721 49.2594 16.0503 49.2958 17.1846 47.8077C18.2409 46.4184 19.1723 44.8938 19.8903 43.3068C20.7801 41.3452 21.3368 39.2379 22.1381 37.2346C22.7053 35.8037 23.2777 34.3416 24.1154 33.0668C26.077 30.0645 28.8972 30.0593 30.9109 33.0147C32.2481 34.966 33.0806 37.1357 33.5385 39.4824C34.0953 42.2922 34.8029 45.076 35.5782 47.8337C35.8748 48.8796 36.4576 49.8786 37.0508 50.8048C37.9509 52.1941 38.8459 52.2877 39.9594 51.0441C40.667 50.2584 41.3279 49.3218 41.6765 48.3332C42.7588 45.2529 43.9295 42.1673 44.6111 38.9881C45.6934 33.9565 46.323 28.8261 47.3064 23.7685C47.9412 20.4748 48.805 17.2176 49.6895 13.9811C49.9497 13.0341 50.5325 12.1131 51.1621 11.3431C52.2339 10.0422 53.8678 10.0631 54.9396 11.3587C55.4964 12.0351 55.9335 12.8624 56.2457 13.6845C57.6662 17.4673 58.275 21.4426 58.8161 25.4179C60.0233 34.2583 61.1992 43.1039 63.2909 51.7934C64.087 55.1131 65.1849 58.3704 66.2464 61.6224C66.5638 62.5954 67.1674 63.506 67.7449 64.3697C68.2965 65.1867 68.6607 65.1815 69.1914 64.3281C69.7274 63.4748 70.2165 62.559 70.5495 61.612C72.225 56.8198 72.8962 51.8402 73.3437 46.8191C73.812 41.6158 74.4208 36.4333 75.7736 31.3809C76.1639 29.9292 76.6686 28.4723 77.3658 27.1454C78.9632 24.1119 81.7366 23.9142 83.4641 26.8541C84.7753 29.0863 85.8055 31.563 86.534 34.0554C87.8296 38.4938 88.761 43.0363 89.9265 47.5163C90.3584 49.1814 90.988 50.7944 91.5812 52.4178C91.7633 52.9225 92.1067 53.3752 92.523 54.0985C92.9444 53.2555 93.3659 52.6467 93.5584 51.9755C94.188 49.7849 94.828 47.5839 95.2963 45.3569C96.5607 39.3159 97.7003 33.2489 98.9699 27.2079C99.6047 24.2004 100.718 21.349 102.352 18.7317C102.805 18.0033 103.356 17.306 103.975 16.7181C105.833 14.9593 108.076 14.9437 109.819 16.8065C110.755 17.8055 111.551 19.0023 112.134 20.2407C114.268 24.7675 115.464 29.5858 116.312 34.4977C117.098 39.0974 118.035 43.6711 119.887 47.9794C120.381 49.1293 121.073 50.2168 121.828 51.221C122.489 52.1004 123.259 52.1524 123.935 51.2991C124.898 50.0763 125.736 48.7339 126.464 47.355C126.995 46.356 127.276 45.2269 127.635 44.1446C128.368 41.928 129.685 40.1276 131.579 38.7852C133.598 37.3491 135.83 37.1045 137.958 38.4053C139.285 39.2171 140.492 40.2941 141.528 41.4545C143.089 43.2184 144.228 45.2477 145.024 47.5111C145.669 49.3531 146.616 51.117 147.621 52.8028C148.318 53.9684 148.864 53.8955 149.608 52.7456C151.018 50.581 151.565 48.0991 152.246 45.6639C153.282 41.98 154.286 38.2909 155.457 34.6538C155.842 33.4518 156.581 32.3071 157.372 31.3029C159.021 29.1955 161.388 29.2736 162.996 31.4225C164.24 33.0772 164.911 34.9972 165.426 36.9849C167.138 43.5514 168.855 50.1231 170.645 56.6689C171.056 58.1622 171.774 59.5723 172.352 61.024C172.482 61.024 172.612 61.0292 172.742 61.0292C173.039 60.4517 173.455 59.9053 173.606 59.2965C174.345 56.3359 175.057 53.3648 175.697 50.3833C176.483 46.7358 177.082 43.0467 177.982 39.4304C178.356 37.911 179.121 36.4125 179.995 35.0961C181.634 32.6401 184.075 32.6453 185.886 34.992C187.54 37.1357 188.274 39.7114 189.112 42.2298C189.752 44.1602 190.36 46.1114 191.151 47.9794C191.557 48.9524 192.286 49.8057 192.952 50.6435C193.498 51.3303 194.242 51.3147 194.783 50.6435C195.475 49.7849 196.105 48.864 196.662 47.9065C198.191 45.2529 198.493 42.2506 199.133 39.3315C200.08 35.0232 201.131 30.7357 202.328 26.5002C202.729 25.0849 203.571 23.7269 204.466 22.5353C206.319 20.0742 208.894 20.1522 210.726 22.6238C212.36 24.83 213.052 27.442 213.832 30.0125C215.06 34.0294 215.268 38.2128 215.877 42.3286C216.986 49.811 218.052 57.3037 220.191 64.5831C220.696 66.2793 221.434 67.908 222.064 69.573C222.21 69.573 222.35 69.573 222.491 69.5678C222.824 68.8706 223.282 68.2046 223.479 67.4709C224.229 64.6715 225.014 61.8722 225.561 59.0312C226.461 54.369 226.991 49.6288 228.563 45.1124C229.317 42.9426 230.176 40.8301 231.68 39.0454C232.876 37.6301 234.354 36.5946 236.274 36.938C237.382 37.1357 238.564 37.6301 239.427 38.3429C240.629 39.3263 241.727 40.5335 242.57 41.8395C243.85 43.8272 244.854 45.9917 246.004 48.0731C246.655 49.2542 247.326 50.4301 248.054 51.5645C248.45 52.1836 249.007 52.1576 249.355 51.502C249.865 50.555 250.484 49.608 250.718 48.583C251.655 44.5921 252.56 40.5907 253.284 36.553C254.834 27.9572 256.213 19.3301 257.774 10.7395C258.17 8.56971 258.955 6.46238 259.653 4.35505C259.887 3.6422 260.324 2.95016 260.813 2.3726C261.952 1.01454 263.659 0.993728 264.694 2.42463C265.407 3.40805 266.037 4.55278 266.313 5.71831C267.327 10.0735 268.326 14.439 269.05 18.8462C269.861 23.8101 270.283 28.8365 271.027 33.8108C271.735 38.4886 272.926 43.0675 274.94 47.3758C275.455 48.4789 276.194 49.504 276.969 50.451C277.625 51.2575 278.374 51.2939 279.035 50.503C279.878 49.504 280.721 48.4165 281.189 47.2197C282.183 44.6857 283.099 42.1309 284.727 39.9091C285.789 38.4574 287.043 37.2346 288.879 36.8236C290.888 36.3709 292.542 37.1357 293.979 38.4522C296.07 40.367 297.392 42.8021 298.62 45.3153C299.536 47.1989 300.498 49.0721 301.653 50.81C302.715 52.4022 303.433 52.2825 304.193 50.5186C304.879 48.9056 305.285 47.1677 306.05 45.5911C306.919 43.796 307.965 42.0685 309.079 40.4086C311.987 36.0951 317.362 37.4219 319.761 39.9143C321.036 41.2411 321.853 42.8177 322.336 44.5712C322.784 46.1739 323.466 47.6516 324.787 48.7339C326.041 49.7693 326.785 49.7329 327.92 48.5674C329.423 47.0376 330.334 45.1332 331.104 43.1768C331.775 41.4857 332.28 39.727 332.946 38.0359C333.508 36.605 334.059 35.1377 334.856 33.8369C336.88 30.5484 339.861 30.564 341.979 33.8056C343.55 36.2044 344.201 38.8997 344.737 41.6938C345.241 44.3423 346.121 46.9283 346.922 49.5196C347.156 50.2636 347.635 50.9609 348.114 51.5957C348.925 52.6728 349.643 52.7768 350.59 51.835C351.277 51.1534 351.865 50.3209 352.307 49.4571C353.842 46.434 354.815 43.1976 355.45 39.8987C356.48 34.5341 357.261 29.1227 358.286 23.7633C358.869 20.735 359.68 17.7535 360.482 14.7772C360.716 13.9031 361.184 13.0549 361.705 12.3057C362.964 10.4741 365.009 10.4845 366.179 12.3681C366.793 13.3463 367.345 14.4494 367.574 15.5733C368.516 20.1626 369.473 24.7571 370.155 29.3933C371.565 38.9517 372.886 48.5257 375.613 57.8292C376.269 60.0614 377.216 62.2312 378.241 64.3333C379.021 65.9359 379.588 65.8839 380.468 64.3385C381.883 61.8566 382.565 59.104 382.981 56.3359C383.735 51.3355 384.172 46.2831 384.937 41.288C385.504 37.604 386.327 33.9565 387.169 30.3246C387.435 29.1799 388.012 28.056 388.658 27.057C390.078 24.8612 392.388 24.7259 393.939 26.8332C394.964 28.2329 395.76 29.8511 396.39 31.4746C398.242 36.2408 399.251 41.2359 400.375 46.2051C400.901 48.5413 401.775 50.7996 402.535 53.0786C402.696 53.5625 403.029 53.984 403.43 54.6864C403.851 53.8175 404.273 53.2035 404.46 52.5219C405.173 49.9046 405.901 47.2874 406.463 44.6389C407.639 39.0506 408.669 33.431 409.845 27.8427C410.47 24.8716 411.568 22.0462 413.155 19.4394C413.633 18.6537 414.221 17.9044 414.882 17.2748C416.724 15.5161 418.998 15.5109 420.725 17.3737C421.657 18.3779 422.453 19.5695 423.036 20.8078C425.263 25.5376 426.459 30.5744 427.328 35.71C428.036 39.8831 428.931 44.0197 430.539 47.9534C431.07 49.2542 431.798 50.503 432.61 51.6477C433.359 52.7092 434.166 52.7456 434.977 51.7258C435.893 50.581 436.674 49.3062 437.334 47.995C437.896 46.8711 438.193 45.6171 438.63 44.4308C439.436 42.2506 440.768 40.4554 442.72 39.1806C444.739 37.859 446.898 37.7601 448.964 38.9985C450.108 39.6906 451.18 40.5959 452.075 41.595C453.777 43.489 455.083 45.6223 455.915 48.0783C456.534 49.8994 457.476 51.6373 458.465 53.2971C459.209 54.5459 459.792 54.4679 460.567 53.2295C461.982 50.9713 462.534 48.3905 463.241 45.8617C464.246 42.2714 465.234 38.6759 466.4 35.1325C466.801 33.9097 467.576 32.7442 468.403 31.7295C469.98 29.7887 472.342 29.7939 473.742 31.8596C474.777 33.3894 475.62 35.1481 476.12 36.9276C478.014 43.6659 479.72 50.4666 481.541 57.2308C481.843 58.3547 482.353 59.4266 482.806 60.5089C482.957 60.8731 483.217 61.1905 483.55 61.7317C483.914 61.05 484.32 60.5349 484.476 59.9522C485.137 57.4494 485.787 54.9362 486.318 52.4074C487.109 48.6038 487.739 44.7638 488.566 40.9706C488.868 39.6021 489.466 38.2805 490.07 37.0005C490.444 36.2096 490.991 35.4499 491.61 34.8203C492.905 33.5091 494.701 33.4622 496.012 34.7526C496.745 35.4759 497.453 36.3396 497.843 37.2814C498.827 39.6385 499.571 42.0945 500.507 44.4724C501.283 46.4444 502.037 48.4529 503.093 50.2792C504.207 52.2045 505.242 52.1524 506.481 50.3053C507.953 48.1095 508.937 45.7056 509.457 43.0883C510.388 38.4262 511.325 33.764 512.506 29.1643C513.006 27.2287 513.921 25.3191 514.999 23.6228C517.043 20.4072 520.03 20.5425 522.054 23.7945C523.579 26.2401 524.463 28.9614 524.999 31.7451C525.775 35.7725 526.316 39.8415 526.925 43.8948C528.022 51.1638 529.089 58.4328 531.202 65.4936C531.54 66.6436 532.019 67.7571 532.476 68.8654C532.664 69.3077 532.971 69.6979 533.356 70.3327C533.819 69.2868 534.329 68.4855 534.527 67.6166C535.453 63.6205 536.379 59.6243 537.133 55.5918C537.877 51.6113 538.575 47.6256 540.172 43.8792C540.807 42.3911 541.608 40.9133 542.602 39.6437C544.683 36.9849 547.556 36.6466 550.183 38.7644C551.437 39.779 552.582 41.033 553.461 42.3807C554.752 44.3631 555.756 46.5329 556.895 48.6142C557.515 49.7485 558.092 50.914 558.826 51.9703C559.429 52.8393 559.913 52.808 560.397 51.8506C561.058 50.5394 561.755 49.1761 562.062 47.7557C563.035 43.2028 563.868 38.6187 564.7 34.0346C566.199 25.777 567.614 17.5038 569.175 9.25655C569.513 7.48743 570.252 5.78595 570.939 4.10529C571.423 2.91894 572.287 1.91991 573.702 1.94593C575.055 1.97715 575.971 2.93455 576.356 4.1105C577.277 6.95149 578.312 9.79248 578.796 12.7219C579.977 19.814 580.82 26.9581 581.892 34.071C582.641 39.0297 583.874 43.874 586.081 48.4165C586.518 49.3218 587.132 50.1648 587.787 50.9297C588.552 51.8246 589.317 51.8662 590.072 50.9661C590.873 50.0087 591.555 48.9264 592.111 47.8129C593.22 45.5807 594.151 43.26 595.275 41.033C595.681 40.2317 596.368 39.5345 597.039 38.8997C599.261 36.8079 601.977 36.6831 604.365 38.5823C606.733 40.4606 608.132 43.0363 609.438 45.6847C610.375 47.5891 611.322 49.5144 612.493 51.2783C613.622 52.9902 614.376 52.8549 615.177 50.9297C615.849 49.3114 616.322 47.6048 617.014 45.9917C617.966 43.7699 619.111 41.6262 620.917 39.9611C621.645 39.2899 622.587 38.8268 623.482 38.3585C623.836 38.1764 624.335 38.1712 624.751 38.2076C625.511 38.2805 626.026 38.7227 626.094 39.5084C626.162 40.2993 625.745 40.8821 624.991 40.9966C623.633 41.2047 622.79 42.0685 622.051 43.0831C620.63 45.0499 619.543 47.1781 618.809 49.504C618.424 50.7319 617.977 51.9755 617.352 53.0942C615.75 55.9612 613.07 56.2578 610.796 53.8591C608.996 51.9651 607.976 49.608 606.868 47.2874C606.087 45.6535 605.145 44.0821 604.141 42.5732C603.642 41.8239 602.898 41.1943 602.159 40.6532C601.222 39.9559 600.312 39.9924 599.432 40.7572C598.74 41.3556 598.027 42.0372 597.622 42.8333C596.633 44.7482 595.743 46.7202 594.968 48.7287C594.317 50.4093 593.412 51.8871 592.116 53.1098C590.02 55.0871 587.543 55.0975 585.659 52.9381C584.54 51.6529 583.593 50.1388 582.912 48.5778C580.617 43.3068 579.311 37.7653 578.661 32.0521C577.802 24.4814 576.897 16.9054 575.102 9.47508C574.769 8.10662 574.28 6.76937 573.863 5.42172C573.764 5.40611 573.66 5.39571 573.562 5.3801C573.4 5.74433 573.177 6.09815 573.083 6.47799C572.141 10.3388 571.033 14.1736 570.33 18.0813C568.832 26.4066 567.635 34.7787 566.136 43.1039C565.606 46.0646 564.628 48.9472 563.738 51.8298C563.472 52.6832 562.9 53.4897 562.317 54.1973C560.902 55.8988 558.784 56.1277 557.28 54.5303C556.115 53.2919 555.267 51.7466 554.413 50.2584C553.388 48.4685 552.587 46.5485 551.531 44.7794C550.844 43.6242 549.954 42.5524 549.007 41.595C547.217 39.7946 545.688 39.9091 544.423 42.1153C543.346 43.9989 542.378 46.0282 541.848 48.1199C540.843 52.09 540.266 56.1694 539.366 60.1655C538.627 63.4436 537.727 66.68 536.78 69.9008C536.53 70.7542 535.947 71.5659 535.343 72.2423C534.188 73.5483 532.518 73.6108 531.347 72.3204C530.572 71.467 529.838 70.442 529.505 69.3649C528.366 65.7174 527.127 62.0699 526.441 58.3235C525.109 51.0753 524.12 43.7595 522.991 36.4697C522.434 32.8847 521.555 29.3881 519.968 26.11C519.635 25.4284 518.984 24.8976 518.48 24.2992C517.949 24.8768 517.304 25.3815 516.913 26.0423C515.326 28.7533 514.764 31.8128 514.104 34.8255C513.396 38.0515 512.912 41.3244 512.173 44.54C511.492 47.5059 510.321 50.3157 508.349 52.6832C506.132 55.3524 503.411 55.3316 501.179 52.6832C499.394 50.555 498.504 47.9898 497.666 45.3882C496.912 43.0415 496.048 40.7312 495.127 38.4418C494.888 37.8434 494.258 37.3907 493.806 36.8756C493.405 37.4063 492.827 37.8746 492.635 38.473C491.849 40.8717 491.043 43.2756 490.512 45.7316C489.575 50.0451 488.888 54.4054 487.973 58.7242C487.687 60.0562 487.135 61.3883 486.453 62.5798C484.892 65.3428 482.228 65.3948 480.662 62.6475C479.757 61.05 479.044 59.2965 478.555 57.5274C476.744 50.9505 475.069 44.3423 473.331 37.7497C472.904 36.1367 472.326 34.5861 471.01 33.15C470.552 33.7744 470.099 34.2635 469.792 34.8307C468.294 37.5676 467.571 40.5699 466.769 43.5514C465.947 46.6213 465.125 49.6861 464.126 52.6988C463.746 53.8383 463.007 54.9154 462.222 55.8416C460.734 57.5795 458.668 57.6107 456.977 56.0601C455.431 54.6396 454.604 52.7716 453.787 50.8984C452.996 49.0929 452.346 47.2093 451.342 45.5391C450.545 44.2174 449.416 43.0311 448.235 42.0216C446.638 40.648 445.009 40.8249 443.5 42.2974C442.47 43.3016 441.695 44.462 441.258 45.8669C440.477 48.3748 439.593 50.8464 437.907 52.9381C435.18 56.3255 431.996 56.2162 429.592 52.5843C427.646 49.6549 426.657 46.3247 425.871 42.953C424.914 38.8372 424.269 34.6486 423.223 30.5588C422.463 27.5825 421.319 24.6947 420.247 21.8121C419.929 20.9691 419.315 20.2095 418.717 19.5122C418.067 18.7525 417.489 18.7265 416.839 19.5018C416.095 20.3916 415.428 21.3802 414.898 22.4105C413.389 25.3191 412.707 28.4827 412.078 31.6723C410.829 38.0307 409.507 44.3787 408.133 50.7111C407.837 52.0848 407.254 53.4064 406.718 54.7176C406.463 55.3316 406.068 55.9196 405.631 56.4243C404.356 57.9021 402.545 57.9645 401.281 56.492C400.573 55.6646 399.902 54.6864 399.584 53.6562C398.559 50.3313 397.727 46.9491 396.775 43.5982C395.62 39.5345 394.464 35.4759 393.205 31.4434C392.862 30.3559 392.154 29.3881 391.613 28.363C391.488 28.363 391.363 28.363 391.238 28.363C390.874 29.1123 390.369 29.8303 390.167 30.6264C389.464 33.3738 388.694 36.1211 388.273 38.9153C387.575 43.5826 387.175 48.2968 386.571 52.9745C386.087 56.6845 385.343 60.3528 383.969 63.8494C383.564 64.8693 383.028 65.8735 382.372 66.7528C380.634 69.1047 378.168 69.1672 376.419 66.8413C375.519 65.6497 374.801 64.2761 374.234 62.8868C372.283 58.0894 371.107 53.0578 370.233 47.9794C368.864 40.0392 367.756 32.0573 366.424 24.1171C365.935 21.2033 365.128 18.3415 364.452 15.4641C364.369 15.1102 364.181 14.7824 363.952 14.2205C363.677 14.8085 363.406 15.2039 363.302 15.641C362.469 19.122 361.496 22.577 360.908 26.0944C359.909 32.0625 359.202 38.0827 357.474 43.9C356.777 46.2623 355.851 48.5622 354.919 50.8412C354.285 52.4074 353.244 53.7238 351.782 54.6552C349.95 55.8207 347.921 55.6959 346.449 54.1037C345.585 53.1671 344.856 52.0432 344.31 50.888C342.77 47.6204 342.067 44.0977 341.505 40.5543C341.188 38.5302 340.402 36.7039 339.232 35.044C338.607 34.1595 338.175 34.123 337.639 35.0388C336.895 36.3084 336.292 37.6665 335.725 39.0245C334.538 41.8655 333.529 44.7898 332.212 47.5683C331.583 48.9004 330.526 50.0971 329.449 51.1274C327.711 52.7872 325.901 52.8705 323.835 51.6425C321.514 50.2584 320.344 48.0626 319.537 45.5859C319.215 44.6025 318.788 43.6242 318.252 42.7397C317.164 40.9393 315.38 40.4294 313.423 40.674C312.814 40.7468 312.174 41.3452 311.727 41.8551C310 43.8428 308.855 46.1634 308.001 48.635C307.57 49.8838 307.185 51.1742 306.565 52.3345C304.895 55.4721 302.158 55.7739 299.739 53.1463C297.996 51.2471 297.023 48.9004 295.909 46.6213C295.092 44.9355 294.171 43.26 293.042 41.7771C290.799 38.8268 288.781 38.9049 286.85 42.0893C285.695 43.9989 284.873 46.1218 284.046 48.2135C283.348 49.9775 282.396 51.5332 280.97 52.7716C279.03 54.4575 276.724 54.5095 274.997 52.6103C273.753 51.2471 272.697 49.6028 271.958 47.9065C269.544 42.3755 268.295 36.5426 267.634 30.5484C266.817 23.1545 265.891 15.7659 264.096 8.52809C263.862 7.57068 263.519 6.63929 263.212 5.7027C263.113 5.42172 262.962 5.15115 262.722 4.62562C262.384 5.45294 262.041 6.05652 261.89 6.70693C260.87 11.2182 259.746 15.719 258.929 20.2667C257.436 28.5243 256.187 36.8288 254.72 45.0916C254.356 47.1417 253.596 49.1293 252.909 51.1118C252.623 51.9391 252.118 52.7248 251.582 53.4272C250.058 55.4201 247.711 55.6386 246.093 53.729C244.901 52.3137 244.105 50.5602 243.163 48.942C241.899 46.793 240.728 44.5869 239.391 42.4795C238.876 41.6678 238.08 40.9966 237.304 40.3982C236.139 39.498 235.129 39.5657 234.203 40.7C233.418 41.673 232.726 42.7657 232.216 43.9104C230.519 47.7192 229.827 51.7986 229.083 55.878C228.386 59.7284 227.527 63.5528 226.622 67.3616C226.341 68.5428 225.79 69.6979 225.17 70.7542C223.698 73.2622 221.237 73.3922 219.728 70.9259C218.713 69.2608 217.974 67.3772 217.397 65.5041C215.581 59.6243 214.582 53.5521 213.661 47.4799C213 43.0883 212.594 38.6447 211.772 34.2843C211.252 31.5162 210.226 28.8313 209.337 26.1412C209.092 25.4023 208.551 24.7519 208.098 24.0963C207.791 23.6488 207.359 23.6176 207.026 24.0703C206.548 24.7103 206.059 25.3555 205.694 26.0632C204.165 29.0446 203.634 32.3227 202.905 35.5383C202.307 38.218 201.891 40.9393 201.334 43.6294C200.704 46.6578 199.513 49.4727 197.619 51.9287C195.319 54.8946 192.332 54.8321 190.027 51.8506C188.472 49.8422 187.618 47.4955 186.833 45.1072C186.026 42.646 185.131 40.2213 184.174 37.8174C183.945 37.2398 183.336 36.8183 182.899 36.324C182.514 36.8236 181.947 37.271 181.765 37.8382C180.974 40.2629 180.146 42.6929 179.605 45.18C178.622 49.6392 177.888 54.1453 176.936 58.6149C176.676 59.8273 176.124 61.0188 175.5 62.1063C173.991 64.7548 171.301 64.8276 169.813 62.1844C168.85 60.4777 168.085 58.6097 167.565 56.7261C165.78 50.2688 164.151 43.7751 162.445 37.3023C162.013 35.658 161.446 34.0658 160.088 32.6037C159.609 33.2749 159.047 33.7952 158.808 34.4352C157.809 37.1201 156.83 39.8154 155.998 42.5524C155.15 45.3257 154.567 48.1771 153.693 50.9401C153.277 52.2721 152.6 53.5781 151.788 54.7228C150.04 57.1996 147.553 57.2673 145.55 54.9882C143.775 52.9693 142.87 50.4926 142.006 48.0106C141.122 45.461 139.597 43.3485 137.563 41.6262C135.736 40.086 133.978 40.1641 132.417 41.9592C131.548 42.9582 130.835 44.1758 130.361 45.4142C129.435 47.8077 128.681 50.2636 127.052 52.3085C124.253 55.8259 121.011 55.6803 118.571 51.8871C116.76 49.0721 115.782 45.8981 115.032 42.6824C114.169 38.9881 113.549 35.2365 112.717 31.537C111.905 27.9519 110.958 24.3929 109.262 21.0992C108.84 20.2927 108.258 19.5486 107.675 18.8358C107.201 18.2634 106.582 18.2686 106.062 18.8098C105.609 19.2729 105.157 19.7568 104.824 20.3031C103.351 22.7591 102.331 25.4075 101.754 28.2069C100.255 35.4291 98.8242 42.6668 97.2944 49.8838C96.9926 51.2939 96.4098 52.6519 95.8843 54.0048C95.6658 54.572 95.3223 55.1079 94.9477 55.597C93.5428 57.439 91.4667 57.5378 90.1295 55.6542C89.2137 54.3638 88.4384 52.8861 88.0117 51.3719C86.893 47.4278 86.0657 43.4057 84.9886 39.446C84.2081 36.5634 83.2715 33.712 82.2881 30.8866C81.9135 29.8043 81.2319 28.8313 80.6855 27.8063C80.5398 27.8167 80.3941 27.8271 80.2432 27.8323L80.2744 27.8271Z" fill="#DC7F34"/>
</g>
</g>
</svg>
