<svg width="436" height="96" viewBox="0 0 436 96" fill="none" xmlns="http://www.w3.org/2000/svg">
<mask id="mask0_355_99987" style="mask-type:luminance" maskUnits="userSpaceOnUse" x="0" y="0" width="436" height="96">
<path d="M436 0.666687H0V95.3334H436V0.666687Z" fill="white"/>
</mask>
<g mask="url(#mask0_355_99987)">
<path d="M-100.635 63.474C-101.37 67.6927 -102.109 71.9063 -102.849 76.125C-102.964 76.1354 -103.078 76.1459 -103.187 76.1563C-104.443 68.7969 -105.693 61.4427 -106.964 53.9532C-107.609 54.3438 -108.151 54.7292 -108.745 55.0157C-108.995 55.1407 -109.422 55.1667 -109.635 55.0313C-110.484 54.4896 -111.276 53.8646 -112.177 53.2084C-113.318 57.9688 -114.453 62.7084 -115.589 67.4479C-115.703 67.4584 -115.818 67.4636 -115.927 67.4688C-116.677 64.4063 -117.427 61.3438 -118.177 58.2813C-118.234 58.2813 -118.286 58.2813 -118.344 58.2813C-119.427 65.8594 -120.505 73.4323 -121.594 81.0104C-121.708 81.0209 -121.812 81.0313 -121.927 81.0417C-122.865 74.5313 -123.807 68.0157 -124.745 61.5104C-124.833 61.5157 -124.917 61.5261 -125.005 61.5313C-125.802 65.7761 -126.604 70.0261 -127.406 74.2709C-127.516 74.2709 -127.625 74.2813 -127.74 74.2813C-128.771 68.7396 -129.797 63.1979 -130.828 57.6563C-130.87 57.6563 -130.911 57.6615 -130.958 57.6615L-133.589 68.2084C-133.698 68.224 -133.802 68.2344 -133.911 68.2448C-134.875 64.3802 -135.839 60.5104 -136.797 56.6407C-136.844 56.6407 -136.891 56.6459 -136.943 56.6511C-137.875 60.3177 -138.807 63.9844 -139.745 67.6563C-139.865 67.6719 -139.99 67.6823 -140.115 67.6979C-140.974 64.3542 -141.828 61.0104 -142.734 57.4896C-143.599 59.875 -144.406 62.1094 -145.219 64.3438C-145.312 64.349 -145.401 64.349 -145.495 64.3594C-146.49 61.5625 -147.495 58.7552 -148.583 55.7032C-149.656 61.974 -150.693 68 -151.724 74.0261C-151.849 74.0365 -151.974 74.0417 -152.104 74.0469L-153.932 63.8021C-154.016 63.8021 -154.104 63.7917 -154.193 63.7917C-155.052 70.8959 -155.922 78 -156.786 85.1042C-156.906 85.1042 -157.026 85.1146 -157.146 85.1198C-158.255 75.875 -159.359 66.625 -160.464 57.3854C-160.51 57.3802 -160.552 57.3698 -160.594 57.3646C-161.385 60.4115 -162.172 63.4584 -162.964 66.5C-163.083 66.5104 -163.198 66.5209 -163.312 66.5313C-164.25 62.8802 -165.187 59.2396 -166.172 55.4011C-167.083 57.224 -167.927 58.9063 -168.911 60.875C-169.422 59.9063 -169.833 59.2188 -170.161 58.4896C-171.135 56.349 -172.219 54.2396 -172.979 52.0209C-173.687 49.9427 -172.984 47.9115 -172.047 45.9896C-171.224 44.3073 -170.406 42.6198 -169.568 40.9375C-169.432 40.6667 -169.208 40.4323 -168.87 39.974C-168.099 41.4427 -167.417 42.75 -166.677 44.1459C-165.542 39.6979 -164.427 35.3438 -163.312 30.9896C-163.208 30.9844 -163.104 30.9792 -163 30.974C-162.182 34.0886 -161.37 37.2032 -160.505 40.5104C-159.37 31.0469 -158.266 21.7969 -157.161 12.5365C-157.031 12.5365 -156.901 12.5469 -156.771 12.5521C-155.917 19.6042 -155.057 26.6563 -154.203 33.7084C-154.167 33.7188 -154.125 33.724 -154.089 33.7344C-153.427 30 -152.771 26.2657 -152.109 22.5313C-151.984 22.5313 -151.859 22.5209 -151.734 22.5209C-150.505 29.7552 -149.271 36.9896 -148.005 44.4375C-147.135 42.0365 -146.333 39.8229 -145.531 37.6094C-145.432 37.5938 -145.328 37.5834 -145.229 37.5729C-144.526 39.4896 -143.818 41.4011 -143.062 43.4688C-142.057 39.5469 -141.083 35.7396 -140.109 31.9427C-140.005 31.9427 -139.901 31.9479 -139.797 31.9532C-138.859 35.6198 -137.917 39.2865 -136.979 42.9532C-136.917 42.9636 -136.854 42.974 -136.797 42.9844C-135.849 39.1771 -134.901 35.3698 -133.953 31.5677C-133.828 31.5677 -133.714 31.5729 -133.589 31.5782C-132.682 35.2136 -131.776 38.849 -130.802 42.7552C-129.76 37.1563 -128.771 31.8334 -127.781 26.5209C-127.651 26.5261 -127.521 26.5365 -127.396 26.5365C-126.589 30.8386 -125.781 35.1354 -124.974 39.4323C-124.927 39.4427 -124.88 39.4532 -124.828 39.4584C-123.875 32.8334 -122.932 26.2136 -121.979 19.5886C-121.849 19.5886 -121.719 19.5938 -121.589 19.599C-120.609 26.4271 -119.625 33.2657 -118.651 40.099C-118.594 40.1094 -118.542 40.1302 -118.484 40.1407C-117.641 36.7188 -116.797 33.3021 -115.953 29.8802C-115.844 29.8698 -115.734 29.8542 -115.625 29.849C-114.437 34.7813 -113.25 39.7188 -112.047 44.7188C-111.344 44.1875 -110.635 43.724 -110.016 43.1615C-109.427 42.6302 -108.984 42.6459 -108.406 43.1823C-107.891 43.6615 -107.266 44.0365 -106.625 44.4948C-105.49 37.849 -104.359 31.2448 -103.229 24.6459C-103.104 24.6459 -102.984 24.6563 -102.865 24.6615C-102.187 28.4896 -101.51 32.3125 -100.833 36.1407C-100.75 36.1511 -100.667 36.1615 -100.578 36.1719C-99.651 28.4427 -98.7291 20.7136 -97.802 12.9844C-97.677 12.9844 -97.5573 12.9844 -97.4323 12.9844C-96.3906 21.7865 -95.3437 30.5834 -94.2916 39.3854C-94.2395 39.4011 -94.1927 39.4115 -94.1406 39.4271C-93.4062 36.625 -92.677 33.8177 -91.9427 31.0157C-91.8489 31.0157 -91.75 31.0157 -91.651 31.0157C-90.6198 35.1771 -89.5885 39.349 -88.5104 43.6927C-87.552 41.8438 -86.6666 40.1354 -85.6354 38.1563C-84.7239 39.8854 -83.9583 41.3386 -83.0885 42.9896C-82.0364 37.5677 -81.026 32.3802 -80.0208 27.1927C-79.901 27.1979 -79.776 27.2032 -79.6562 27.2084C-78.9375 30.8177 -78.2187 34.4271 -77.5052 38.0365C-77.4687 38.0365 -77.4322 38.0313 -77.3906 38.0261C-76.4687 31.5625 -75.5416 25.099 -74.6197 18.6354C-74.4947 18.6354 -74.3593 18.6354 -74.2343 18.6302C-73.3958 24.4219 -72.5572 30.2136 -71.7135 36.0104C-71.6406 36.0104 -71.5625 36.0104 -71.4895 36.0104C-70.5885 28.7032 -69.6927 21.4011 -68.7968 14.099C-68.6822 14.099 -68.5625 14.099 -68.4479 14.099C-67.6354 20.6771 -66.8177 27.2552 -66.0052 33.8386C-65.9322 33.8386 -65.8541 33.8438 -65.7812 33.849C-64.8593 24.4479 -63.9375 15.0417 -63.0156 5.64065C-62.8854 5.64065 -62.7552 5.64065 -62.6302 5.64586C-61.7812 14.1823 -60.9427 22.7188 -60.0989 31.25C-60.0104 31.2604 -59.9166 31.2709 -59.8281 31.2813C-59.0729 25.2396 -58.3177 19.1927 -57.5572 13.1511C-57.4479 13.1511 -57.3385 13.1511 -57.2239 13.1563C-56.2968 20.7188 -55.375 28.2761 -54.4479 35.8386C-54.401 35.849 -54.3489 35.8542 -54.302 35.8594C-53.4635 30.1146 -52.6302 24.3646 -51.7916 18.6198C-51.6666 18.6198 -51.5312 18.6198 -51.4062 18.625C-50.4062 25.5729 -49.401 32.5209 -48.3958 39.4636C-48.3385 39.474 -48.2864 39.4792 -48.2291 39.4896C-47.4114 35.3646 -46.5937 31.25 -45.776 27.1302C-45.6614 27.1354 -45.5416 27.1407 -45.4322 27.1511C-44.5104 31.8125 -43.5885 36.4792 -42.6197 41.3854C-41.6979 37.7709 -40.8281 34.3802 -39.9583 30.9896C-39.8593 30.9896 -39.7552 30.9896 -39.651 30.9948C-38.7656 34.4584 -37.8802 37.9323 -36.9687 41.5157C-36.302 40.4063 -35.6979 39.4011 -34.9635 38.1823C-34.1406 39.5729 -33.4479 40.75 -32.6614 42.0834C-31.9114 40.0938 -31.2135 38.2604 -30.5156 36.4323C-30.4114 36.4167 -30.3072 36.4063 -30.2031 36.3907C-29.5625 38.0209 -28.9322 39.6511 -28.2135 41.4948C-27.151 36.1771 -26.1302 31.0313 -25.1041 25.8907C-24.9843 25.8907 -24.875 25.8854 -24.7552 25.8802C-23.651 31.4063 -22.5468 36.9375 -21.4218 42.5625C-20.651 41.2552 -19.9375 40.0365 -19.1354 38.6719C-18.4218 39.8334 -17.7864 40.8698 -17.0937 42.0052C-16.1354 38.4219 -15.2135 34.9792 -14.2916 31.5417C-14.1666 31.5313 -14.0364 31.5261 -13.9114 31.5157C-12.75 35.8646 -11.5885 40.2084 -10.401 44.6459C-9.8385 44.1198 -9.28121 43.7032 -8.85412 43.1823C-8.42704 42.6511 -8.14579 42.6615 -7.74475 43.1719C-7.51037 43.4636 -7.17704 43.6719 -6.82287 43.974C-5.72391 41.8959 -4.66141 39.8854 -3.48954 37.6615C-2.60933 39.2604 -1.83329 40.6823 -0.932246 42.3177C0.0312962 39.7032 0.916712 37.2917 1.80734 34.875C1.89588 34.875 1.98963 34.8854 2.08338 34.8854C2.82817 36.8959 3.57296 38.9167 4.4063 41.1719C5.36984 37.25 6.27609 33.5521 7.18755 29.8542C7.29171 29.8542 7.40109 29.8438 7.51046 29.8386C8.24484 32.7761 8.97921 35.7136 9.70838 38.6563L9.99484 38.6823C10.9844 31.6771 11.974 24.6771 12.9584 17.6771C13.0782 17.6771 13.2084 17.6667 13.3282 17.6667C14.0105 22.3959 14.6928 27.125 15.375 31.8594C15.4323 31.8594 15.4844 31.8698 15.5365 31.875C16.349 25.125 17.1719 18.3698 17.9844 11.625C18.1094 11.625 18.2396 11.625 18.3646 11.625C19.1667 18.2396 19.974 24.8542 20.7761 31.474C20.8646 31.4844 20.948 31.4896 21.0365 31.5C21.9323 22.25 22.8334 12.9948 23.7292 3.74482H24.1719C25.3334 14.2813 26.2344 24.8542 27.2865 35.4115C27.3907 35.4219 27.4896 35.4271 27.5886 35.4375C28.3855 29.9636 29.1875 24.4948 29.9896 19.0209C30.1042 19.0157 30.224 19.0157 30.3386 19.0104C31.2969 25.5782 32.25 32.1563 33.2032 38.724C33.2553 38.724 33.3073 38.724 33.3594 38.724C34.0521 36.1459 34.7396 33.5729 35.4271 30.9948C35.5313 30.9844 35.6355 30.9792 35.7344 30.9636C36.8542 35.2552 37.9688 39.5417 39.1146 43.9271C40.8334 42.6094 41.9532 43.849 43.1928 44.8334C44.1146 43.6563 44.9948 42.5209 46 41.2344C46.8073 42.224 47.5157 43.0886 48.3282 44.0834C49.4584 39.4844 50.5469 35.0417 51.6407 30.599C51.7553 30.6042 51.8698 30.6042 51.9896 30.6094L53.8386 37.8959C53.9011 37.8959 53.9636 37.9063 54.0209 37.9063C55.1563 26.1042 56.2865 14.3021 57.4219 2.49482C57.5573 2.49482 57.6875 2.50003 57.823 2.50003C59.0938 15.7657 60.3646 29.0261 61.6407 42.2865C61.6823 42.2865 61.7292 42.2865 61.7709 42.2813C62.6511 38.8438 63.5313 35.4011 64.4115 31.9636C64.5105 31.9532 64.6042 31.9427 64.7032 31.9375C65.2969 34.1719 65.8959 36.4115 66.4948 38.6459C66.5678 38.6459 66.6407 38.6459 66.7084 38.6511C67.7344 31.2709 68.7657 23.8854 69.7865 16.5C69.9219 16.5 70.0521 16.5 70.1875 16.5C71.125 23.2136 72.0678 29.9323 73.0053 36.6407C73.0678 36.6407 73.1303 36.6407 73.1928 36.6407C74 32.3021 74.8073 27.9636 75.6146 23.625C75.7344 23.625 75.8594 23.625 75.9792 23.625C77.0678 29.5417 78.1563 35.4584 79.2396 41.375C79.2865 41.3698 79.3282 41.3594 79.3698 41.3594C80.25 37.9011 81.1355 34.4375 82.0157 30.9792C82.1198 30.9792 82.2188 30.974 82.323 30.9688C83.2032 34.4115 84.0782 37.8542 85.0209 41.5365C85.9792 37.5 86.8907 33.6719 87.8021 29.849C87.9167 29.849 88.0261 29.849 88.1407 29.849C89.125 33.9948 90.1042 38.1407 91.1355 42.474C92.1355 39.8282 93.073 37.349 94.0053 34.8698C94.0938 34.8594 94.1875 34.8542 94.2813 34.8438C95.0313 36.8073 95.7865 38.7657 96.6303 40.9688C97.5782 36.9896 98.4792 33.2188 99.3803 29.4479C99.5053 29.4479 99.6303 29.4532 99.7605 29.4584C100.745 33.599 101.734 37.7396 102.787 42.1407C103.781 39.2344 104.698 36.5782 105.615 33.9219C105.708 33.9219 105.807 33.9219 105.906 33.9271C106.922 36.8959 107.938 39.8646 109.005 42.9896C109.714 42.3282 110.313 41.7032 110.995 41.1719C111.224 40.9896 111.781 40.8854 111.964 41.0313C112.787 41.7032 113.521 42.4688 114.349 43.2552C115.422 38.7761 116.495 34.3021 117.573 29.8282C117.693 29.8282 117.802 29.8386 117.922 29.8438C118.995 34.3073 120.073 38.7657 121.198 43.4479C122.156 40.6771 123.057 38.0677 123.958 35.4584C124.073 35.4584 124.182 35.4584 124.297 35.4584C125.083 37.724 125.875 39.9844 126.724 42.4219C127.76 38.1042 128.755 33.974 129.75 29.8438C129.865 29.8438 129.979 29.8334 130.089 29.8282C131.063 33.8386 132.037 37.8438 133.005 41.8438C133.052 41.8438 133.104 41.8438 133.151 41.8438C134.073 38.0938 135 34.349 135.922 30.599L136.287 30.5886C137.151 34.0625 138.01 37.5417 138.88 41.0157C138.943 41.0209 139.005 41.0261 139.068 41.0313C140.083 35.3646 141.099 29.7084 142.115 24.0469C142.229 24.0417 142.344 24.0313 142.458 24.0261C143.281 28.5365 144.104 33.0365 144.922 37.5469C144.979 37.5469 145.037 37.5469 145.099 37.5469C146.031 30.9167 146.969 24.2813 147.901 17.6511C148.031 17.6511 148.156 17.6511 148.287 17.6511C149.318 24.9479 150.349 32.2448 151.422 39.8334C152.365 36.1667 153.229 32.7917 154.094 29.4063C154.224 29.4063 154.354 29.4063 154.479 29.4063C155.656 34.0521 156.839 38.6875 158.026 43.3907C158.594 42.8594 159.083 42.3959 159.589 41.9375C160.292 41.3021 161.01 41.2813 161.724 41.9219C162.229 42.3802 162.729 42.849 163.167 43.2604C164.042 42.5 164.87 41.7032 165.787 41.0209C166.026 40.849 166.583 40.9375 166.906 41.0938C167.339 41.3073 167.688 41.6979 168.224 42.1302C169.214 38.1771 170.167 34.375 171.12 30.5677C171.234 30.5729 171.354 30.5782 171.464 30.5834C172.193 33.4375 172.927 36.3021 173.714 39.4011C174.797 31.5886 175.844 24.0469 176.885 16.5L177.276 16.4896C178.078 22.1615 178.88 27.8386 179.682 33.5104H179.787C180.734 23.5834 181.688 13.6563 182.641 3.72919C182.781 3.72919 182.932 3.72398 183.078 3.72398C184.141 13.2917 184.964 22.8959 186.094 32.4844C186.901 25.9532 187.708 19.4271 188.516 12.8959L188.875 12.9115C189.797 20.4323 190.714 27.9532 191.641 35.4688C191.698 35.474 191.755 35.4792 191.813 35.4896C192.635 29.7969 193.448 24.1042 194.266 18.4167C194.417 18.4167 194.568 18.4063 194.719 18.4011C195.625 24.7761 196.531 31.1511 197.469 37.7657C198.146 35.0469 198.76 32.5521 199.375 30.0625C199.479 30.0521 199.573 30.0417 199.672 30.0313L202.719 42.7552C202.776 42.7657 202.828 42.7709 202.885 42.7813C203.651 40.4792 204.412 38.1771 205.177 35.875C205.266 35.8698 205.359 35.8594 205.453 35.849C206.26 38.3073 207.078 40.7552 207.917 43.3021C208.698 41.6459 209.448 40.0469 210.344 38.1459C211.224 40.0157 211.974 41.6042 212.734 43.2292C213.453 42.2813 214.151 41.349 214.984 40.25C215.839 41.375 216.578 42.3646 217.396 43.4532C218.484 38.8438 219.547 34.3386 220.609 29.8282C220.724 29.8282 220.839 29.8282 220.948 29.8334C221.938 34 222.927 38.1771 223.943 42.4375C224.698 41.1667 225.396 39.9792 226.188 38.6459C226.854 39.7448 227.438 40.6979 228.12 41.8125C229.167 36.2917 230.188 30.9063 231.208 25.5209C231.339 25.5209 231.474 25.5209 231.604 25.5157C232.63 30.8698 233.656 36.2188 234.729 41.8229C235.505 39.8542 236.182 38.1146 236.865 36.375C236.969 36.375 237.068 36.375 237.172 36.3802C237.787 37.9323 238.401 39.4792 239.016 41.0313C239.083 41.0313 239.146 41.0313 239.208 41.0365C240.281 35.224 241.359 29.4115 242.432 23.599C242.552 23.6094 242.682 23.6146 242.802 23.6198C243.609 27.9219 244.412 32.2136 245.219 36.5157C245.266 36.5261 245.307 36.5417 245.359 36.5573C245.948 34.375 246.537 32.1979 247.13 30.0157C247.219 30.0052 247.313 29.9896 247.396 29.9844C248.198 33.0365 249 36.0886 249.849 39.3177C250.88 33.9323 251.87 28.7552 252.865 23.5782C252.984 23.5782 253.115 23.5782 253.234 23.5834C253.974 27.3802 254.724 31.1771 255.464 34.9688C255.526 34.9688 255.583 34.974 255.646 34.9792C256.521 28.8125 257.396 22.6459 258.271 16.4792H258.662C259.594 23.0104 260.526 29.5417 261.453 36.0782C261.495 36.0886 261.542 36.0886 261.589 36.099C262.547 28.2344 263.505 20.3698 264.469 12.5052C264.594 12.5104 264.714 12.5104 264.839 12.5157C265.578 18.4844 266.318 24.4479 267.057 30.4167C267.089 30.4167 267.12 30.4271 267.156 30.4271C268.068 21.0886 268.974 11.75 269.885 2.41148C270.005 2.41148 270.13 2.41148 270.25 2.41148C271.177 11.8542 272.099 21.2969 273.026 30.7344C273.12 30.7344 273.219 30.7448 273.313 30.75C274.104 24.1719 274.906 17.5938 275.698 11.0157H276.052C276.969 18.6615 277.885 26.2969 278.807 33.9427L278.948 33.9479C279.797 27.9323 280.646 21.9219 281.49 15.9063C281.62 15.9063 281.74 15.9063 281.865 15.9063C283.063 24.4688 284.26 33.0261 285.49 41.8438C286.182 40.5573 286.76 39.4896 287.469 38.1719C288.208 39.5209 288.828 40.6719 289.552 42.0104C290.635 37.5104 291.672 33.1979 292.708 28.875C292.813 28.8698 292.917 28.8646 293.021 28.8594C293.662 31.3854 294.297 33.9219 294.995 36.6927C296.052 27.9636 297.083 19.4688 298.109 10.9792C298.234 10.9792 298.354 10.9792 298.479 10.9792C299.484 19.25 300.495 27.5261 301.505 35.7969C301.568 35.7969 301.641 35.8073 301.703 35.8125C302.568 30.7292 303.432 25.6459 304.297 20.5625C304.422 20.5625 304.552 20.5677 304.677 20.5729C305.698 26.6042 306.719 32.6302 307.74 38.6563L307.891 38.6354C308.693 34.5729 309.49 30.5104 310.292 26.4479C310.422 26.4479 310.547 26.4427 310.672 26.4375C311.662 31.4948 312.651 36.5521 313.682 41.8282C314.542 39.5677 315.333 37.4896 316.12 35.4115C316.234 35.4115 316.344 35.4115 316.458 35.4115C317.38 37.8594 318.297 40.3125 319.25 42.8594C320 41.4427 320.698 40.1302 321.484 38.6407C322.141 39.8177 322.708 40.8542 323.365 42.0261C324.391 37.9115 325.38 33.9532 326.365 30.0052C326.458 30.0052 326.557 30.0052 326.651 30C327.255 32.3125 327.865 34.6198 328.469 36.9375C328.531 36.9375 328.594 36.9271 328.646 36.9271C329.427 33.099 330.208 29.2761 330.984 25.4479C331.109 25.4532 331.224 25.4584 331.349 25.4636C332.219 29.7709 333.089 34.0834 333.958 38.3907C333.995 38.3907 334.031 38.4011 334.068 38.4063C335.094 31.1615 336.12 23.9115 337.146 16.6615C337.271 16.6615 337.396 16.6615 337.526 16.6615C338.359 22.5 339.203 28.3438 340.042 34.1823L340.172 34.1719C341.099 26.4532 342.026 18.724 342.958 11.0052C343.078 11.0052 343.198 11.0104 343.318 11.0104C344.182 18.1511 345.047 25.2813 345.906 32.4219C346.005 32.4271 346.099 32.4375 346.198 32.4479C347.172 22.5313 348.156 12.6146 349.13 2.69794C349.255 2.69794 349.385 2.70315 349.51 2.70836C350.427 11.9479 351.344 21.1875 352.26 30.4323C352.287 30.4323 352.313 30.4271 352.339 30.4219C353.078 24.4532 353.813 18.4792 354.552 12.5104C354.682 12.5104 354.802 12.5104 354.927 12.5104C355.833 19.9323 356.745 27.3542 357.651 34.7761L357.865 34.7917C358.693 29.0677 359.521 23.3386 360.344 17.6146C360.469 17.6146 360.599 17.6198 360.719 17.625C361.641 23.9896 362.557 30.3594 363.474 36.7292C363.563 36.7292 363.651 36.7344 363.74 36.7344C364.542 32.6667 365.349 28.5938 366.151 24.5261C366.276 24.5261 366.406 24.5261 366.526 24.5261C367.625 30.1875 368.719 35.8438 369.849 41.6615C370.495 40.4688 371.063 39.4271 371.755 38.1459C372.594 39.7292 373.313 41.0782 374.099 42.5729C375.203 38.0886 376.271 33.7604 377.333 29.4323C377.458 29.4271 377.578 29.4167 377.703 29.4063C378.323 31.8125 378.943 34.2136 379.568 36.625C379.609 36.625 379.651 36.6302 379.693 36.6354C380.714 27.9792 381.734 19.3177 382.75 10.6615C382.88 10.6615 383.016 10.6615 383.146 10.6615C384.104 18.75 385.068 26.8334 386.026 34.9219C386.078 34.9219 386.13 34.9167 386.177 34.9115C386.979 30.2604 387.781 25.6094 388.578 20.9584C388.698 20.9584 388.813 20.9584 388.938 20.9584C390.151 28.1302 391.37 35.3073 392.63 42.75C393.537 40.2865 394.359 38.0573 395.182 35.8282L395.448 35.8125C396.188 37.7813 396.922 39.75 397.75 41.9636C398.792 37.7604 399.771 33.7917 400.75 29.8282C400.865 29.8177 400.979 29.8073 401.094 29.7969C402.063 33.6927 403.031 37.5886 404.005 41.4844H404.146C405.078 37.6042 406.01 33.724 406.938 29.8438C407.052 29.8334 407.162 29.8282 407.276 29.8229C408.162 33.474 409.042 37.1302 409.927 40.7865C409.984 40.7865 410.047 40.7969 410.115 40.7969C411.115 35.2032 412.12 29.6146 413.125 24.0209C413.24 24.0261 413.354 24.0313 413.469 24.0365C414.287 28.5157 415.094 32.9948 415.912 37.4792C415.964 37.4792 416.01 37.4844 416.063 37.4896C417.01 30.5573 417.958 23.6302 418.906 16.6979C419.031 16.6979 419.162 16.6979 419.287 16.6979C420.255 23.7448 421.224 30.7917 422.188 37.8386C422.25 37.849 422.313 37.8542 422.375 37.8698C423.156 34.7448 423.938 31.6198 424.719 28.4896C424.844 28.4844 424.969 28.4688 425.094 28.4636C426.224 33.0782 427.349 37.6927 428.495 42.3802C429.021 41.8959 429.505 41.4271 430.01 40.9844C430.667 40.4011 431.313 40.3282 432.073 40.8854C435.792 43.6094 435.984 48.2709 433.823 51.0157C433.172 51.8386 432.323 52.5209 431.484 53.1719C431.292 53.3229 430.714 53.1667 430.432 52.9688C429.792 52.5209 429.229 51.9636 428.537 51.3646C427.375 56.1354 426.229 60.8282 425.089 65.5209C424.974 65.5261 424.865 65.5313 424.755 65.5313C424.068 62.7969 423.38 60.0677 422.693 57.3334C422.635 57.3282 422.568 57.3229 422.505 57.3177C421.438 65.1771 420.365 73.0313 419.292 80.8907C419.193 80.8959 419.094 80.9063 419 80.9167C417.849 74.0157 417.089 67.0625 415.896 60.1511C415.089 64.5938 414.281 69.0365 413.479 73.474C413.359 73.4792 413.245 73.4792 413.13 73.4896C412.12 67.8802 411.12 62.2709 410.115 56.6615C410.063 56.6511 410.005 56.6459 409.953 56.6407C409.073 60.2969 408.188 63.9532 407.307 67.6146C407.188 67.625 407.063 67.6302 406.938 67.6407C405.964 63.5573 404.984 59.4792 403.943 55.1094C402.958 59.0782 402.042 62.7709 401.12 66.4636C401.005 66.4792 400.891 66.4948 400.776 66.5104C399.865 62.8542 398.953 59.2032 397.99 55.3438C397.104 57.7448 396.287 59.9636 395.469 62.1823C395.38 62.1979 395.297 62.2136 395.208 62.2292C394.24 59.5729 393.26 56.9115 392.292 54.2604L392.115 54.2813C391.052 60.5209 389.99 66.7604 388.927 72.9948C388.818 73.0052 388.714 73.0209 388.604 73.0261C387.818 68.5 387.037 63.9792 386.245 59.4479C386.198 59.4532 386.151 59.4584 386.109 59.4688C385.115 67.8229 384.125 76.1823 383.141 84.5313C383.016 84.5365 382.891 84.5417 382.76 84.5469C381.745 75.9063 380.729 67.2709 379.708 58.625C379.667 58.625 379.625 58.625 379.578 58.625C378.948 61.1094 378.318 63.5834 377.677 66.0625C377.583 66.0729 377.484 66.0834 377.385 66.0886C376.401 62.1042 375.412 58.1198 374.365 53.8854C373.474 55.599 372.677 57.125 371.745 58.9167C370.943 57.3854 370.281 56.1146 369.552 54.7188C368.521 60.0209 367.521 65.1927 366.516 70.3646C366.401 70.375 366.281 70.3907 366.167 70.4011C365.38 66.4219 364.594 62.4479 363.813 58.4636C363.76 58.4636 363.708 58.4636 363.656 58.4636C362.672 65.3282 361.688 72.1927 360.703 79.0521C360.594 79.0625 360.49 79.0729 360.38 79.0834C359.537 73.3646 358.698 67.6459 357.859 61.9167C356.714 69.1771 355.979 76.4584 354.927 83.6927C354.771 83.6927 354.62 83.6927 354.464 83.6927C353.719 77.6042 352.969 71.5157 352.224 65.4271C352.162 65.4271 352.099 65.4271 352.037 65.4219C351.208 73.7552 350.38 82.0938 349.552 90.4219C349.385 90.4219 349.224 90.4271 349.063 90.4323C348.099 80.6302 347.141 70.8282 346.177 61.0261C346.141 61.0261 346.104 61.0157 346.068 61.0104C345.141 68.6615 344.219 76.3021 343.292 83.9479L342.958 83.9636C342.026 76.2084 341.089 68.4479 340.156 60.6875C340.125 60.6823 340.094 60.6771 340.063 60.6719C339.214 66.6094 338.359 72.5469 337.505 78.4844C337.385 78.4896 337.26 78.5 337.141 78.5052C336.135 71.4271 335.125 64.349 334.125 57.2709C334.042 57.2709 333.958 57.2761 333.875 57.2813C333.016 61.5313 332.156 65.7865 331.297 70.0365C331.203 70.0521 331.109 70.0625 331.01 70.0782C330.25 66.3438 329.484 62.6094 328.677 58.6563C327.974 61.3802 327.323 63.9219 326.667 66.4688C326.557 66.4844 326.448 66.4948 326.344 66.5104C325.427 62.8542 324.51 59.1927 323.563 55.4219C322.87 56.75 322.229 57.9688 321.479 59.4115C320.594 57.6927 319.813 56.1615 318.938 54.474C318.057 56.8177 317.229 59.0209 316.401 61.2188C316.318 61.2292 316.229 61.2396 316.146 61.2448C315.427 59.375 314.714 57.4948 313.896 55.3646C312.776 61.1354 311.698 66.6511 310.625 72.1719C310.521 72.1771 310.412 72.1875 310.307 72.1927L307.432 57.5052C307.375 57.5052 307.318 57.5052 307.26 57.5052C306.385 62.6667 305.505 67.8282 304.63 72.9948C304.521 72.9948 304.412 73 304.302 73.0052C303.432 67.9063 302.573 62.7969 301.703 57.6979C301.651 57.6927 301.594 57.6875 301.542 57.6823C300.516 66.1198 299.479 74.5677 298.453 83.0052C298.339 83.0104 298.224 83.0209 298.109 83.0261C297.12 74.9375 296.141 66.8542 295.156 58.7657C295.083 58.7604 295.005 58.7552 294.932 58.75C294.302 61.3229 293.667 63.8907 293.031 66.4636L292.703 66.5052C291.75 62.5625 290.797 58.6198 289.787 54.4427C289.01 55.9479 288.313 57.2917 287.464 58.9219C286.651 57.375 285.958 56.0625 285.188 54.5886C284.057 62.6771 282.948 70.5886 281.844 78.4896C281.724 78.4896 281.599 78.4948 281.479 78.5C280.672 72.8334 279.859 67.1615 279.052 61.4896C278.958 61.5 278.865 61.5104 278.771 61.5157C277.859 69.1198 276.948 76.724 276.031 84.3282C275.917 84.3386 275.797 84.3438 275.677 84.3542C274.839 77.3594 273.995 70.3594 273.151 63.3594L273.031 63.375C272.099 72.9271 271.167 82.4792 270.234 92.0313C270.141 92.0365 270.042 92.0469 269.953 92.0521C268.901 83.2917 268.214 74.4948 267.109 65.7292C266.37 71.7188 265.641 77.7084 264.901 83.6979C264.745 83.6979 264.594 83.6979 264.438 83.6979C263.292 75.9219 262.547 68.099 261.537 60.3021C261.438 60.3021 261.333 60.3021 261.229 60.3021C260.37 66.3698 259.5 72.4323 258.635 78.5052C258.521 78.5104 258.396 78.5209 258.281 78.5365C257.344 71.9479 256.412 65.3542 255.448 58.5313C254.672 62.474 253.948 66.1927 253.214 69.9115L252.875 69.9323C251.953 65.1407 251.031 60.3542 250.063 55.3334C249.151 58.8698 248.292 62.1875 247.432 65.5104C247.323 65.5209 247.214 65.5313 247.109 65.5417C246.495 63.2552 245.88 60.974 245.224 58.5313C244.391 62.9792 243.589 67.2709 242.781 71.5573L242.438 71.5834C241.458 66.3229 240.484 61.0573 239.479 55.6511C238.682 57.7292 237.932 59.6719 237.182 61.6198C237.083 61.6354 236.979 61.6563 236.875 61.6771C236.172 59.8802 235.464 58.0886 234.651 56.0157C233.583 61.5677 232.573 66.8542 231.568 72.1407C231.458 72.1511 231.349 72.1615 231.24 72.1719C230.162 66.5261 229.083 60.8854 227.958 54.9948C227.318 56.0313 226.807 56.8698 226.167 57.9063C225.438 56.6719 224.823 55.6302 224.156 54.5C223.063 59.1511 221.995 63.6719 220.932 68.1927C220.818 68.1927 220.708 68.1927 220.599 68.1979C219.479 63.4427 218.365 58.6875 217.219 53.7917C216.615 54.6094 216.052 55.3334 215.537 56.0834C215.12 56.6823 214.792 56.6823 214.401 56.0573C214.068 55.5365 213.677 55.0521 213.24 54.4532C212.287 56.5625 211.391 58.5469 210.5 60.5313C210.401 60.5469 210.307 60.5573 210.214 60.5677C209.573 59.2136 208.938 57.849 208.224 56.3229C207.276 59.1927 206.375 61.9427 205.474 64.6875C205.365 64.6927 205.255 64.6979 205.141 64.7032C204.26 62.0261 203.385 59.3542 202.453 56.5157C201.5 60.5 200.578 64.3386 199.667 68.1771C199.568 68.1771 199.479 68.1823 199.38 68.1875C198.792 65.875 198.203 63.5573 197.615 61.2448C197.531 61.25 197.448 61.2604 197.37 61.2761C196.458 67.6667 195.557 74.0521 194.651 80.4427C194.531 80.4427 194.417 80.4532 194.292 80.4584C193.427 74.3334 192.563 68.2032 191.693 62.0782C191.667 62.0782 191.63 62.0782 191.599 62.0729C190.682 69.4896 189.771 76.9063 188.859 84.3282C188.74 84.3386 188.62 84.349 188.5 84.3594C187.708 78.0104 186.922 71.6615 186.13 65.3177C186.016 65.3125 185.901 65.3125 185.781 65.3073C184.896 74.3959 184.016 83.4844 183.13 92.5729C182.974 92.5729 182.818 92.5729 182.662 92.5729C181.526 82.7917 180.776 72.9688 179.771 63.1771C179.693 63.1771 179.615 63.1823 179.531 63.1875C178.771 68.5886 178.021 73.9844 177.26 79.3907L176.948 79.4167C175.745 72.2604 174.938 65.0469 173.74 57.849L171.417 67.0521C171.318 67.0521 171.214 67.0625 171.115 67.0677C169.938 62.3125 168.76 57.5521 167.573 52.7604C166.297 53.8698 165.896 53.6875 165.078 52.8125C164.677 52.3854 164.156 52.0677 163.729 51.7292C162.896 52.5157 162.083 53.3386 161.188 54.0521C160.958 54.2396 160.333 54.2344 160.089 54.0521C159.287 53.4532 158.578 52.724 157.766 51.9844C156.646 56.3907 155.537 60.7604 154.422 65.125C154.323 65.125 154.224 65.1302 154.12 65.1354C153.323 62.0782 152.531 59.0104 151.667 55.6927C150.5 64.0052 149.375 72.0313 148.25 80.0521C148.135 80.0625 148.026 80.0625 147.912 80.0729C146.979 73.4896 146.042 66.9011 145.109 60.3177C145.016 60.3282 144.922 60.3334 144.828 60.3386C144.031 64.7084 143.245 69.0782 142.448 73.4479C142.339 73.4584 142.224 73.474 142.104 73.4792C141.109 67.9584 140.104 62.4323 139.104 56.9115C139.021 56.9167 138.943 56.9271 138.865 56.9375C137.995 60.4323 137.13 63.9323 136.266 67.4271C136.146 67.4271 136.031 67.4375 135.917 67.4427C134.953 63.5365 133.99 59.625 132.969 55.4584C131.958 59.6302 131.021 63.5209 130.083 67.4219L129.74 67.4584C128.802 63.5886 127.865 59.7188 126.927 55.849C126.87 55.849 126.813 55.849 126.75 55.849C125.912 58.2761 125.078 60.6979 124.24 63.1198C124.156 63.1407 124.073 63.1563 123.99 63.1719C123.026 60.375 122.057 57.5782 121.01 54.5261C119.932 58.9896 118.917 63.2084 117.901 67.4323C117.776 67.4323 117.662 67.4375 117.537 67.4427C116.349 62.4479 115.156 57.4532 113.932 52.3177C113.318 52.8646 112.698 53.3334 112.172 53.8907C111.682 54.4115 111.349 54.3854 110.88 53.8646C110.375 53.3073 109.766 52.849 109.099 52.2604C108.021 55.4375 106.964 58.5209 105.912 61.6094C105.802 61.6198 105.693 61.6302 105.583 61.6459C104.729 59.1719 103.875 56.6979 102.922 53.9427C101.818 58.6146 100.776 63.0052 99.7344 67.3959C99.6146 67.4115 99.4948 67.4271 99.3803 67.4427C98.3959 63.3125 97.4063 59.1823 96.4011 54.9532C95.6719 56.8594 94.974 58.6771 94.2813 60.4948C94.1823 60.5 94.0886 60.5 93.9844 60.5104C93.1771 58.3854 92.375 56.2657 91.4792 53.8907C90.3125 58.8334 89.2136 63.5157 88.1146 68.1979C88.0053 68.1979 87.8959 68.2032 87.7865 68.2084C86.8803 64.375 85.9688 60.5417 85 56.4479C84.0521 60.1563 83.1771 63.6094 82.2969 67.0677C82.198 67.0677 82.099 67.0782 81.9948 67.0834L79.099 55.6667C79.0469 55.6771 78.9948 55.6823 78.9428 55.6927C77.9428 61.1563 76.9428 66.625 75.9428 72.0886C75.8282 72.0938 75.7188 72.1042 75.6042 72.1146C74.7917 67.7032 73.9688 63.2917 73.1563 58.8802C73.1094 58.8698 73.073 58.8646 73.0261 58.8594C72.073 65.7084 71.1146 72.5521 70.1615 79.4011C70.0573 79.4115 69.9584 79.4219 69.8594 79.4271C68.7136 72.8959 68.0261 66.2865 66.7917 59.7292C66.1094 62.3698 65.4271 65.0104 64.7448 67.6511C64.6198 67.6719 64.5053 67.6823 64.3803 67.6979C63.3907 63.8073 62.3907 59.9115 61.3282 55.7396C60.125 68.1667 58.9584 80.3021 57.7917 92.4323C57.6615 92.4323 57.5261 92.4427 57.4011 92.4427C56.3386 81.3907 55.2813 70.3386 54.2136 59.2865L54.0209 59.2657C53.3386 61.9948 52.6563 64.7188 51.9688 67.4479C51.8542 67.4584 51.7396 67.4636 51.625 67.474C50.5678 63.1459 49.5105 58.8229 48.4011 54.2917C47.573 55.3073 46.8125 56.2292 45.9948 57.2292C45.0469 56.0313 44.1303 54.8802 43.1875 53.6927C41.8855 54.6615 40.6407 56.2344 38.8125 54.25C37.7448 58.349 36.7344 62.2292 35.724 66.1146C35.6355 66.1198 35.5365 66.1302 35.448 66.1407L33.5417 59.1042C33.4792 59.1042 33.4115 59.1042 33.3542 59.099C32.3438 66.0886 31.3334 73.0782 30.3282 80.0625C30.2188 80.0782 30.1094 80.0886 29.9948 80.099C29.1303 74.1459 28.2657 68.1979 27.3959 62.25C27.3125 62.2552 27.224 62.2657 27.1355 62.2657C26.1355 72.5209 25.1459 82.7761 24.1459 93.0365C24.0261 93.0365 23.9115 93.0417 23.7917 93.0469C22.8698 83.5625 21.948 74.0782 21.0261 64.5938C20.9375 64.5886 20.8438 64.5782 20.7553 64.5729C19.974 70.9584 19.1928 77.3386 18.4167 83.7188C18.2448 83.7188 18.0782 83.7136 17.9115 83.7084C17.1407 77.3646 16.375 71.0209 15.6094 64.6771C15.5782 64.6771 15.5417 64.6719 15.5105 64.6719C14.7761 69.8021 14.0365 74.9375 13.2969 80.0677C13.1875 80.0729 13.0834 80.0782 12.974 80.0834C11.9375 72.7032 10.9063 65.3125 9.82817 57.6459C9.00525 60.9688 8.25525 64.0052 7.50005 67.0469C7.40109 67.0573 7.30213 67.0729 7.20317 67.0886C6.25525 63.2188 5.31255 59.349 4.29692 55.224C3.50005 57.3802 2.7865 59.3021 2.07296 61.224C1.98963 61.2448 1.90109 61.2552 1.80734 61.2761C0.875046 58.724 -0.0572459 56.1667 -1.04162 53.4844C-1.8385 54.9479 -2.5885 56.3282 -3.47391 57.9532C-4.23954 56.5625 -4.86975 55.4115 -5.61975 54.0469C-6.30725 54.7969 -6.92183 55.4636 -7.526 56.1354C-8.08329 56.75 -8.5312 56.7448 -9.09891 56.1094C-9.63537 55.5052 -10.2031 54.9323 -10.8802 54.2032C-11.9375 58.1407 -12.9322 61.849 -13.927 65.5573L-14.2864 65.5729C-15.2552 61.9688 -16.2239 58.3594 -17.2135 54.6719C-17.8437 55.7552 -18.4114 56.7292 -19.1302 57.9532C-19.9427 56.5677 -20.6354 55.3907 -21.4375 54.0209C-22.5677 59.6927 -23.6562 65.1667 -24.7447 70.6407C-24.8697 70.6459 -24.9947 70.6511 -25.1197 70.6615C-26.052 65.9844 -26.9895 61.3021 -27.9791 56.3646C-28.7864 58.4479 -29.5104 60.3282 -30.2343 62.2084C-30.3177 62.2084 -30.3958 62.2188 -30.4791 62.224C-31.4114 59.7292 -32.3437 57.2396 -33.3072 54.6615C-33.8697 55.5886 -34.401 56.4532 -34.9947 57.4323C-35.5572 56.5157 -36.0364 55.7292 -36.5781 54.8386C-37.6302 58.9948 -38.6458 63.0365 -39.6666 67.0729C-39.7656 67.0834 -39.8645 67.0886 -39.9687 67.0938C-40.776 63.9271 -41.5885 60.7604 -42.4583 57.3646C-43.4791 62.5782 -44.4635 67.5729 -45.4479 72.5677C-45.5677 72.5782 -45.6822 72.5886 -45.802 72.5938L-48.401 59.4219C-48.4479 59.4219 -48.4947 59.4219 -48.5364 59.4219L-51.4375 79.5C-51.5572 79.5104 -51.6718 79.5261 -51.7916 79.5313C-52.6354 73.7396 -53.4791 67.9427 -54.3229 62.1511C-54.3645 62.1511 -54.3958 62.1511 -54.4375 62.1563C-55.3489 69.599 -56.2552 77.0417 -57.1666 84.4844C-57.3385 84.4844 -57.5 84.4844 -57.6718 84.4844C-58.3854 78.724 -59.0937 72.9584 -59.802 67.1927C-59.8593 67.1875 -59.9114 67.1823 -59.9635 67.1719C-60.8645 76.2396 -61.7604 85.3073 -62.6562 94.3802L-63.0208 94.3854C-63.9427 85.0417 -64.8645 75.6979 -65.7812 66.3542C-65.8802 66.3594 -65.9843 66.3646 -66.0833 66.3698C-66.8697 72.75 -67.6666 79.125 -68.4531 85.5C-68.5833 85.5104 -68.7031 85.5157 -68.8281 85.5209C-69.7604 77.9219 -70.6927 70.3229 -71.625 62.724C-71.6718 62.7188 -71.7187 62.7188 -71.7656 62.7084C-72.6041 68.4844 -73.4375 74.2604 -74.276 80.0417C-74.3854 80.0469 -74.5 80.0521 -74.6041 80.0625C-75.4895 73.9063 -76.3697 67.7604 -77.2552 61.6094C-77.3125 61.6094 -77.375 61.6094 -77.4322 61.6042C-78.1822 65.4271 -78.9375 69.25 -79.6875 73.0782C-79.7968 73.0886 -79.9062 73.1042 -80.0208 73.1094C-81.1875 67.0782 -82.3489 61.0469 -83.5364 54.8907C-84.2187 56.2084 -84.8541 57.4219 -85.6354 58.9271C-86.552 57.1771 -87.3437 55.6563 -88.2552 53.9115C-89.4218 58.6511 -90.526 63.1302 -91.625 67.6146C-91.75 67.6302 -91.8645 67.6459 -91.9895 67.6615C-92.6875 64.9427 -93.3802 62.2136 -94.0781 59.4948C-94.1354 59.4948 -94.1875 59.5052 -94.2448 59.5052C-95.3073 68.474 -96.3698 77.4375 -97.4323 86.4063L-97.7604 86.4323C-98.8593 78.8021 -99.6041 71.125 -100.672 63.474H-100.635Z" fill="#E5E6E6"/>
</g>
</svg>
