<svg width="440" height="96" viewBox="0 0 440 96" fill="none" xmlns="http://www.w3.org/2000/svg">
<mask id="mask0_355_99988" style="mask-type:luminance" maskUnits="userSpaceOnUse" x="0" y="0" width="440" height="96">
<path d="M439.333 0.666687H0.666504V95.3334H439.333V0.666687Z" fill="white"/>
</mask>
<g mask="url(#mask0_355_99988)">
<mask id="mask1_355_99988" style="mask-type:luminance" maskUnits="userSpaceOnUse" x="1" y="2" width="439" height="93">
<path d="M1.43726 2.4219H439.333V94.375H1.43726V2.4219Z" fill="white"/>
</mask>
<g mask="url(#mask1_355_99988)">
<path d="M74.0571 63.474C73.3228 67.6927 72.5832 71.9063 71.8436 76.125C71.729 76.1354 71.6144 76.1459 71.505 76.1563C70.2498 68.7969 68.9998 61.4427 67.729 53.9532C67.0832 54.3438 66.5415 54.7292 65.9478 55.0157C65.6978 55.1407 65.2655 55.1667 65.0519 55.0313C64.2082 54.4896 63.4165 53.8646 62.5155 53.2084C61.3748 57.9688 60.2394 62.7084 59.104 67.4479C58.9894 67.4584 58.8748 67.4636 58.7655 67.4688C58.0155 64.4063 57.2655 61.3438 56.5155 58.2813C56.4582 58.2813 56.4061 58.2813 56.3488 58.2813C55.2655 65.8594 54.1873 73.4323 53.0988 81.0104C52.9842 81.0209 52.8748 81.0313 52.7655 81.0417C51.828 74.5313 50.8852 68.0157 49.9478 61.5104C49.8592 61.5157 49.7707 61.5261 49.6873 61.5313C48.8852 65.7761 48.0832 70.0261 47.2863 74.2709C47.1769 74.2709 47.0675 74.2813 46.953 74.2813C45.9217 68.7396 44.8957 63.1979 43.8644 57.6563C43.8228 57.6563 43.7759 57.6615 43.7342 57.6615L41.104 68.2084C40.9946 68.224 40.8905 68.2344 40.7811 68.2448C39.8175 64.3802 38.854 60.5104 37.8957 56.6407C37.8488 56.6407 37.8019 56.6459 37.7498 56.6511C36.8175 60.3177 35.88 63.9844 34.9477 67.6563C34.828 67.6719 34.703 67.6823 34.578 67.6979C33.7186 64.3542 32.8644 61.0104 31.9582 57.4896C31.0936 59.875 30.2863 62.1094 29.4738 64.3438C29.38 64.349 29.2915 64.349 29.1977 64.3594C28.1977 61.5625 27.1978 58.7552 26.1092 55.7032C25.0363 61.974 23.9998 68 22.9686 74.0261C22.8436 74.0365 22.7134 74.0417 22.5884 74.0469L20.7602 63.8021C20.6769 63.8021 20.5884 63.7917 20.4998 63.7917C19.6352 70.8959 18.7707 78 17.9061 85.1042C17.7863 85.1042 17.6665 85.1146 17.5467 85.1198C16.4373 75.875 15.3332 66.625 14.229 57.3854C14.1821 57.3802 14.1405 57.3698 14.0936 57.3646C13.3071 60.4115 12.5155 63.4584 11.729 66.5C11.6092 66.5104 11.4946 66.5209 11.38 66.5313C10.4425 62.8802 9.50504 59.2396 8.52067 55.4011C7.60921 57.224 6.76546 58.9063 5.78108 60.875C5.27067 59.9063 4.85921 59.2188 4.53108 58.4896C3.55712 56.349 2.47379 54.2396 1.71337 52.0209C1.00504 49.9427 1.70817 47.9115 2.64046 45.9896C3.46858 44.3073 4.28629 42.6198 5.12483 40.9375C5.26025 40.6667 5.48421 40.4323 5.82275 39.974C6.59358 41.4427 7.27587 42.75 8.01546 44.1459C9.15087 39.6979 10.2655 35.3438 11.38 30.9896C11.4842 30.9844 11.5884 30.9792 11.6925 30.974C12.5102 34.0886 13.3227 37.2032 14.1873 40.5104C15.3227 31.0469 16.4217 21.7969 17.5311 12.5365C17.6613 12.5365 17.7863 12.5469 17.9217 12.5521C18.7759 19.6042 19.6352 26.6563 20.4894 33.7084C20.5259 33.7188 20.5675 33.724 20.604 33.7344C21.2655 30 21.9217 26.2657 22.578 22.5313C22.7082 22.5313 22.8332 22.5209 22.953 22.5209C24.1873 29.7552 25.4165 36.9896 26.6873 44.4375C27.5571 42.0365 28.3592 39.8229 29.1613 37.6094C29.2602 37.5938 29.3644 37.5834 29.4634 37.5729C30.1665 39.4896 30.8748 41.4011 31.63 43.4688C32.6352 39.5469 33.604 35.7396 34.5832 31.9427C34.6873 31.9427 34.7915 31.9479 34.8957 31.9532C35.8332 35.6198 36.7759 39.2865 37.7134 42.9532C37.7759 42.9636 37.8332 42.974 37.8957 42.9844C38.8436 39.1771 39.7915 35.3698 40.7394 31.5677C40.8592 31.5677 40.979 31.5729 41.0988 31.5782C42.0102 35.2136 42.9165 38.849 43.8905 42.7552C44.9321 37.1563 45.9217 31.8334 46.9113 26.5209C47.0415 26.5261 47.1717 26.5365 47.2967 26.5365C48.104 30.8386 48.9113 35.1354 49.7186 39.4323C49.7655 39.4427 49.8123 39.4532 49.8644 39.4584C50.8123 32.8334 51.7603 26.2136 52.7134 19.5886C52.8436 19.5886 52.9738 19.5938 53.104 19.599C54.0832 26.4271 55.0675 33.2657 56.0415 40.099C56.0988 40.1094 56.1509 40.1302 56.2082 40.1407C57.0519 36.7188 57.8957 33.3021 58.7394 29.8802C58.8436 29.8698 58.9582 29.8542 59.0675 29.849C60.255 34.7813 61.4425 39.7188 62.6457 44.7188C63.3488 44.1875 64.0571 43.724 64.6769 43.1615C65.2655 42.6302 65.7082 42.6459 66.2863 43.1823C66.8019 43.6615 67.4269 44.0365 68.0675 44.4948C69.203 37.849 70.3332 31.2448 71.4634 24.6459C71.5832 24.6459 71.7082 24.6563 71.828 24.6615C72.505 28.4896 73.1821 32.3125 73.8592 36.1407C73.9425 36.1511 74.0259 36.1615 74.1144 36.1719C75.0363 28.4427 75.9634 20.7136 76.8905 12.9844C77.0155 12.9844 77.1353 12.9844 77.255 12.9844C78.3019 21.7865 79.3488 30.5834 80.4009 39.3854C80.453 39.4011 80.4998 39.4115 80.5519 39.4271C81.2863 36.625 82.0155 33.8177 82.7446 31.0157C82.8436 31.0157 82.9425 31.0157 83.0363 31.0157C84.0728 35.1771 85.104 39.349 86.1821 43.6927C87.1405 41.8438 88.0259 40.1354 89.0571 38.1563C89.9686 39.8854 90.7342 41.3386 91.604 42.9896C92.6561 37.5677 93.6613 32.3802 94.6717 27.1927C94.7915 27.1979 94.9165 27.2032 95.0363 27.2084C95.7498 30.8177 96.4738 34.4271 97.1873 38.0365C97.2238 38.0365 97.2602 38.0313 97.3019 38.0261C98.2238 31.5625 99.1509 25.099 100.073 18.6354C100.198 18.6354 100.328 18.6354 100.458 18.6302C101.297 24.4219 102.135 30.2136 102.979 36.0104C103.052 36.0104 103.13 36.0104 103.203 36.0104C104.099 28.7032 105 21.4011 105.896 14.099C106.01 14.099 106.13 14.099 106.245 14.099C107.057 20.6771 107.875 27.2552 108.687 33.8386C108.76 33.8386 108.838 33.8438 108.911 33.849C109.833 24.4479 110.755 15.0417 111.677 5.64065C111.807 5.64065 111.937 5.64065 112.062 5.64586C112.906 14.1823 113.75 22.7188 114.594 31.25C114.682 31.2604 114.776 31.2709 114.859 31.2813C115.62 25.2396 116.375 19.1927 117.135 13.1511C117.245 13.1511 117.354 13.1511 117.469 13.1563C118.39 20.7188 119.318 28.2761 120.239 35.8386C120.291 35.849 120.344 35.8542 120.39 35.8594C121.229 30.1146 122.062 24.3646 122.901 18.6198C123.026 18.6198 123.156 18.6198 123.286 18.625C124.286 25.5729 125.291 32.5209 126.297 39.4636C126.354 39.474 126.406 39.4792 126.463 39.4896C127.281 35.3646 128.099 31.25 128.916 27.1302C129.031 27.1354 129.151 27.1407 129.26 27.1511C130.182 31.8125 131.104 36.4792 132.068 41.3854C132.995 37.7709 133.864 34.3802 134.734 30.9896C134.833 30.9896 134.937 30.9896 135.041 30.9948C135.922 34.4584 136.807 37.9323 137.724 41.5157C138.39 40.4063 138.995 39.4011 139.724 38.1823C140.552 39.5729 141.245 40.75 142.026 42.0834C142.781 40.0938 143.479 38.2604 144.177 36.4323C144.281 36.4167 144.385 36.4063 144.489 36.3907C145.13 38.0209 145.76 39.6511 146.479 41.4948C147.536 36.1771 148.562 31.0313 149.588 25.8907C149.708 25.8907 149.818 25.8854 149.937 25.8802C151.041 31.4063 152.14 36.9375 153.265 42.5625C154.041 41.2552 154.755 40.0365 155.557 38.6719C156.271 39.8334 156.906 40.8698 157.599 42.0052C158.557 38.4219 159.479 34.9792 160.401 31.5417C160.526 31.5313 160.651 31.5261 160.781 31.5157C161.943 35.8646 163.104 40.2084 164.291 44.6459C164.854 44.1198 165.411 43.7032 165.838 43.1823C166.265 42.6511 166.541 42.6615 166.948 43.1719C167.182 43.4636 167.515 43.6719 167.87 43.974C168.969 41.8959 170.031 39.8854 171.203 37.6615C172.083 39.2604 172.859 40.6823 173.76 42.3177C174.724 39.7032 175.609 37.2917 176.495 34.875C176.588 34.875 176.682 34.8854 176.776 34.8854C177.521 36.8959 178.265 38.9167 179.099 41.1719C180.062 37.25 180.969 33.5521 181.875 29.8542C181.984 29.8542 182.094 29.8438 182.203 29.8386C182.937 32.7761 183.672 35.7136 184.401 38.6563L184.687 38.6823C185.677 31.6771 186.667 24.6771 187.651 17.6771C187.771 17.6771 187.896 17.6667 188.021 17.6667C188.703 22.3959 189.385 27.125 190.068 31.8594C190.12 31.8594 190.172 31.8698 190.229 31.875C191.042 25.125 191.859 18.3698 192.677 11.625C192.802 11.625 192.927 11.625 193.057 11.625C193.859 18.2396 194.667 24.8542 195.469 31.474C195.552 31.4844 195.64 31.4896 195.729 31.5C196.625 22.25 197.526 12.9948 198.422 3.74482H198.864C200.026 14.2813 200.927 24.8542 201.979 35.4115C202.083 35.4219 202.182 35.4271 202.281 35.4375C203.078 29.9636 203.88 24.4948 204.677 19.0209C204.797 19.0157 204.917 19.0157 205.031 19.0104C205.989 25.5782 206.943 32.1563 207.896 38.724C207.948 38.724 208 38.724 208.052 38.724C208.745 36.1459 209.432 33.5729 210.12 30.9948C210.219 30.9844 210.328 30.9792 210.427 30.9636C211.547 35.2552 212.661 39.5417 213.807 43.9271C215.526 42.6094 216.64 43.849 217.885 44.8334C218.807 43.6563 219.687 42.5209 220.693 41.2344C221.5 42.224 222.208 43.0886 223.021 44.0834C224.151 39.4844 225.239 35.0417 226.333 30.599C226.448 30.6042 226.562 30.6042 226.677 30.6094L228.531 37.8959C228.594 37.8959 228.656 37.9063 228.713 37.9063C229.849 26.1042 230.979 14.3021 232.109 2.49482C232.245 2.49482 232.38 2.50003 232.515 2.50003C233.786 15.7657 235.057 29.0261 236.333 42.2865C236.375 42.2865 236.422 42.2865 236.463 42.2813C237.344 38.8438 238.224 35.4011 239.104 31.9636C239.203 31.9532 239.297 31.9427 239.39 31.9375C239.989 34.1719 240.588 36.4115 241.187 38.6459C241.26 38.6459 241.333 38.6459 241.401 38.6511C242.427 31.2709 243.458 23.8854 244.479 16.5C244.609 16.5 244.745 16.5 244.88 16.5C245.818 23.2136 246.76 29.9323 247.698 36.6407C247.76 36.6407 247.823 36.6407 247.885 36.6407C248.693 32.3021 249.5 27.9636 250.307 23.625C250.427 23.625 250.552 23.625 250.672 23.625C251.755 29.5417 252.849 35.4584 253.932 41.375C253.979 41.3698 254.021 41.3594 254.062 41.3594C254.943 37.9011 255.823 34.4375 256.708 30.9792C256.812 30.9792 256.911 30.974 257.015 30.9688C257.896 34.4115 258.771 37.8542 259.713 41.5365C260.672 37.5 261.583 33.6719 262.495 29.849C262.609 29.849 262.719 29.849 262.833 29.849C263.818 33.9948 264.797 38.1407 265.828 42.474C266.823 39.8282 267.76 37.349 268.698 34.8698C268.786 34.8594 268.88 34.8542 268.974 34.8438C269.724 36.8073 270.479 38.7657 271.318 40.9688C272.271 36.9896 273.172 33.2188 274.073 29.4479C274.198 29.4479 274.323 29.4532 274.453 29.4584C275.437 33.599 276.427 37.7396 277.474 42.1407C278.474 39.2344 279.39 36.5782 280.307 33.9219C280.401 33.9219 280.5 33.9219 280.599 33.9271C281.614 36.8959 282.63 39.8646 283.698 42.9896C284.406 42.3282 285.005 41.7032 285.687 41.1719C285.917 40.9896 286.474 40.8854 286.656 41.0313C287.479 41.7032 288.213 42.4688 289.036 43.2552C290.114 38.7761 291.187 34.3021 292.265 29.8282C292.385 29.8282 292.495 29.8386 292.614 29.8438C293.687 34.3073 294.765 38.7657 295.89 43.4479C296.849 40.6771 297.75 38.0677 298.651 35.4584C298.765 35.4584 298.875 35.4584 298.989 35.4584C299.776 37.724 300.568 39.9844 301.417 42.4219C302.453 38.1042 303.448 33.974 304.443 29.8438C304.557 29.8438 304.667 29.8334 304.781 29.8282C305.755 33.8386 306.729 37.8438 307.693 41.8438C307.745 41.8438 307.797 41.8438 307.844 41.8438C308.765 38.0938 309.693 34.349 310.614 30.599L310.979 30.5886C311.838 34.0625 312.703 37.5417 313.573 41.0157C313.635 41.0209 313.698 41.0261 313.76 41.0313C314.776 35.3646 315.792 29.7084 316.807 24.0469C316.922 24.0417 317.031 24.0313 317.151 24.0261C317.969 28.5365 318.797 33.0365 319.614 37.5469C319.672 37.5469 319.729 37.5469 319.792 37.5469C320.724 30.9167 321.661 24.2813 322.594 17.6511C322.724 17.6511 322.849 17.6511 322.979 17.6511C324.01 24.9479 325.042 32.2448 326.114 39.8334C327.057 36.1667 327.922 32.7917 328.786 29.4063C328.917 29.4063 329.047 29.4063 329.172 29.4063C330.349 34.0521 331.531 38.6875 332.719 43.3907C333.286 42.8594 333.776 42.3959 334.281 41.9375C334.984 41.3021 335.703 41.2813 336.417 41.9219C336.922 42.3802 337.422 42.849 337.859 43.2604C338.734 42.5 339.562 41.7032 340.479 41.0209C340.719 40.849 341.276 40.9375 341.599 41.0938C342.031 41.3073 342.38 41.6979 342.911 42.1302C343.906 38.1771 344.859 34.375 345.812 30.5677C345.927 30.5729 346.047 30.5782 346.156 30.5834C346.885 33.4375 347.62 36.3021 348.406 39.4011C349.489 31.5886 350.536 24.0469 351.578 16.5L351.969 16.4896C352.771 22.1615 353.573 27.8386 354.375 33.5104H354.474C355.427 23.5834 356.38 13.6563 357.333 3.72919C357.474 3.72919 357.625 3.72398 357.765 3.72398C358.833 13.2917 359.656 22.8959 360.786 32.4844C361.594 25.9532 362.396 19.4271 363.208 12.8959L363.568 12.9115C364.484 20.4323 365.406 27.9532 366.333 35.4688C366.385 35.474 366.448 35.4792 366.505 35.4896C367.323 29.7969 368.14 24.1042 368.958 18.4167C369.109 18.4167 369.26 18.4063 369.411 18.4011C370.318 24.7761 371.224 31.1511 372.161 37.7657C372.833 35.0469 373.453 32.5521 374.068 30.0625C374.172 30.0521 374.265 30.0417 374.364 30.0313L377.411 42.7552C377.463 42.7657 377.521 42.7709 377.578 42.7813C378.344 40.4792 379.104 38.1771 379.87 35.875C379.958 35.8698 380.052 35.8594 380.14 35.849C380.953 38.3073 381.771 40.7552 382.609 43.3021C383.39 41.6459 384.14 40.0469 385.036 38.1459C385.917 40.0157 386.667 41.6042 387.427 43.2292C388.146 42.2813 388.844 41.349 389.677 40.25C390.526 41.375 391.271 42.3646 392.088 43.4532C393.177 38.8438 394.239 34.3386 395.302 29.8282C395.417 29.8282 395.531 29.8282 395.64 29.8334C396.63 34 397.62 38.1771 398.635 42.4375C399.385 41.1667 400.088 39.9792 400.88 38.6459C401.547 39.7448 402.13 40.6979 402.812 41.8125C403.854 36.2917 404.88 30.9063 405.901 25.5209C406.031 25.5209 406.167 25.5209 406.297 25.5157C407.323 30.8698 408.349 36.2188 409.422 41.8229C410.198 39.8542 410.875 38.1146 411.557 36.375C411.661 36.375 411.76 36.375 411.864 36.3802C412.479 37.9323 413.094 39.4792 413.708 41.0313C413.776 41.0313 413.838 41.0313 413.901 41.0365C414.974 35.224 416.052 29.4115 417.125 23.599C417.245 23.6094 417.37 23.6146 417.495 23.6198C418.302 27.9219 419.104 32.2136 419.911 36.5157C419.958 36.5261 420 36.5417 420.047 36.5573C420.64 34.375 421.229 32.1979 421.823 30.0157C421.911 30.0052 422 29.9896 422.088 29.9844C422.89 33.0365 423.693 36.0886 424.542 39.3177C425.573 33.9323 426.562 28.7552 427.557 23.5782C427.677 23.5782 427.807 23.5782 427.927 23.5834C428.667 27.3802 429.411 31.1771 430.156 34.9688C430.219 34.9688 430.276 34.974 430.338 34.9792C431.213 28.8125 432.088 22.6459 432.963 16.4792H433.354C434.286 23.0104 435.219 29.5417 436.146 36.0782C436.187 36.0886 436.234 36.0886 436.281 36.099C437.239 28.2344 438.198 20.3698 439.156 12.5052C439.286 12.5104 439.406 12.5104 439.531 12.5157C440.271 18.4844 441.01 24.4479 441.75 30.4167C441.781 30.4167 441.812 30.4271 441.849 30.4271C442.76 21.0886 443.667 11.75 444.578 2.41148C444.698 2.41148 444.823 2.41148 444.943 2.41148C445.87 11.8542 446.792 21.2969 447.719 30.7344C447.812 30.7344 447.906 30.7448 448.005 30.75C448.797 24.1719 449.594 17.5938 450.39 11.0157H450.745C451.661 18.6615 452.578 26.2969 453.5 33.9427L453.635 33.9479C454.489 27.9323 455.338 21.9219 456.182 15.9063C456.312 15.9063 456.432 15.9063 456.557 15.9063C457.755 24.4688 458.953 33.0261 460.182 41.8438C460.875 40.5573 461.448 39.4896 462.161 38.1719C462.896 39.5209 463.521 40.6719 464.245 42.0104C465.328 37.5104 466.364 33.1979 467.401 28.875C467.505 28.8698 467.609 28.8646 467.713 28.8594C468.354 31.3854 468.989 33.9219 469.687 36.6927C470.745 27.9636 471.776 19.4688 472.802 10.9792C472.927 10.9792 473.047 10.9792 473.172 10.9792C474.177 19.25 475.187 27.5261 476.198 35.7969C476.26 35.7969 476.328 35.8073 476.396 35.8125C477.26 30.7292 478.125 25.6459 478.989 20.5625C479.114 20.5625 479.245 20.5677 479.37 20.5729C480.39 26.6042 481.411 32.6302 482.432 38.6563L482.583 38.6354C483.385 34.5729 484.182 30.5104 484.984 26.4479C485.109 26.4479 485.239 26.4427 485.364 26.4375C486.354 31.4948 487.344 36.5521 488.375 41.8282C489.229 39.5677 490.026 37.4896 490.812 35.4115C490.927 35.4115 491.036 35.4115 491.151 35.4115C492.068 37.8594 492.989 40.3125 493.943 42.8594C494.693 41.4427 495.385 40.1302 496.177 38.6407C496.833 39.8177 497.401 40.8542 498.057 42.0261C499.083 37.9115 500.068 33.9532 501.057 30.0052C501.151 30.0052 501.245 30.0052 501.344 30C501.948 32.3125 502.557 34.6198 503.161 36.9375C503.224 36.9375 503.281 36.9271 503.338 36.9271C504.12 33.099 504.901 29.2761 505.677 25.4479C505.797 25.4532 505.917 25.4584 506.036 25.4636C506.911 29.7709 507.781 34.0834 508.651 38.3907C508.687 38.3907 508.724 38.4011 508.76 38.4063C509.786 31.1615 510.812 23.9115 511.838 16.6615C511.963 16.6615 512.088 16.6615 512.219 16.6615C513.052 22.5 513.896 28.3438 514.734 34.1823L514.864 34.1719C515.792 26.4532 516.719 18.724 517.651 11.0052C517.771 11.0052 517.89 11.0104 518.01 11.0104C518.875 18.1511 519.739 25.2813 520.599 32.4219C520.698 32.4271 520.792 32.4375 520.89 32.4479C521.864 22.5313 522.844 12.6146 523.823 2.69794C523.948 2.69794 524.078 2.70315 524.203 2.70836C525.12 11.9479 526.036 21.1875 526.953 30.4323C526.979 30.4323 527.005 30.4271 527.031 30.4219C527.771 24.4532 528.505 18.4792 529.245 12.5104C529.375 12.5104 529.495 12.5104 529.62 12.5104C530.526 19.9323 531.437 27.3542 532.344 34.7761L532.557 34.7917C533.385 29.0677 534.213 23.3386 535.036 17.6146C535.161 17.6146 535.292 17.6198 535.411 17.625C536.333 23.9896 537.245 30.3594 538.167 36.7292C538.255 36.7292 538.344 36.7344 538.432 36.7344C539.234 32.6667 540.042 28.5938 540.844 24.5261C540.969 24.5261 541.099 24.5261 541.219 24.5261C542.318 30.1875 543.411 35.8438 544.542 41.6615C545.187 40.4688 545.755 39.4271 546.448 38.1459C547.286 39.7292 548.005 41.0782 548.792 42.5729C549.896 38.0886 550.963 33.7604 552.026 29.4323C552.151 29.4271 552.271 29.4167 552.39 29.4063C553.015 31.8125 553.635 34.2136 554.26 36.625C554.302 36.625 554.344 36.6302 554.385 36.6354C555.406 27.9792 556.427 19.3177 557.443 10.6615C557.573 10.6615 557.708 10.6615 557.838 10.6615C558.797 18.75 559.76 26.8334 560.719 34.9219C560.771 34.9219 560.823 34.9167 560.87 34.9115C561.672 30.2604 562.474 25.6094 563.271 20.9584C563.39 20.9584 563.505 20.9584 563.63 20.9584C564.844 28.1302 566.062 35.3073 567.323 42.75C568.229 40.2865 569.052 38.0573 569.87 35.8282L570.14 35.8125C570.88 37.7813 571.609 39.75 572.437 41.9636C573.484 37.7604 574.463 33.7917 575.443 29.8282C575.557 29.8177 575.672 29.8073 575.786 29.7969C576.755 33.6927 577.724 37.5886 578.698 41.4844H578.838C579.771 37.6042 580.703 33.724 581.63 29.8438C581.745 29.8334 581.854 29.8282 581.969 29.8229C582.849 33.474 583.734 37.1302 584.614 40.7865C584.677 40.7865 584.739 40.7969 584.802 40.7969C585.807 35.2032 586.812 29.6146 587.818 24.0209C587.932 24.0261 588.047 24.0313 588.161 24.0365C588.979 28.5157 589.786 32.9948 590.604 37.4792C590.656 37.4792 590.703 37.4844 590.755 37.4896C591.703 30.5573 592.651 23.6302 593.599 16.6979C593.724 16.6979 593.849 16.6979 593.979 16.6979C594.948 23.7448 595.911 30.7917 596.88 37.8386C596.943 37.849 597.005 37.8542 597.068 37.8698C597.849 34.7448 598.63 31.6198 599.411 28.4896C599.536 28.4844 599.656 28.4688 599.786 28.4636C600.917 33.0782 602.042 37.6927 603.187 42.3802C603.713 41.8959 604.198 41.4271 604.703 40.9844C605.359 40.4011 606.005 40.3282 606.765 40.8854C610.484 43.6094 610.677 48.2709 608.515 51.0157C607.864 51.8386 607.015 52.5209 606.177 53.1719C605.984 53.3229 605.406 53.1667 605.125 52.9688C604.484 52.5209 603.922 51.9636 603.229 51.3646C602.068 56.1354 600.922 60.8282 599.781 65.5209C599.667 65.5261 599.557 65.5313 599.443 65.5313C598.76 62.7969 598.073 60.0677 597.385 57.3334C597.328 57.3282 597.26 57.3229 597.198 57.3177C596.125 65.1771 595.052 73.0313 593.984 80.8907C593.885 80.8959 593.786 80.9063 593.687 80.9167C592.536 74.0157 591.781 67.0625 590.583 60.1511C589.781 64.5938 588.974 69.0365 588.172 73.474C588.052 73.4792 587.937 73.4792 587.823 73.4896C586.812 67.8802 585.812 62.2709 584.802 56.6615C584.75 56.6511 584.698 56.6459 584.64 56.6407C583.76 60.2969 582.88 63.9532 582 67.6146C581.88 67.625 581.75 67.6302 581.63 67.6407C580.656 63.5573 579.677 59.4792 578.635 55.1094C577.651 59.0782 576.734 62.7709 575.812 66.4636C575.698 66.4792 575.583 66.4948 575.463 66.5104C574.552 62.8542 573.64 59.2032 572.677 55.3438C571.797 57.7448 570.979 59.9636 570.161 62.1823C570.073 62.1979 569.989 62.2136 569.901 62.2292C568.932 59.5729 567.953 56.9115 566.979 54.2604L566.807 54.2813C565.745 60.5209 564.682 66.7604 563.62 72.9948C563.51 73.0052 563.406 73.0209 563.297 73.0261C562.51 68.5 561.729 63.9792 560.937 59.4479C560.89 59.4532 560.844 59.4584 560.797 59.4688C559.807 67.8229 558.818 76.1823 557.833 84.5313C557.708 84.5365 557.583 84.5417 557.453 84.5469C556.437 75.9063 555.417 67.2709 554.401 58.625C554.359 58.625 554.318 58.625 554.271 58.625C553.64 61.1094 553.01 63.5834 552.37 66.0625C552.276 66.0729 552.177 66.0834 552.078 66.0886C551.094 62.1042 550.104 58.1198 549.057 53.8854C548.161 55.599 547.37 57.125 546.437 58.9167C545.635 57.3854 544.974 56.1146 544.245 54.7188C543.213 60.0209 542.213 65.1927 541.208 70.3646C541.094 70.375 540.974 70.3907 540.859 70.4011C540.073 66.4219 539.286 62.4479 538.505 58.4636C538.453 58.4636 538.401 58.4636 538.349 58.4636C537.364 65.3282 536.38 72.1927 535.396 79.0521C535.286 79.0625 535.182 79.0729 535.073 79.0834C534.229 73.3646 533.39 67.6459 532.552 61.9167C531.406 69.1771 530.672 76.4584 529.62 83.6927C529.463 83.6927 529.312 83.6927 529.156 83.6927C528.411 77.6042 527.661 71.5157 526.911 65.4271C526.854 65.4271 526.792 65.4271 526.729 65.4219C525.901 73.7552 525.073 82.0938 524.245 90.4219C524.078 90.4219 523.917 90.4271 523.755 90.4323C522.792 80.6302 521.828 70.8282 520.864 61.0261C520.833 61.0261 520.797 61.0157 520.755 61.0104C519.833 68.6615 518.911 76.3021 517.984 83.9479L517.651 83.9636C516.713 76.2084 515.781 68.4479 514.849 60.6875C514.818 60.6823 514.786 60.6771 514.755 60.6719C513.906 66.6094 513.047 72.5469 512.198 78.4844C512.078 78.4896 511.953 78.5 511.833 78.5052C510.828 71.4271 509.818 64.349 508.818 57.2709C508.734 57.2709 508.651 57.2761 508.568 57.2813C507.708 61.5313 506.849 65.7865 505.989 70.0365C505.896 70.0521 505.797 70.0625 505.703 70.0782C504.937 66.3438 504.177 62.6094 503.37 58.6563C502.667 61.3802 502.015 63.9219 501.359 66.4688C501.25 66.4844 501.14 66.4948 501.031 66.5104C500.12 62.8542 499.203 59.1927 498.255 55.4219C497.562 56.75 496.922 57.9688 496.172 59.4115C495.286 57.6927 494.5 56.1615 493.63 54.474C492.75 56.8177 491.922 59.0209 491.094 61.2188C491.01 61.2292 490.922 61.2396 490.838 61.2448C490.12 59.375 489.406 57.4948 488.588 55.3646C487.463 61.1354 486.39 66.6511 485.318 72.1719C485.213 72.1771 485.104 72.1875 485 72.1927L482.125 57.5052C482.068 57.5052 482.01 57.5052 481.953 57.5052C481.078 62.6667 480.198 67.8282 479.323 72.9948C479.213 72.9948 479.104 73 478.995 73.0052C478.125 67.9063 477.265 62.7969 476.396 57.6979C476.344 57.6927 476.286 57.6875 476.234 57.6823C475.208 66.1198 474.172 74.5677 473.146 83.0052C473.031 83.0104 472.917 83.0209 472.797 83.0261C471.812 74.9375 470.833 66.8542 469.849 58.7657C469.771 58.7604 469.698 58.7552 469.625 58.75C468.995 61.3229 468.354 63.8907 467.724 66.4636L467.39 66.5052C466.443 62.5625 465.489 58.6198 464.479 54.4427C463.698 55.9479 463 57.2917 462.156 58.9219C461.344 57.375 460.651 56.0625 459.88 54.5886C458.745 62.6771 457.64 70.5886 456.536 78.4896C456.417 78.4896 456.292 78.4948 456.172 78.5C455.364 72.8334 454.552 67.1615 453.745 61.4896C453.651 61.5 453.557 61.5104 453.463 61.5157C452.552 69.1198 451.64 76.724 450.724 84.3282C450.609 84.3386 450.489 84.3438 450.37 84.3542C449.531 77.3594 448.682 70.3594 447.844 63.3594L447.724 63.375C446.792 72.9271 445.859 82.4792 444.927 92.0313C444.828 92.0365 444.734 92.0469 444.64 92.0521C443.594 83.2917 442.901 74.4948 441.802 65.7292C441.062 71.7188 440.333 77.7084 439.594 83.6979C439.437 83.6979 439.286 83.6979 439.13 83.6979C437.984 75.9219 437.239 68.099 436.229 60.3021C436.13 60.3021 436.021 60.3021 435.922 60.3021C435.057 66.3698 434.193 72.4323 433.328 78.5052C433.213 78.5104 433.088 78.5209 432.974 78.5365C432.036 71.9479 431.104 65.3542 430.14 58.5313C429.364 62.474 428.635 66.1927 427.906 69.9115L427.568 69.9323C426.646 65.1407 425.719 60.3542 424.755 55.3334C423.844 58.8698 422.984 62.1875 422.125 65.5104C422.015 65.5209 421.906 65.5313 421.802 65.5417C421.187 63.2552 420.573 60.974 419.911 58.5313C419.083 62.9792 418.276 67.2709 417.474 71.5573L417.13 71.5834C416.151 66.3229 415.172 61.0573 414.172 55.6511C413.375 57.7292 412.625 59.6719 411.875 61.6198C411.776 61.6354 411.667 61.6563 411.568 61.6771C410.864 59.8802 410.156 58.0886 409.338 56.0157C408.276 61.5677 407.265 66.8542 406.26 72.1407C406.151 72.1511 406.042 72.1615 405.932 72.1719C404.854 66.5261 403.776 60.8854 402.651 54.9948C402.01 56.0313 401.5 56.8698 400.854 57.9063C400.13 56.6719 399.515 55.6302 398.849 54.5C397.75 59.1511 396.687 63.6719 395.625 68.1927C395.51 68.1927 395.401 68.1927 395.286 68.1979C394.172 63.4427 393.057 58.6875 391.911 53.7917C391.307 54.6094 390.745 55.3334 390.229 56.0834C389.812 56.6823 389.484 56.6823 389.094 56.0573C388.76 55.5365 388.37 55.0521 387.927 54.4532C386.979 56.5625 386.083 58.5469 385.193 60.5313C385.094 60.5469 385 60.5573 384.906 60.5677C384.265 59.2136 383.63 57.849 382.917 56.3229C381.969 59.1927 381.068 61.9427 380.167 64.6875C380.057 64.6927 379.948 64.6979 379.833 64.7032C378.953 62.0261 378.078 59.3542 377.14 56.5157C376.193 60.5 375.271 64.3386 374.359 68.1771C374.26 68.1771 374.172 68.1823 374.073 68.1875C373.484 65.875 372.896 63.5573 372.307 61.2448C372.224 61.25 372.14 61.2604 372.057 61.2761C371.151 67.6667 370.25 74.0521 369.344 80.4427C369.224 80.4427 369.109 80.4532 368.984 80.4584C368.12 74.3334 367.255 68.2032 366.385 62.0782C366.359 62.0782 366.323 62.0782 366.292 62.0729C365.375 69.4896 364.463 76.9063 363.547 84.3282C363.432 84.3386 363.312 84.349 363.193 84.3594C362.401 78.0104 361.614 71.6615 360.823 65.3177C360.708 65.3125 360.594 65.3125 360.474 65.3073C359.588 74.3959 358.708 83.4844 357.823 92.5729C357.667 92.5729 357.51 92.5729 357.354 92.5729C356.219 82.7917 355.469 72.9688 354.463 63.1771C354.385 63.1771 354.307 63.1823 354.224 63.1875C353.463 68.5886 352.708 73.9844 351.953 79.3907L351.635 79.4167C350.432 72.2604 349.63 65.0469 348.432 57.849L346.109 67.0521C346.01 67.0521 345.906 67.0625 345.802 67.0677C344.625 62.3125 343.448 57.5521 342.265 52.7604C340.984 53.8698 340.588 53.6875 339.771 52.8125C339.37 52.3854 338.849 52.0677 338.422 51.7292C337.588 52.5157 336.776 53.3386 335.88 54.0521C335.651 54.2396 335.026 54.2344 334.781 54.0521C333.979 53.4532 333.271 52.724 332.458 51.9844C331.338 56.3907 330.224 60.7604 329.114 65.125C329.015 65.125 328.917 65.1302 328.812 65.1354C328.015 62.0782 327.224 59.0104 326.359 55.6927C325.193 64.0052 324.068 72.0313 322.943 80.0521C322.828 80.0625 322.719 80.0625 322.604 80.0729C321.672 73.4896 320.734 66.9011 319.802 60.3177C319.708 60.3282 319.614 60.3334 319.521 60.3386C318.724 64.7084 317.937 69.0782 317.14 73.4479C317.031 73.4584 316.917 73.474 316.797 73.4792C315.802 67.9584 314.797 62.4323 313.797 56.9115C313.713 56.9167 313.635 56.9271 313.552 56.9375C312.687 60.4323 311.823 63.9323 310.958 67.4271C310.838 67.4271 310.724 67.4375 310.609 67.4427C309.646 63.5365 308.682 59.625 307.661 55.4584C306.651 59.6302 305.713 63.5209 304.776 67.4219L304.432 67.4584C303.495 63.5886 302.557 59.7188 301.62 55.849C301.562 55.849 301.505 55.849 301.443 55.849C300.604 58.2761 299.771 60.6979 298.932 63.1198C298.849 63.1407 298.765 63.1563 298.682 63.1719C297.719 60.375 296.75 57.5782 295.703 54.5261C294.625 58.9896 293.609 63.2084 292.594 67.4323C292.469 67.4323 292.354 67.4375 292.229 67.4427C291.042 62.4479 289.849 57.4532 288.625 52.3177C288.01 52.8646 287.39 53.3334 286.864 53.8907C286.375 54.4115 286.042 54.3854 285.573 53.8646C285.068 53.3073 284.458 52.849 283.792 52.2604C282.713 55.4375 281.656 58.5209 280.604 61.6094C280.495 61.6198 280.385 61.6302 280.276 61.6459C279.422 59.1719 278.568 56.6979 277.614 53.9427C276.51 58.6146 275.469 63.0052 274.422 67.3959C274.307 67.4115 274.187 67.4271 274.073 67.4427C273.083 63.3125 272.099 59.1823 271.094 54.9532C270.364 56.8594 269.667 58.6771 268.974 60.4948C268.875 60.5 268.776 60.5 268.677 60.5104C267.87 58.3854 267.068 56.2657 266.172 53.8907C265.005 58.8334 263.906 63.5157 262.807 68.1979C262.698 68.1979 262.588 68.2032 262.479 68.2084C261.573 64.375 260.661 60.5417 259.693 56.4479C258.745 60.1563 257.87 63.6094 256.989 67.0677C256.89 67.0677 256.786 67.0782 256.687 67.0834L253.792 55.6667C253.739 55.6771 253.687 55.6823 253.635 55.6927C252.635 61.1563 251.635 66.625 250.63 72.0886C250.521 72.0938 250.411 72.1042 250.297 72.1146C249.479 67.7032 248.661 63.2917 247.849 58.8802C247.802 58.8698 247.765 58.8646 247.719 58.8594C246.765 65.7084 245.807 72.5521 244.849 79.4011C244.75 79.4115 244.651 79.4219 244.552 79.4271C243.406 72.8959 242.719 66.2865 241.484 59.7292C240.802 62.3698 240.12 65.0104 239.437 67.6511C239.312 67.6719 239.198 67.6823 239.073 67.6979C238.078 63.8073 237.083 59.9115 236.015 55.7396C234.818 68.1667 233.651 80.3021 232.484 92.4323C232.349 92.4323 232.219 92.4427 232.094 92.4427C231.031 81.3907 229.969 70.3386 228.906 59.2865L228.713 59.2657C228.031 61.9948 227.344 64.7188 226.661 67.4479C226.547 67.4584 226.432 67.4636 226.318 67.474C225.26 63.1459 224.203 58.8229 223.094 54.2917C222.26 55.3073 221.505 56.2292 220.682 57.2292C219.739 56.0313 218.823 54.8802 217.88 53.6927C216.578 54.6615 215.333 56.2344 213.505 54.25C212.437 58.349 211.427 62.2292 210.417 66.1146C210.323 66.1198 210.229 66.1302 210.135 66.1407L208.234 59.1042C208.172 59.1042 208.104 59.1042 208.047 59.099C207.036 66.0886 206.026 73.0782 205.021 80.0625C204.911 80.0782 204.802 80.0886 204.687 80.099C203.823 74.1459 202.958 68.1979 202.088 62.25C202 62.2552 201.917 62.2657 201.828 62.2657C200.828 72.5209 199.833 82.7761 198.838 93.0365C198.719 93.0365 198.599 93.0417 198.484 93.0469C197.562 83.5625 196.64 74.0782 195.719 64.5938C195.63 64.5886 195.536 64.5782 195.443 64.5729C194.667 70.9584 193.885 77.3386 193.109 83.7188C192.937 83.7188 192.765 83.7136 192.604 83.7084C191.833 77.3646 191.068 71.0209 190.302 64.6771C190.271 64.6771 190.234 64.6719 190.203 64.6719C189.469 69.8021 188.729 74.9375 187.989 80.0677C187.88 80.0729 187.776 80.0782 187.667 80.0834C186.63 72.7032 185.594 65.3125 184.521 57.6459C183.693 60.9688 182.943 64.0052 182.193 67.0469C182.088 67.0573 181.995 67.0729 181.896 67.0886C180.948 63.2188 180 59.349 178.989 55.224C178.193 57.3802 177.479 59.3021 176.765 61.224C176.682 61.2448 176.594 61.2552 176.5 61.2761C175.568 58.724 174.635 56.1667 173.651 53.4844C172.854 54.9479 172.104 56.3282 171.219 57.9532C170.453 56.5625 169.823 55.4115 169.073 54.0469C168.385 54.7969 167.771 55.4636 167.166 56.1354C166.609 56.75 166.161 56.7448 165.594 56.1094C165.057 55.5052 164.489 54.9323 163.807 54.2032C162.755 58.1407 161.76 61.849 160.765 65.5573L160.406 65.5729C159.437 61.9688 158.469 58.3594 157.479 54.6719C156.849 55.7552 156.281 56.7292 155.562 57.9532C154.75 56.5677 154.057 55.3907 153.255 54.0209C152.125 59.6927 151.036 65.1667 149.948 70.6407C149.823 70.6459 149.698 70.6511 149.573 70.6615C148.64 65.9844 147.703 61.3021 146.713 56.3646C145.906 58.4479 145.182 60.3282 144.458 62.2084C144.375 62.2084 144.297 62.2188 144.213 62.224C143.281 59.7292 142.349 57.2396 141.38 54.6615C140.818 55.5886 140.291 56.4532 139.693 57.4323C139.135 56.5157 138.656 55.7292 138.114 54.8386C137.062 58.9948 136.047 63.0365 135.026 67.0729C134.927 67.0834 134.823 67.0886 134.724 67.0938C133.911 63.9271 133.104 60.7604 132.234 57.3646C131.208 62.5782 130.229 67.5729 129.245 72.5677C129.125 72.5782 129.01 72.5886 128.89 72.5938L126.286 59.4219C126.245 59.4219 126.198 59.4219 126.151 59.4219L123.255 79.5C123.135 79.5104 123.021 79.5261 122.901 79.5313C122.057 73.7396 121.213 67.9427 120.37 62.1511C120.328 62.1511 120.291 62.1511 120.255 62.1563C119.344 69.599 118.437 77.0417 117.526 84.4844C117.354 84.4844 117.187 84.4844 117.021 84.4844C116.307 78.724 115.599 72.9584 114.885 67.1927C114.833 67.1875 114.776 67.1823 114.724 67.1719C113.828 76.2396 112.932 85.3073 112.036 94.3802L111.672 94.3854C110.75 85.0417 109.828 75.6979 108.911 66.3542C108.807 66.3594 108.708 66.3646 108.609 66.3698C107.818 72.75 107.026 79.125 106.239 85.5C106.109 85.5104 105.989 85.5157 105.864 85.5209C104.927 77.9219 104 70.3229 103.068 62.724C103.021 62.7188 102.974 62.7188 102.922 62.7084C102.088 68.4844 101.255 74.2604 100.416 80.0417C100.307 80.0469 100.193 80.0521 100.083 80.0625C99.203 73.9063 98.3175 67.7604 97.4373 61.6094C97.38 61.6094 97.3175 61.6094 97.2602 61.6042C96.5102 65.4271 95.755 69.25 95.005 73.0782C94.8905 73.0886 94.7863 73.1042 94.6717 73.1094C93.505 67.0782 92.3436 61.0469 91.1561 54.8907C90.4738 56.2084 89.8384 57.4219 89.0571 58.9271C88.1405 57.1771 87.3436 55.6563 86.4373 53.9115C85.2707 58.6511 84.1665 63.1302 83.0623 67.6146C82.9425 67.6302 82.8228 67.6459 82.703 67.6615C82.005 64.9427 81.3123 62.2136 80.6144 59.4948C80.5571 59.4948 80.505 59.5052 80.4478 59.5052C79.3852 68.474 78.3228 77.4375 77.255 86.4063L76.9321 86.4323C75.8332 78.8021 75.0884 71.125 74.0155 63.474H74.0571Z" fill="#E5E6E6"/>
</g>
</g>
</svg>
