<svg width="90" height="90" viewBox="0 0 90 90" fill="none" xmlns="http://www.w3.org/2000/svg">
<g clip-path="url(#clip0_440_1405)">
<path d="M45.0316 90.0001C44.2657 90.0001 43.5737 89.4834 43.3512 88.752C43.1469 88.0809 43.3721 87.3287 43.9165 86.8838C44.5106 86.3985 45.3688 86.3589 46.007 86.7815C46.5973 87.1723 46.8965 87.9067 46.7522 88.5989C46.5843 89.4038 45.8552 90.0001 45.0316 90.0001Z" fill="#3E6B7F"/>
<path d="M78.422 87.4816L67.1776 64.0529C66.8851 63.4433 66.2688 63.0557 65.5927 63.0557H57.7058C58.9134 61.5275 60.1129 60.0107 61.2439 58.5824C63.3856 55.8779 65.6001 53.0814 67.5843 50.216C71.0843 45.1605 75.102 38.2946 75.102 30.0055C75.1022 13.4603 61.5985 0 45 0C28.4016 0 14.898 13.4603 14.898 30.0053C14.898 38.2946 18.9154 45.1603 22.4156 50.2158C24.3975 53.0786 26.6133 55.8765 28.7558 58.5823C29.887 60.0107 31.0864 61.5273 32.294 63.0555H24.4072C23.7311 63.0555 23.115 63.4433 22.8224 64.0528L11.578 87.4816C11.3166 88.0263 11.3531 88.667 11.675 89.1784C11.9969 89.6897 12.5587 90 13.1628 90H37.0538C38.0246 90 38.8116 89.213 38.8116 88.2422C38.8116 87.2713 38.0246 86.4844 37.0538 86.4844H15.9562L25.5132 66.5712H35.0704C37.5924 69.766 39.9413 72.7458 41.5362 74.77H36.9726C36.0017 74.77 35.2148 75.5569 35.2148 76.5278C35.2148 77.4986 36.0017 78.2856 36.9726 78.2856H53.0274C53.998 78.2856 54.7852 77.4986 54.7852 76.5278C54.7852 75.5569 53.998 74.77 53.0274 74.77H48.4637C50.0588 72.7457 52.4076 69.766 54.9295 66.5712H64.4867L74.0438 86.4844H52.9463C51.9755 86.4844 51.1885 87.2713 51.1885 88.2422C51.1885 89.213 51.9757 90 52.9463 90H76.8371C77.4411 90 78.0031 89.6897 78.3249 89.1784C78.6466 88.667 78.6834 88.0263 78.422 87.4816ZM25.306 48.2145C22.0971 43.5795 18.4136 37.3212 18.4136 30.0053C18.4136 15.399 30.3402 3.51562 45 3.51562C59.6598 3.51562 71.5865 15.399 71.5865 30.0053C71.5865 37.321 67.9032 43.5795 64.6941 48.2143C62.7743 50.9869 60.5953 53.7386 58.4878 56.3998C53.6924 62.4558 47.6689 70.098 45 73.4855C42.3311 70.0979 36.3074 62.4556 31.5119 56.3998C29.4036 53.7374 27.2237 50.9845 25.306 48.2145Z" fill="#3E6B7F"/>
<path d="M45 48.0233C35.0167 48.0233 26.8945 39.9263 26.8945 29.9737C26.8945 20.021 35.0167 11.924 45 11.924C54.9833 11.924 63.1055 20.021 63.1055 29.9737C63.1055 39.9263 54.9833 48.0233 45 48.0233ZM45 15.4398C36.9552 15.4398 30.4102 21.9597 30.4102 29.9739C30.4102 37.9879 36.9552 44.5078 45 44.5078C53.045 44.5078 59.5898 37.9879 59.5898 29.9739C59.5898 21.9597 53.045 15.4398 45 15.4398Z" fill="#3E6B7F"/>
</g>
<defs>
<clipPath id="clip0_440_1405">
<rect width="90" height="90" fill="white"/>
</clipPath>
</defs>
</svg>
