<svg width="90" height="90" viewBox="0 0 90 90" fill="none" xmlns="http://www.w3.org/2000/svg">
<path d="M62.3529 27.2076C64.049 27.2076 65.429 25.8275 65.429 24.1314V22.1869C65.429 20.4908 64.049 19.1107 62.3529 19.1107H27.647C25.9509 19.1107 24.5708 20.4908 24.5708 22.1869V24.1314C24.5708 25.8275 25.9509 27.2076 27.647 27.2076H62.3529ZM27.2075 24.1314V22.1869C27.2075 21.9445 27.4047 21.7474 27.647 21.7474H62.3527C62.5951 21.7474 62.7921 21.9445 62.7921 22.1869V24.1314C62.7921 24.3738 62.5951 24.5708 62.3527 24.5708H27.647C27.4047 24.5708 27.2075 24.3738 27.2075 24.1314Z" fill="#3E6B7F"/>
<path d="M13.6504 34.4723V36.4168C13.6504 38.1129 15.0304 39.493 16.7266 39.493H62.3527C64.0488 39.493 65.4289 38.1129 65.4289 36.4168V34.4723C65.4289 32.7762 64.0488 31.3961 62.3527 31.3961H60.7076C59.9793 31.3961 59.3892 31.9862 59.3892 32.7145C59.3892 33.4427 59.9793 34.0328 60.7076 34.0328H62.3527C62.5951 34.0328 62.7921 34.2299 62.7921 34.4723V36.4168C62.7921 36.6592 62.5951 36.8562 62.3527 36.8562H16.7266C16.4843 36.8562 16.2871 36.6592 16.2871 36.4168V34.4723C16.2871 34.2299 16.4843 34.0328 16.7266 34.0328H54.5552C55.2835 34.0328 55.8736 33.4427 55.8736 32.7145C55.8736 31.9862 55.2835 31.3961 54.5552 31.3961H16.7266C15.0304 31.3961 13.6504 32.7762 13.6504 34.4723Z" fill="#3E6B7F"/>
<path d="M13.6504 48.7023C13.6504 50.3984 15.0304 51.7785 16.7266 51.7785H48.7022C50.3983 51.7785 51.7784 50.3984 51.7784 48.7023V46.7578C51.7784 45.0617 50.3983 43.6816 48.7022 43.6816H16.7266C15.0304 43.6816 13.6504 45.0617 13.6504 46.7578V48.7023ZM16.2871 46.7578C16.2871 46.5154 16.4843 46.3184 16.7266 46.3184H48.7022C48.9445 46.3184 49.1417 46.5154 49.1417 46.7578V48.7023C49.1417 48.9447 48.9445 49.1418 48.7022 49.1418H16.7266C16.4843 49.1418 16.2871 48.9447 16.2871 48.7023V46.7578Z" fill="#3E6B7F"/>
<path d="M59.0832 73.2332C59.5984 73.7481 60.4328 73.7479 60.9477 73.2332L65.0429 69.1381C65.5577 68.623 65.5577 67.7884 65.0429 67.2735L60.9477 63.1784C60.4326 62.6637 59.598 62.6637 59.0832 63.1784C58.5683 63.6934 58.5683 64.528 59.0832 65.0429L62.2462 68.2057L59.0832 71.3685C58.5683 71.8836 58.5683 72.7184 59.0832 73.2332Z" fill="#3E6B7F"/>
<path d="M45.9321 63.1784C45.4172 62.6637 44.5824 62.6637 44.0678 63.1784L39.9726 67.2735C39.4577 67.7886 39.4577 68.6232 39.9726 69.1381L44.0678 73.2332C44.5828 73.7481 45.4174 73.7479 45.9321 73.2332C46.447 72.7182 46.447 71.8836 45.9321 71.3687L42.7691 68.2059L45.9321 65.0431C46.447 64.528 46.447 63.6934 45.9321 63.1784Z" fill="#3E6B7F"/>
<path d="M51.6394 72.8907L55.7346 64.7003C56.0603 64.0491 55.7963 63.2572 55.145 62.9316C54.4934 62.6057 53.7017 62.8698 53.3763 63.5212L49.2811 71.7116C48.9554 72.3628 49.2194 73.1547 49.8707 73.4803C50.5216 73.8062 51.3139 73.5418 51.6394 72.8907Z" fill="#3E6B7F"/>
<path d="M84.5398 59.333C84.5398 53.7135 79.9681 49.1418 74.3486 49.1418H73.6194V20.4291C73.6194 16.2642 71.9973 12.3483 69.0525 9.40307L64.2164 4.56697C61.271 1.62211 57.3553 0 53.1903 0H8.53625C6.84014 0 5.46008 1.38006 5.46008 3.07617V16.818C5.46008 17.5463 6.05036 18.1364 6.77844 18.1364C7.50653 18.1364 8.0968 17.5463 8.0968 16.818V3.07617C8.0968 2.83377 8.29403 2.63672 8.53625 2.63672H53.1901C55.7235 2.63672 57.7845 4.69775 57.7845 7.23111V12.7586C57.7845 14.4547 59.1646 15.8347 60.8607 15.8347H66.3881C68.9215 15.8347 70.9825 17.8958 70.9825 20.4291V59.7565L68.7204 56.3634C67.9851 55.2605 66.7548 54.6021 65.4296 54.6021H36.7163C34.5354 54.6021 32.7612 56.3764 32.7612 58.5571V77.8546C32.7612 80.0353 34.5354 81.8096 36.7163 81.8096H40.9048C41.6329 81.8096 42.2231 81.2196 42.2231 80.4913C42.2231 79.763 41.6329 79.1729 40.9048 79.1729H36.7163C35.9892 79.1729 35.3979 78.5816 35.3979 77.8546V58.5571C35.3979 57.8301 35.9892 57.2388 36.7163 57.2388H65.4298C65.8715 57.2388 66.2816 57.4583 66.5267 57.8259L72.5677 66.8876H69.5708C68.8426 66.8876 68.2525 67.4777 68.2525 68.2059C68.2525 68.9342 68.8426 69.5243 69.5708 69.5243H72.5677L66.5267 78.586C66.2814 78.9536 65.8713 79.1731 65.4298 79.1731H47.0571C46.329 79.1731 45.7388 79.7632 45.7388 80.4915C45.7388 81.2197 46.329 81.8098 47.0571 81.8098H65.4298C66.755 81.8098 67.9853 81.1515 68.7206 80.0485L70.9827 76.6554V86.9238C70.9827 87.1662 70.7857 87.3633 70.5433 87.3633H8.53625C8.29403 87.3633 8.0968 87.1662 8.0968 86.9238V22.9704C8.0968 22.2421 7.50653 21.652 6.77844 21.652C6.05036 21.652 5.46008 22.2421 5.46008 22.9704V86.9238C5.46008 88.6199 6.84014 90 8.53625 90H70.5431C72.2392 90 73.6193 88.6199 73.6193 86.9238V72.7001L75.1531 70.3995C75.3539 70.0984 75.5091 69.7772 75.6189 69.4454C80.6412 68.8182 84.5398 64.5224 84.5398 59.333ZM66.3883 13.198H60.8607C60.6183 13.198 60.4213 13.001 60.4213 12.7586V7.23111C60.4213 6.26273 60.2298 5.33813 59.883 4.49332C60.7705 5.03086 61.5992 5.67914 62.3515 6.43166L67.1876 11.2678C67.9401 12.0201 68.5886 12.8487 69.1259 13.7362C68.2811 13.3894 67.3567 13.198 66.3883 13.198ZM75.5564 66.7909C75.4527 66.5211 75.3182 66.2597 75.1529 66.0118L73.6193 63.7114V51.7785H74.3484C78.5139 51.7785 81.9029 55.1674 81.9029 59.333C81.9031 63.0875 79.1499 66.211 75.5564 66.7909Z" fill="#3E6B7F"/>
</svg>
