<svg width="92" height="92" viewBox="0 0 92 92" fill="none" xmlns="http://www.w3.org/2000/svg">
<path d="M4.125 78.3594V72.3594H7.125V69.3594H4.125V63.3594H10.125V60.3594H4.125V54.3594H7.125V51.3594H4.125V45.3594H10.125V42.3594H4.125V36.3594H7.125V33.3594H4.125V27.3594H10.125V24.3594H4.125V18.3594H7.125V15.3594H4.125V9.35938H10.125V6.35938H4.125V0.359375H1.125V79.8594C1.125 80.6878 1.79662 81.3594 2.625 81.3594H91.125V78.3594H4.125Z" fill="#3E6B7F"/>
<path d="M19.125 84.3594H16.125V90.3594H19.125V84.3594Z" fill="#3E6B7F"/>
<path d="M25.125 84.3594H22.125V90.3594H25.125V84.3594Z" fill="#3E6B7F"/>
<path d="M40.125 84.3594H37.125V90.3594H40.125V84.3594Z" fill="#3E6B7F"/>
<path d="M46.125 84.3594H43.125V90.3594H46.125V84.3594Z" fill="#3E6B7F"/>
<path d="M61.125 84.3594H58.125V90.3594H61.125V84.3594Z" fill="#3E6B7F"/>
<path d="M67.125 84.3594H64.125V90.3594H67.125V84.3594Z" fill="#3E6B7F"/>
<path d="M82.125 84.3594H79.125V90.3594H82.125V84.3594Z" fill="#3E6B7F"/>
<path d="M88.125 84.3594H85.125V90.3594H88.125V84.3594Z" fill="#3E6B7F"/>
<path d="M17.3484 74.4025C18.3249 75.032 19.4632 75.3644 20.625 75.3593C23.9387 75.3593 26.625 72.673 26.625 69.3593C26.6184 68.3716 26.3647 67.4011 25.887 66.5363L37.896 57.5288C40.467 59.585 44.2183 59.1676 46.2744 56.5966C46.4559 56.3697 46.6206 56.1297 46.767 55.8788L56.6355 58.7093C56.6355 58.7588 56.625 58.8083 56.625 58.8593C56.625 62.173 59.3113 64.8593 62.625 64.8593C65.9387 64.8593 68.625 62.173 68.625 58.8593V58.8488C68.613 57.5594 68.1859 56.308 67.407 55.2803L80.757 38.5973C81.6332 39.0899 82.62 39.352 83.625 39.3593C86.9634 39.3843 89.6901 36.698 89.7148 33.3595C89.7396 30.0211 87.0534 27.2945 83.715 27.2697C80.3766 27.2448 77.6499 29.9311 77.6252 33.2695C77.6166 34.4268 77.9404 35.5623 78.558 36.5408L65.058 53.4158C64.815 53.3029 64.5643 53.2073 64.308 53.1293C61.6845 52.3722 58.8808 53.4818 57.486 55.8293L47.6145 53.0093C47.6145 52.9598 47.625 52.9103 47.625 52.8593C47.6293 50.1845 45.8702 47.8268 43.305 47.0693C40.1488 46.1245 36.8241 47.9174 35.8792 51.0736C35.4801 52.4073 35.5597 53.8386 36.1048 55.1198L23.8498 64.3163C21.0647 62.521 17.3512 63.3233 15.5559 66.1086C13.7608 68.8938 14.5633 72.607 17.3484 74.4025ZM83.625 30.3593C85.2819 30.3593 86.625 31.7024 86.625 33.3593C86.625 35.0163 85.2819 36.3593 83.625 36.3593C81.9681 36.3593 80.625 35.0163 80.625 33.3593C80.625 31.7024 81.9681 30.3593 83.625 30.3593ZM59.745 58.0493C60.2072 56.4738 61.8592 55.5713 63.4346 56.0335C65.0102 56.4957 65.9126 58.1478 65.4504 59.7231C64.9882 61.2987 63.3362 62.2011 61.7608 61.739C60.4813 61.3636 59.6081 60.1821 59.625 58.8488C59.6237 58.5777 59.6642 58.3081 59.745 58.0493ZM38.7446 51.9908C38.7448 51.9903 38.745 51.9897 38.7452 51.9893C38.9653 51.2241 39.4828 50.5791 40.1822 50.1983C41.6347 49.4013 43.4584 49.9328 44.2554 51.3854C44.5014 51.8337 44.6287 52.3375 44.6252 52.8488V52.8698C44.6265 53.141 44.586 53.4106 44.5052 53.6693C44.0417 55.2601 42.3765 56.1738 40.7857 55.7103C39.1948 55.2469 38.2811 53.5816 38.7446 51.9908ZM20.625 66.3593C22.2819 66.3593 23.625 67.7024 23.625 69.3593C23.625 71.0163 22.2819 72.3593 20.625 72.3593C18.9681 72.3593 17.625 71.0163 17.625 69.3593C17.625 67.7024 18.9681 66.3593 20.625 66.3593Z" fill="#3E6B7F"/>
<path d="M20.625 52.8594C23.9237 52.8746 26.6102 50.2127 26.6254 46.9138C26.6323 45.4202 26.0794 43.9783 25.0755 42.8724L39.792 19.5429C41.6514 20.1874 43.7113 19.8347 45.2505 18.6084L57.138 27.9594C55.7976 30.9799 57.1596 34.5152 60.1802 35.8556C60.9499 36.1973 61.7829 36.3724 62.625 36.3699H62.6385C65.9511 36.3624 68.6308 33.672 68.625 30.3594C68.6237 29.8204 68.5489 29.2839 68.403 28.7649L79.212 22.4289C80.3458 23.6666 81.9463 24.3728 83.625 24.3759H83.6475C86.9662 24.3684 89.6505 21.6722 89.643 18.3534C89.6355 15.0347 86.9393 12.3504 83.6205 12.3579C80.3036 12.3654 77.6201 15.0591 77.625 18.3759C77.6304 18.8492 77.6903 19.3204 77.8035 19.7799L66.9 26.1594C65.7714 25.0155 64.2319 24.3711 62.625 24.3699H62.6085C61.3043 24.3782 60.0392 24.8156 59.0085 25.6149L47.1165 16.2594C48.4547 13.2279 47.082 9.68569 44.0507 8.34731C41.0194 7.00894 37.4769 8.38181 36.1386 11.4131C35.1658 13.6166 35.6051 16.1882 37.254 17.9437L22.575 41.2119C21.9493 40.9858 21.2903 40.8668 20.625 40.8594C17.3113 40.8594 14.625 43.5457 14.625 46.8594C14.625 50.1731 17.3113 52.8594 20.625 52.8594ZM83.625 15.3594C85.2819 15.3594 86.625 16.7025 86.625 18.3594C86.6308 20.0162 85.2924 21.3641 83.6355 21.3699H83.625C82.5516 21.3714 81.5591 20.7996 81.0225 19.8699C80.7681 19.4066 80.6316 18.888 80.625 18.3594C80.625 16.7025 81.9681 15.3594 83.625 15.3594ZM62.625 27.3699C64.2819 27.3699 65.625 28.713 65.625 30.3699C65.625 32.0269 64.2819 33.3699 62.625 33.3699C60.9681 33.3699 59.625 32.0269 59.625 30.3699C59.625 28.713 60.9681 27.3699 62.625 27.3699ZM41.625 10.8594C43.2819 10.8594 44.625 12.2025 44.625 13.8594C44.625 15.5164 43.2819 16.8594 41.625 16.8594C39.9681 16.8594 38.625 15.5164 38.625 13.8594C38.625 12.2025 39.9681 10.8594 41.625 10.8594ZM20.625 43.8594C22.2819 43.8594 23.625 45.2025 23.625 46.8594C23.625 48.5164 22.2819 49.8594 20.625 49.8594C18.9681 49.8594 17.625 48.5164 17.625 46.8594C17.625 45.2025 18.9681 43.8594 20.625 43.8594Z" fill="#3E6B7F"/>
</svg>
