<svg width="90" height="90" viewBox="0 0 90 90" fill="none" xmlns="http://www.w3.org/2000/svg">
<g clip-path="url(#clip0_440_1409)">
<path d="M76.9899 63.9864C74.0363 63.9864 71.3111 64.9777 69.1253 66.6427L55.3504 52.8677C57.0154 50.6819 58.0069 47.9562 58.0069 45.0028C58.0069 43.5926 57.7784 42.2354 57.3613 40.963L71.5391 34.089C73.3926 36.6518 76.4051 38.3238 79.8024 38.3238C85.4235 38.3238 89.9968 33.7505 89.9968 28.1293C89.9968 22.5082 85.4235 17.9349 79.8024 17.9349C74.1813 17.9349 69.608 22.5082 69.608 28.1293C69.608 29.1 69.7472 30.038 70.0017 30.928L55.8248 37.8015C53.7994 34.7672 50.5336 32.6309 46.758 32.1184V27.4456C49.198 26.693 50.9764 24.4172 50.9764 21.7337C50.9764 18.4384 48.2956 15.7577 45.0004 15.7577C41.7052 15.7577 39.0243 18.4385 39.0243 21.7337C39.0243 24.4176 40.8027 26.6934 43.2427 27.4456V32.1184C40.9686 32.427 38.8798 33.3239 37.1354 34.6528L25.7732 23.2906C28.5437 19.7386 29.523 15.0328 28.3229 10.6229C28.0679 9.68603 27.1018 9.1332 26.1654 9.38861C25.2287 9.64349 24.6762 10.6094 24.9311 11.5461C25.9524 15.2989 24.8882 19.3348 22.1548 22.0918C22.1434 22.1027 22.1312 22.112 22.12 22.1233C22.1101 22.1331 22.1017 22.144 22.0922 22.154C17.8409 26.3733 10.95 26.3642 6.71117 22.1252C2.46218 17.8764 2.46218 10.9627 6.71117 6.71374C9.39833 4.0264 13.2145 2.94165 16.9198 3.81142C17.8643 4.0329 18.8107 3.4472 19.0327 2.50203C19.2546 1.55703 18.6683 0.611147 17.7233 0.389135C12.8247 -0.760826 7.77869 0.673901 4.22492 4.22749C-1.39463 9.84705 -1.39463 18.9908 4.22492 24.6106C7.03478 27.4204 10.7255 28.8253 14.4164 28.8253C17.5542 28.8253 20.6896 27.8059 23.2861 25.7751L34.6491 37.1381C32.9843 39.324 31.9931 42.0493 31.9931 45.0024C31.9931 52.1745 37.8278 58.0092 44.9998 58.0092C47.9533 58.0092 50.6785 57.0179 52.8641 55.3531L66.6392 69.128C64.9742 71.3139 63.983 74.0394 63.983 76.9927C63.983 84.1647 69.8177 89.9994 76.9897 89.9994C84.1618 89.9994 89.9965 84.1647 89.9965 76.9927C89.9967 69.821 84.1618 63.9864 76.9899 63.9864ZM79.8021 21.4498C83.4849 21.4498 86.4812 24.4462 86.4812 28.129C86.4812 31.8118 83.4849 34.8082 79.8021 34.8082C76.1193 34.8082 73.1229 31.8118 73.1229 28.129C73.1229 24.446 76.1193 21.4498 79.8021 21.4498ZM42.5391 21.733C42.5391 20.3762 43.6428 19.2723 44.9998 19.2723C46.3567 19.2723 47.4606 20.376 47.4606 21.733C47.4606 23.0899 46.3569 24.1938 44.9998 24.1938C43.643 24.1938 42.5391 23.0901 42.5391 21.733ZM44.9998 54.4941C39.7661 54.4941 35.5084 50.2363 35.5084 45.0026C35.5084 39.7689 39.7661 35.5111 44.9998 35.5111C50.2335 35.5111 54.4913 39.7689 54.4913 45.0026C54.4913 50.2361 50.2335 54.4941 44.9998 54.4941ZM76.9899 86.4847C71.7562 86.4847 67.4984 82.2269 67.4984 76.9932C67.4984 71.7595 71.7562 67.5017 76.9899 67.5017C82.2236 67.5017 86.4814 71.7595 86.4814 76.9932C86.4812 82.2269 82.2235 86.4847 76.9899 86.4847Z" fill="#3E6B7F"/>
<path d="M24.6679 4.28806L24.6048 4.2246C23.9168 3.53994 22.8041 3.5424 22.1191 4.23058C21.4342 4.91876 21.4369 6.03146 22.1251 6.7163L22.1704 6.76218C22.5142 7.10917 22.9667 7.28285 23.4192 7.28285C23.8662 7.28285 24.3134 7.11339 24.656 6.77378C25.3459 6.0907 25.3512 4.97783 24.6679 4.28806Z" fill="#3E6B7F"/>
<path d="M29.1492 60.8532C28.4628 60.1668 27.3499 60.1668 26.6635 60.8532L16.0505 71.4662C14.3927 70.2993 12.3748 69.6111 10.1977 69.6111C4.5766 69.6111 0.0032959 74.1844 0.0032959 79.8056C0.0032959 85.4267 4.5766 90 10.1977 90C15.8189 90 20.3922 85.4267 20.3922 79.8056C20.3922 77.6282 19.7038 75.6099 18.5364 73.9519L29.1492 63.3391C29.8357 62.6527 29.8357 61.5396 29.1492 60.8532ZM10.1977 86.4847C6.51494 86.4847 3.51857 83.4884 3.51857 79.8056C3.51857 76.1228 6.51494 73.1264 10.1977 73.1264C13.8805 73.1264 16.8769 76.1228 16.8769 79.8056C16.8769 83.4884 13.8805 86.4847 10.1977 86.4847Z" fill="#3E6B7F"/>
<path d="M33.3237 56.6789C32.9968 56.3519 32.5433 56.1638 32.0811 56.1638C31.619 56.1638 31.1653 56.3519 30.8385 56.6789C30.5116 57.0058 30.3235 57.4593 30.3235 57.9215C30.3235 58.3836 30.5116 58.8373 30.8385 59.1641C31.1655 59.491 31.619 59.6791 32.0811 59.6791C32.5434 59.6791 32.9969 59.491 33.3237 59.1641C33.6507 58.8371 33.8388 58.3836 33.8388 57.9215C33.8388 57.4593 33.6505 57.0056 33.3237 56.6789Z" fill="#3E6B7F"/>
</g>
<defs>
<clipPath id="clip0_440_1409">
<rect width="90" height="90" fill="white"/>
</clipPath>
</defs>
</svg>
